<?xml version="1.0" encoding="utf-8"?>
<!-- Generator: Adobe Illustrator 22.0.1, SVG Export Plug-In . SVG Version: 6.00 Build 0)  -->
<svg version="1.1" id="Layer_1" xmlns="http://www.w3.org/2000/svg" xmlns:xlink="http://www.w3.org/1999/xlink" x="0px" y="0px"
	 viewBox="0 0 432 288" style="enable-background:new 0 0 432 288;" xml:space="preserve">
<style type="text/css">
	.st0{fill:none;stroke:#000000;stroke-width:0.375;stroke-linejoin:bevel;stroke-miterlimit:10;}
	.st1{fill:none;stroke:#000000;stroke-width:0.375;stroke-linejoin:bevel;stroke-miterlimit:10;stroke-dasharray:0.72,1.32;}
	.st2{fill:none;stroke:#000000;stroke-width:0.75;stroke-linejoin:bevel;stroke-miterlimit:10;}
</style>
<g>
	<path class="st0" d="M90.8,108.5H93l4.4-0.2l4.4,0.1l4.4-0.1l4.4,0l4.4,0l4.4,0l4.4,0.3l4.4,0.7l4.4,0.7l4.4,0.7l4.4,0.7l4.4,0.8
		l4.4,0.7l4.4,0.8l4.4,0.1h2.2 M187,119.8h2.2l4.4,0.6l4.4,0.7l4.4,0.9l4.4,0.7l4.4,0.6l4.4,0.3h2.2 M230.7,117.6h2.2l4.4-1.9
		l4.4-2.3l4.4-2.2l4.4-1.7l4.4-2.7l4.4-2.2l4.4-2.5l4.4-2.5l4.4-2.2l4.4-2.4l4.4-2l4.4-0.1l4.4,1.8l4.4,3.1l4.4,2.8l4.4,2.6l4.4,2.3
		l4.4,3.4l4.4,1.9l4.4,2.9l4.4,2.2l4.4,2.8l4.4,2.5l4.4,2.3l4.4,2.3l4.4,2.4h2.2 M56.3,182.9h348v-33.1h-348V182.9z"/>
	<line class="st1" x1="86.9" y1="149.8" x2="86.9" y2="17.2"/>
	<line class="st0" x1="86.9" y1="182.9" x2="86.9" y2="149.8"/>
	<g>
		<path d="M111.6,165.8c0.3-0.3,0.5-0.5,0.6-0.6c0.1-0.1,0.3-0.2,0.5-0.3c0.2-0.1,0.3-0.1,0.5-0.1c0.3,0,0.5,0.1,0.7,0.2
			s0.3,0.4,0.4,0.7c0.3-0.4,0.6-0.6,0.8-0.8c0.2-0.1,0.5-0.2,0.7-0.2c0.2,0,0.4,0.1,0.6,0.2c0.2,0.1,0.3,0.3,0.4,0.6
			c0.1,0.2,0.1,0.5,0.1,0.9v1.9c0,0.3,0,0.5,0.1,0.6c0,0.1,0.1,0.1,0.2,0.2c0.1,0,0.2,0.1,0.4,0.1v0.2h-2.2v-0.2h0.1
			c0.2,0,0.3,0,0.4-0.1c0.1-0.1,0.1-0.1,0.2-0.2c0-0.1,0-0.2,0-0.5v-1.9c0-0.4,0-0.6-0.1-0.8c-0.1-0.2-0.3-0.3-0.6-0.3
			c-0.2,0-0.3,0-0.5,0.1c-0.2,0.1-0.4,0.2-0.6,0.5l0,0.1l0,0.2v2.1c0,0.3,0,0.5,0.1,0.6c0,0.1,0.1,0.1,0.2,0.2
			c0.1,0,0.3,0.1,0.5,0.1v0.2h-2.3v-0.2c0.2,0,0.4,0,0.5-0.1c0.1-0.1,0.2-0.1,0.2-0.3c0-0.1,0-0.2,0-0.5v-1.9c0-0.4-0.1-0.6-0.2-0.8
			c-0.1-0.2-0.3-0.3-0.6-0.3c-0.2,0-0.3,0-0.5,0.1c-0.3,0.1-0.5,0.3-0.6,0.5v2.4c0,0.3,0,0.5,0.1,0.6c0,0.1,0.1,0.2,0.2,0.2
			c0.1,0,0.2,0.1,0.5,0.1v0.2h-2.2v-0.2c0.2,0,0.3,0,0.4-0.1c0.1,0,0.1-0.1,0.2-0.2c0-0.1,0.1-0.3,0.1-0.6v-1.7c0-0.5,0-0.8,0-0.9
			c0-0.1-0.1-0.2-0.1-0.2c0,0-0.1-0.1-0.2-0.1c-0.1,0-0.2,0-0.3,0.1l-0.1-0.2l1.3-0.5h0.2V165.8z"/>
		<path d="M120.2,164.9c0.7,0,1.2,0.3,1.6,0.8c0.3,0.4,0.5,0.9,0.5,1.5c0,0.4-0.1,0.8-0.3,1.2c-0.2,0.4-0.5,0.7-0.8,0.9
			c-0.3,0.2-0.7,0.3-1.1,0.3c-0.7,0-1.2-0.3-1.6-0.8c-0.3-0.5-0.5-1-0.5-1.5c0-0.4,0.1-0.8,0.3-1.2c0.2-0.4,0.5-0.7,0.8-0.9
			C119.5,165,119.8,164.9,120.2,164.9z M120,165.2c-0.2,0-0.3,0.1-0.5,0.2c-0.2,0.1-0.3,0.3-0.4,0.5c-0.1,0.3-0.2,0.6-0.2,1
			c0,0.6,0.1,1.2,0.4,1.7c0.3,0.5,0.6,0.7,1,0.7c0.3,0,0.6-0.1,0.8-0.4c0.2-0.3,0.3-0.7,0.3-1.3c0-0.8-0.2-1.4-0.5-1.9
			C120.7,165.3,120.4,165.2,120,165.2z"/>
		<path d="M124.5,162.5v5.9c0,0.3,0,0.5,0.1,0.6s0.1,0.2,0.2,0.2c0.1,0,0.2,0.1,0.5,0.1v0.2h-2.2v-0.2c0.2,0,0.3,0,0.4-0.1
			c0.1,0,0.1-0.1,0.2-0.2c0-0.1,0.1-0.3,0.1-0.6v-4c0-0.5,0-0.8,0-0.9c0-0.1-0.1-0.2-0.1-0.2c-0.1,0-0.1-0.1-0.2-0.1
			c-0.1,0-0.2,0-0.3,0.1l-0.1-0.2l1.3-0.5H124.5z"/>
		<path d="M127.3,162.5v5.9c0,0.3,0,0.5,0.1,0.6s0.1,0.2,0.2,0.2c0.1,0,0.2,0.1,0.5,0.1v0.2h-2.2v-0.2c0.2,0,0.3,0,0.4-0.1
			c0.1,0,0.1-0.1,0.2-0.2c0-0.1,0.1-0.3,0.1-0.6v-4c0-0.5,0-0.8,0-0.9c0-0.1-0.1-0.2-0.1-0.2c-0.1,0-0.1-0.1-0.2-0.1
			c-0.1,0-0.2,0-0.3,0.1l-0.1-0.2l1.3-0.5H127.3z"/>
		<path d="M128.3,165h2.1v0.2h-0.1c-0.1,0-0.3,0-0.3,0.1c-0.1,0.1-0.1,0.1-0.1,0.2c0,0.1,0.1,0.3,0.2,0.5l1.1,2.2l1-2.5
			c0.1-0.1,0.1-0.3,0.1-0.4c0-0.1,0-0.1,0-0.1c0,0-0.1-0.1-0.1-0.1s-0.2,0-0.3,0V165h1.4v0.2c-0.1,0-0.2,0-0.3,0.1s-0.1,0.1-0.2,0.2
			c0,0-0.1,0.2-0.2,0.4l-1.8,4.4c-0.2,0.4-0.4,0.8-0.7,1c-0.3,0.2-0.6,0.3-0.8,0.3c-0.2,0-0.3-0.1-0.5-0.2s-0.2-0.2-0.2-0.4
			c0-0.1,0-0.2,0.1-0.3c0.1-0.1,0.2-0.1,0.4-0.1c0.1,0,0.3,0,0.4,0.1c0.1,0,0.2,0.1,0.2,0.1c0.1,0,0.2-0.1,0.3-0.2
			c0.1-0.1,0.2-0.3,0.3-0.6l0.3-0.8l-1.6-3.4c0-0.1-0.1-0.2-0.2-0.4c-0.1-0.1-0.1-0.2-0.2-0.2c-0.1-0.1-0.2-0.1-0.4-0.1V165z"/>
	</g>
	<line class="st1" x1="156.5" y1="149.8" x2="156.5" y2="17.2"/>
	<line class="st0" x1="156.5" y1="182.9" x2="156.5" y2="149.8"/>
	<g>
		<path d="M161.2,165.2V165c0.3-0.2,0.6-0.4,0.7-0.6c0.1-0.1,0.1-0.3,0.1-0.4c0-0.1,0-0.2-0.1-0.2c0,0-0.1-0.1-0.1-0.1
			c0,0-0.1,0-0.1,0c-0.1,0-0.2,0-0.2,0c-0.1,0-0.2,0-0.3-0.1s-0.2-0.2-0.2-0.4c0-0.2,0.1-0.3,0.2-0.4c0.1-0.1,0.3-0.2,0.5-0.2
			c0.2,0,0.4,0.1,0.6,0.3c0.2,0.2,0.3,0.4,0.3,0.7c0,0.4-0.1,0.7-0.4,1C161.8,164.9,161.5,165.1,161.2,165.2z"/>
		<path d="M166.5,164.9v1.5h-0.2c-0.1-0.5-0.3-0.8-0.5-1s-0.4-0.3-0.7-0.3c-0.2,0-0.4,0.1-0.5,0.2c-0.1,0.1-0.2,0.3-0.2,0.4
			c0,0.2,0.1,0.3,0.2,0.5c0.1,0.1,0.3,0.3,0.6,0.4l0.7,0.3c0.7,0.3,1,0.7,1,1.3c0,0.4-0.2,0.7-0.5,1c-0.3,0.2-0.6,0.4-1,0.4
			c-0.3,0-0.6,0-0.9-0.1c-0.1,0-0.2,0-0.3,0c-0.1,0-0.1,0-0.2,0.1h-0.2v-1.6h0.2c0.1,0.5,0.3,0.8,0.5,1c0.3,0.2,0.5,0.3,0.9,0.3
			c0.2,0,0.4-0.1,0.5-0.2c0.1-0.1,0.2-0.3,0.2-0.5c0-0.2-0.1-0.4-0.2-0.6s-0.5-0.3-0.9-0.6c-0.5-0.2-0.8-0.4-0.9-0.6
			c-0.1-0.2-0.2-0.4-0.2-0.7c0-0.4,0.1-0.7,0.4-0.9c0.3-0.2,0.6-0.4,1-0.4c0.2,0,0.4,0,0.6,0.1c0.2,0,0.3,0.1,0.3,0.1
			c0.1,0,0.1,0,0.1,0c0,0,0.1-0.1,0.1-0.2H166.5z"/>
	</g>
	<line class="st1" x1="170.8" y1="149.8" x2="170.8" y2="17.2"/>
	<line class="st0" x1="170.8" y1="182.9" x2="170.8" y2="149.8"/>
	<g>
		<path d="M187.5,165.3v2.9c0,0.4,0,0.7,0.1,0.8c0.1,0.1,0.3,0.2,0.5,0.2h0.4v0.2h-2.7v-0.2h0.2c0.1,0,0.2,0,0.4-0.1
			c0.1-0.1,0.2-0.2,0.2-0.3s0.1-0.3,0.1-0.6v-2.9h-0.9V165h0.9v-0.3c0-0.4,0.1-0.8,0.2-1.1c0.1-0.3,0.4-0.6,0.7-0.7
			c0.3-0.2,0.6-0.3,1-0.3c0.3,0,0.7,0.1,0.9,0.3c0.2,0.1,0.3,0.3,0.3,0.5c0,0.1,0,0.2-0.1,0.3c-0.1,0.1-0.2,0.1-0.3,0.1
			c-0.1,0-0.2,0-0.2-0.1c-0.1-0.1-0.2-0.2-0.3-0.3s-0.2-0.3-0.3-0.4s-0.2-0.1-0.3-0.1c-0.1,0-0.3,0-0.4,0.1
			c-0.1,0.1-0.2,0.2-0.2,0.4c0,0.2-0.1,0.6-0.1,1.3v0.3h1.1v0.4H187.5z"/>
		<path d="M190.4,164.9v1c0.4-0.7,0.8-1,1.1-1c0.2,0,0.3,0.1,0.4,0.2c0.1,0.1,0.2,0.2,0.2,0.4c0,0.1,0,0.2-0.1,0.3
			c-0.1,0.1-0.2,0.1-0.3,0.1c-0.1,0-0.2-0.1-0.4-0.2s-0.2-0.2-0.3-0.2c-0.1,0-0.1,0-0.2,0.1c-0.1,0.1-0.3,0.4-0.5,0.7v2.1
			c0,0.2,0,0.4,0.1,0.6c0,0.1,0.1,0.2,0.2,0.2s0.3,0.1,0.5,0.1v0.2h-2.3v-0.2c0.2,0,0.4,0,0.5-0.1c0.1-0.1,0.1-0.1,0.2-0.2
			c0-0.1,0-0.2,0-0.5v-1.7c0-0.5,0-0.8,0-0.9c0-0.1-0.1-0.2-0.1-0.2c-0.1,0-0.1-0.1-0.2-0.1c-0.1,0-0.2,0-0.3,0.1l0-0.2l1.3-0.5
			H190.4z"/>
		<path d="M194.6,164.9c0.7,0,1.2,0.3,1.6,0.8c0.3,0.4,0.5,0.9,0.5,1.5c0,0.4-0.1,0.8-0.3,1.2c-0.2,0.4-0.5,0.7-0.8,0.9
			c-0.3,0.2-0.7,0.3-1.1,0.3c-0.7,0-1.2-0.3-1.6-0.8c-0.3-0.5-0.5-1-0.5-1.5c0-0.4,0.1-0.8,0.3-1.2c0.2-0.4,0.5-0.7,0.8-0.9
			C193.8,165,194.2,164.9,194.6,164.9z M194.4,165.2c-0.2,0-0.3,0.1-0.5,0.2c-0.2,0.1-0.3,0.3-0.4,0.5c-0.1,0.3-0.2,0.6-0.2,1
			c0,0.6,0.1,1.2,0.4,1.7c0.3,0.5,0.6,0.7,1,0.7c0.3,0,0.6-0.1,0.8-0.4c0.2-0.3,0.3-0.7,0.3-1.3c0-0.8-0.2-1.4-0.5-1.9
			C195.1,165.3,194.8,165.2,194.4,165.2z"/>
		<path d="M198.7,165.8c0.3-0.3,0.5-0.5,0.6-0.6c0.1-0.1,0.3-0.2,0.5-0.3c0.2-0.1,0.3-0.1,0.5-0.1c0.3,0,0.5,0.1,0.7,0.2
			s0.3,0.4,0.4,0.7c0.3-0.4,0.6-0.6,0.8-0.8c0.2-0.1,0.5-0.2,0.7-0.2c0.2,0,0.4,0.1,0.6,0.2c0.2,0.1,0.3,0.3,0.4,0.6
			c0.1,0.2,0.1,0.5,0.1,0.9v1.9c0,0.3,0,0.5,0.1,0.6c0,0.1,0.1,0.1,0.2,0.2c0.1,0,0.2,0.1,0.4,0.1v0.2h-2.2v-0.2h0.1
			c0.2,0,0.3,0,0.4-0.1c0.1-0.1,0.1-0.1,0.2-0.2c0-0.1,0-0.2,0-0.5v-1.9c0-0.4,0-0.6-0.1-0.8c-0.1-0.2-0.3-0.3-0.6-0.3
			c-0.2,0-0.3,0-0.5,0.1c-0.2,0.1-0.4,0.2-0.6,0.5l0,0.1l0,0.2v2.1c0,0.3,0,0.5,0.1,0.6c0,0.1,0.1,0.1,0.2,0.2
			c0.1,0,0.3,0.1,0.5,0.1v0.2h-2.3v-0.2c0.2,0,0.4,0,0.5-0.1c0.1-0.1,0.2-0.1,0.2-0.3c0-0.1,0-0.2,0-0.5v-1.9c0-0.4-0.1-0.6-0.2-0.8
			c-0.1-0.2-0.3-0.3-0.6-0.3c-0.2,0-0.3,0-0.5,0.1c-0.3,0.1-0.5,0.3-0.6,0.5v2.4c0,0.3,0,0.5,0.1,0.6c0,0.1,0.1,0.2,0.2,0.2
			c0.1,0,0.2,0.1,0.5,0.1v0.2h-2.2v-0.2c0.2,0,0.3,0,0.4-0.1c0.1,0,0.1-0.1,0.2-0.2c0-0.1,0.1-0.3,0.1-0.6v-1.7c0-0.5,0-0.8,0-0.9
			c0-0.1-0.1-0.2-0.1-0.2c0,0-0.1-0.1-0.2-0.1c-0.1,0-0.2,0-0.3,0.1l-0.1-0.2l1.3-0.5h0.2V165.8z"/>
	</g>
	<line class="st1" x1="219.7" y1="149.8" x2="219.7" y2="17.2"/>
	<line class="st0" x1="219.7" y1="182.9" x2="219.7" y2="149.8"/>
	<g>
		<path d="M269.4,165.8c0.4-0.6,0.9-0.9,1.4-0.9c0.5,0,0.9,0.2,1.2,0.6s0.5,0.9,0.5,1.6c0,0.8-0.3,1.4-0.8,1.9
			c-0.5,0.4-1,0.6-1.5,0.6c-0.3,0-0.5,0-0.8-0.1s-0.5-0.2-0.8-0.4v-4.6c0-0.5,0-0.8,0-0.9c0-0.1-0.1-0.2-0.1-0.2
			c-0.1,0-0.1-0.1-0.2-0.1c-0.1,0-0.2,0-0.3,0.1l-0.1-0.2l1.3-0.5h0.2V165.8z M269.4,166.1v2.7c0.2,0.2,0.3,0.3,0.5,0.4
			s0.4,0.1,0.5,0.1c0.3,0,0.6-0.2,0.8-0.5c0.3-0.3,0.4-0.8,0.4-1.4c0-0.6-0.1-1-0.4-1.3c-0.3-0.3-0.5-0.5-0.9-0.5
			c-0.2,0-0.3,0-0.5,0.1C269.8,165.7,269.6,165.9,269.4,166.1z"/>
		<path d="M274.5,164.9v1c0.4-0.7,0.8-1,1.1-1c0.2,0,0.3,0.1,0.4,0.2c0.1,0.1,0.2,0.2,0.2,0.4c0,0.1,0,0.2-0.1,0.3
			c-0.1,0.1-0.2,0.1-0.3,0.1c-0.1,0-0.2-0.1-0.4-0.2s-0.2-0.2-0.3-0.2c-0.1,0-0.1,0-0.2,0.1c-0.1,0.1-0.3,0.4-0.5,0.7v2.1
			c0,0.2,0,0.4,0.1,0.6c0,0.1,0.1,0.2,0.2,0.2c0.1,0.1,0.3,0.1,0.5,0.1v0.2H273v-0.2c0.2,0,0.4,0,0.5-0.1c0.1-0.1,0.1-0.1,0.2-0.2
			c0-0.1,0-0.2,0-0.5v-1.7c0-0.5,0-0.8,0-0.9c0-0.1-0.1-0.2-0.1-0.2c-0.1,0-0.1-0.1-0.2-0.1c-0.1,0-0.2,0-0.3,0.1l0-0.2l1.3-0.5
			H274.5z"/>
		<path d="M279,168.8c-0.5,0.4-0.7,0.6-0.9,0.6c-0.2,0.1-0.4,0.1-0.6,0.1c-0.3,0-0.6-0.1-0.8-0.3s-0.3-0.5-0.3-0.8
			c0-0.2,0-0.4,0.1-0.6c0.1-0.2,0.4-0.4,0.7-0.6s0.9-0.4,1.6-0.7v-0.2c0-0.4-0.1-0.7-0.2-0.9c-0.1-0.2-0.3-0.2-0.6-0.2
			c-0.2,0-0.4,0.1-0.5,0.2c-0.1,0.1-0.2,0.2-0.2,0.4l0,0.3c0,0.1,0,0.3-0.1,0.3s-0.2,0.1-0.3,0.1c-0.1,0-0.2,0-0.3-0.1
			s-0.1-0.2-0.1-0.3c0-0.3,0.1-0.5,0.4-0.8s0.7-0.3,1.2-0.3c0.4,0,0.7,0.1,1,0.2c0.2,0.1,0.3,0.3,0.4,0.5c0.1,0.1,0.1,0.4,0.1,0.9
			v1.5c0,0.4,0,0.7,0,0.8s0,0.2,0.1,0.2c0,0,0.1,0,0.1,0c0.1,0,0.1,0,0.1,0c0.1,0,0.2-0.2,0.4-0.4v0.3c-0.4,0.5-0.7,0.7-1,0.7
			c-0.2,0-0.3-0.1-0.4-0.2C279.1,169.3,279,169.1,279,168.8z M279,168.5v-1.7c-0.5,0.2-0.8,0.3-0.9,0.4c-0.3,0.1-0.4,0.3-0.5,0.4
			c-0.1,0.2-0.2,0.3-0.2,0.5c0,0.2,0.1,0.4,0.2,0.6c0.1,0.2,0.3,0.2,0.5,0.2C278.3,169,278.6,168.8,279,168.5z"/>
		<path d="M282.2,165.8c0.5-0.6,1-0.9,1.5-0.9c0.2,0,0.5,0.1,0.6,0.2c0.2,0.1,0.3,0.3,0.4,0.6c0.1,0.2,0.1,0.5,0.1,0.9v1.9
			c0,0.3,0,0.5,0.1,0.6c0,0.1,0.1,0.1,0.2,0.2c0.1,0,0.2,0.1,0.4,0.1v0.2h-2.2v-0.2h0.1c0.2,0,0.4,0,0.4-0.1
			c0.1-0.1,0.1-0.2,0.2-0.3c0,0,0-0.2,0-0.5v-1.8c0-0.4-0.1-0.7-0.2-0.9c-0.1-0.2-0.3-0.3-0.5-0.3c-0.4,0-0.8,0.2-1.2,0.6v2.3
			c0,0.3,0,0.5,0.1,0.6c0,0.1,0.1,0.2,0.2,0.2c0.1,0,0.2,0.1,0.5,0.1v0.2h-2.2v-0.2h0.1c0.2,0,0.4-0.1,0.5-0.2
			c0.1-0.1,0.1-0.3,0.1-0.7v-1.7c0-0.5,0-0.9,0-1c0-0.1-0.1-0.2-0.1-0.2c-0.1,0-0.1-0.1-0.2-0.1c-0.1,0-0.2,0-0.3,0.1l-0.1-0.2
			l1.3-0.5h0.2V165.8z"/>
		<path d="M287.2,165.8c0.5-0.6,1-0.9,1.5-0.9c0.2,0,0.5,0.1,0.6,0.2c0.2,0.1,0.3,0.3,0.4,0.6c0.1,0.2,0.1,0.5,0.1,0.9v1.9
			c0,0.3,0,0.5,0.1,0.6c0,0.1,0.1,0.1,0.2,0.2c0.1,0,0.2,0.1,0.4,0.1v0.2h-2.2v-0.2h0.1c0.2,0,0.4,0,0.4-0.1
			c0.1-0.1,0.1-0.2,0.2-0.3c0,0,0-0.2,0-0.5v-1.8c0-0.4-0.1-0.7-0.2-0.9c-0.1-0.2-0.3-0.3-0.5-0.3c-0.4,0-0.8,0.2-1.2,0.6v2.3
			c0,0.3,0,0.5,0.1,0.6c0,0.1,0.1,0.2,0.2,0.2c0.1,0,0.2,0.1,0.5,0.1v0.2h-2.2v-0.2h0.1c0.2,0,0.4-0.1,0.5-0.2
			c0.1-0.1,0.1-0.3,0.1-0.7v-1.7c0-0.5,0-0.9,0-1c0-0.1-0.1-0.2-0.1-0.2c-0.1,0-0.1-0.1-0.2-0.1c-0.1,0-0.2,0-0.3,0.1l-0.1-0.2
			l1.3-0.5h0.2V165.8z"/>
		<path d="M292.4,164.9v3.6c0,0.3,0,0.5,0.1,0.6c0,0.1,0.1,0.2,0.2,0.2c0.1,0,0.2,0.1,0.4,0.1v0.2h-2.2v-0.2c0.2,0,0.4,0,0.4-0.1
			c0.1,0,0.1-0.1,0.2-0.2c0-0.1,0.1-0.3,0.1-0.6v-1.7c0-0.5,0-0.8,0-0.9c0-0.1-0.1-0.2-0.1-0.2c0,0-0.1-0.1-0.2-0.1
			c-0.1,0-0.2,0-0.3,0.1l-0.1-0.2l1.3-0.5H292.4z M292,162.5c0.1,0,0.3,0,0.3,0.1s0.1,0.2,0.1,0.3c0,0.1,0,0.3-0.1,0.4
			s-0.2,0.1-0.3,0.1c-0.1,0-0.3,0-0.3-0.1c-0.1-0.1-0.1-0.2-0.1-0.4c0-0.1,0-0.3,0.1-0.3S291.9,162.5,292,162.5z"/>
		<path d="M294.9,165.8c0.5-0.6,1-0.9,1.5-0.9c0.2,0,0.5,0.1,0.6,0.2c0.2,0.1,0.3,0.3,0.4,0.6c0.1,0.2,0.1,0.5,0.1,0.9v1.9
			c0,0.3,0,0.5,0.1,0.6c0,0.1,0.1,0.1,0.2,0.2c0.1,0,0.2,0.1,0.4,0.1v0.2h-2.2v-0.2h0.1c0.2,0,0.4,0,0.4-0.1
			c0.1-0.1,0.1-0.2,0.2-0.3c0,0,0-0.2,0-0.5v-1.8c0-0.4-0.1-0.7-0.2-0.9c-0.1-0.2-0.3-0.3-0.5-0.3c-0.4,0-0.8,0.2-1.2,0.6v2.3
			c0,0.3,0,0.5,0.1,0.6c0,0.1,0.1,0.2,0.2,0.2c0.1,0,0.2,0.1,0.5,0.1v0.2h-2.2v-0.2h0.1c0.2,0,0.4-0.1,0.5-0.2
			c0.1-0.1,0.1-0.3,0.1-0.7v-1.7c0-0.5,0-0.9,0-1c0-0.1-0.1-0.2-0.1-0.2c-0.1,0-0.1-0.1-0.2-0.1c-0.1,0-0.2,0-0.3,0.1l-0.1-0.2
			l1.3-0.5h0.2V165.8z"/>
		<path d="M299.8,167.8c-0.3-0.1-0.5-0.3-0.6-0.6c-0.1-0.2-0.2-0.5-0.2-0.8c0-0.4,0.2-0.8,0.5-1.1c0.3-0.3,0.8-0.5,1.3-0.5
			c0.4,0,0.8,0.1,1.1,0.3h0.9c0.1,0,0.2,0,0.2,0c0,0,0,0,0,0c0,0,0,0.1,0,0.2c0,0.1,0,0.1,0,0.2c0,0,0,0-0.1,0s-0.1,0-0.2,0h-0.6
			c0.2,0.2,0.3,0.5,0.3,0.9c0,0.4-0.2,0.8-0.5,1.1c-0.3,0.3-0.7,0.4-1.3,0.4c-0.2,0-0.4,0-0.7-0.1c-0.1,0.1-0.2,0.2-0.3,0.3
			c-0.1,0.1-0.1,0.2-0.1,0.2c0,0.1,0,0.1,0.1,0.2c0.1,0.1,0.2,0.1,0.3,0.1c0.1,0,0.3,0,0.7,0c0.7,0,1.1,0,1.3,0.1
			c0.3,0,0.5,0.2,0.7,0.3s0.3,0.4,0.3,0.7c0,0.4-0.2,0.7-0.5,1c-0.5,0.5-1.2,0.7-2,0.7c-0.6,0-1.2-0.1-1.6-0.4
			c-0.2-0.2-0.4-0.3-0.4-0.5c0-0.1,0-0.2,0.1-0.2c0.1-0.1,0.2-0.3,0.3-0.5c0,0,0.2-0.2,0.5-0.5c-0.2-0.1-0.3-0.2-0.4-0.3
			c-0.1-0.1-0.1-0.2-0.1-0.3c0-0.1,0-0.2,0.1-0.4S299.5,168.1,299.8,167.8z M299.8,169.4c-0.2,0.2-0.3,0.3-0.3,0.5
			c-0.1,0.1-0.1,0.3-0.1,0.4c0,0.2,0.1,0.3,0.3,0.4c0.3,0.2,0.8,0.3,1.4,0.3c0.6,0,1-0.1,1.3-0.3s0.4-0.4,0.4-0.7
			c0-0.2-0.1-0.3-0.2-0.4c-0.2-0.1-0.5-0.1-1-0.1C300.7,169.5,300.2,169.5,299.8,169.4z M300.7,165.1c-0.2,0-0.4,0.1-0.6,0.3
			s-0.2,0.5-0.2,0.9c0,0.5,0.1,0.9,0.3,1.2c0.2,0.2,0.4,0.3,0.6,0.3c0.2,0,0.4-0.1,0.6-0.3c0.2-0.2,0.2-0.5,0.2-0.9
			c0-0.5-0.1-0.9-0.3-1.2C301.1,165.2,300.9,165.1,300.7,165.1z"/>
	</g>
	<line class="st1" x1="351.7" y1="149.8" x2="351.7" y2="17.2"/>
	<path class="st0" d="M351.7,182.9v-33.1 M56.3,216h348v-33.1h-348V216z"/>
	<line class="st1" x1="86.9" y1="149.8" x2="86.9" y2="17.2"/>
	<line class="st0" x1="86.9" y1="216" x2="86.9" y2="182.9"/>
	<g>
		<path d="M94.9,198.9c0.3-0.3,0.5-0.5,0.6-0.6c0.1-0.1,0.3-0.2,0.5-0.3c0.2-0.1,0.3-0.1,0.5-0.1c0.3,0,0.5,0.1,0.7,0.2
			s0.3,0.4,0.4,0.7c0.3-0.4,0.6-0.6,0.8-0.8c0.2-0.1,0.5-0.2,0.7-0.2c0.2,0,0.4,0.1,0.6,0.2c0.2,0.1,0.3,0.3,0.4,0.6
			c0.1,0.2,0.1,0.5,0.1,0.9v1.9c0,0.3,0,0.5,0.1,0.6c0,0.1,0.1,0.1,0.2,0.2c0.1,0,0.2,0.1,0.4,0.1v0.2h-2.2v-0.2h0.1
			c0.2,0,0.3,0,0.4-0.1c0.1-0.1,0.1-0.1,0.2-0.2c0-0.1,0-0.2,0-0.5v-1.9c0-0.4,0-0.6-0.1-0.8c-0.1-0.2-0.3-0.3-0.6-0.3
			c-0.2,0-0.3,0-0.5,0.1c-0.2,0.1-0.4,0.2-0.6,0.5l0,0.1l0,0.2v2.1c0,0.3,0,0.5,0.1,0.6c0,0.1,0.1,0.1,0.2,0.2
			c0.1,0,0.3,0.1,0.5,0.1v0.2h-2.3v-0.2c0.2,0,0.4,0,0.5-0.1c0.1-0.1,0.2-0.1,0.2-0.3c0-0.1,0-0.2,0-0.5v-1.9c0-0.4-0.1-0.6-0.2-0.8
			c-0.1-0.2-0.3-0.3-0.6-0.3c-0.2,0-0.3,0-0.5,0.1c-0.3,0.1-0.5,0.3-0.6,0.5v2.4c0,0.3,0,0.5,0.1,0.6c0,0.1,0.1,0.2,0.2,0.2
			c0.1,0,0.2,0.1,0.5,0.1v0.2h-2.2v-0.2c0.2,0,0.3,0,0.4-0.1c0.1,0,0.1-0.1,0.2-0.2c0-0.1,0.1-0.3,0.1-0.6v-1.7c0-0.5,0-0.8,0-0.9
			c0-0.1-0.1-0.2-0.1-0.2c0,0-0.1-0.1-0.2-0.1c-0.1,0-0.2,0-0.3,0.1l-0.1-0.2l1.3-0.5h0.2V198.9z"/>
	</g>
	<line class="st1" x1="107.6" y1="149.8" x2="107.6" y2="17.2"/>
	<line class="st0" x1="107.6" y1="216" x2="107.6" y2="182.9"/>
	<g>
		<path d="M113.6,202.1l-1.4,0.6H112V202c-0.4,0.4-0.9,0.7-1.4,0.7c-0.5,0-1-0.2-1.3-0.7s-0.6-1-0.6-1.6c0-0.7,0.2-1.3,0.6-1.8
			c0.4-0.6,1-0.9,1.7-0.9c0.4,0,0.7,0.1,1,0.4l0.7-0.4h0.2v2.9c0,0.5,0,0.8,0,1c0,0.1,0.1,0.2,0.1,0.3c0.1,0.1,0.3,0.1,0.6,0
			L113.6,202.1z M112,201.7v-2.4c0-0.3-0.1-0.5-0.3-0.8c-0.2-0.3-0.5-0.4-0.8-0.4c-0.4,0-0.6,0.2-0.9,0.5c-0.2,0.4-0.4,0.8-0.4,1.4
			c0,0.7,0.2,1.2,0.5,1.6c0.3,0.3,0.6,0.5,1,0.5C111.4,202.1,111.7,202,112,201.7z"/>
	</g>
	<line class="st1" x1="114.6" y1="149.8" x2="114.6" y2="17.2"/>
	<line class="st0" x1="114.6" y1="216" x2="114.6" y2="182.9"/>
	<g>
		<path d="M132.1,202.6H130v-0.2h0.1c0.3,0,0.5-0.1,0.5-0.3c0-0.1-0.1-0.3-0.2-0.5l-1.1-2.3l-1,2.6c-0.1,0.2-0.1,0.4-0.1,0.5
			c0.1,0.1,0.2,0.1,0.4,0.1v0.2h-1.5v-0.2c0.2,0,0.3-0.1,0.4-0.1c0.1-0.1,0.2-0.3,0.3-0.6l1.9-4.6c0.2-0.4,0.4-0.8,0.7-1
			c0.3-0.2,0.6-0.4,0.9-0.4c0.2,0,0.4,0.1,0.5,0.2c0.1,0.1,0.2,0.2,0.2,0.4c0,0.3-0.2,0.5-0.5,0.5c-0.1,0-0.2,0-0.4-0.1
			c-0.2-0.1-0.3-0.1-0.3-0.1c-0.3,0-0.5,0.3-0.7,0.8l-0.3,0.8l1.7,3.5c0.1,0.2,0.2,0.4,0.3,0.5c0.2,0.2,0.3,0.3,0.6,0.3V202.6z"/>
	</g>
	<line class="st1" x1="144.9" y1="149.8" x2="144.9" y2="17.2"/>
	<line class="st0" x1="144.9" y1="216" x2="144.9" y2="182.9"/>
	<g>
		<path d="M151,198v3.6c0,0.3,0,0.5,0.1,0.6c0,0.1,0.1,0.2,0.2,0.2c0.1,0,0.2,0.1,0.4,0.1v0.2h-2.2v-0.2c0.2,0,0.4,0,0.4-0.1
			c0.1,0,0.1-0.1,0.2-0.2c0-0.1,0.1-0.3,0.1-0.6v-1.7c0-0.5,0-0.8,0-0.9c0-0.1-0.1-0.2-0.1-0.2c0,0-0.1-0.1-0.2-0.1
			c-0.1,0-0.2,0-0.3,0.1l-0.1-0.2l1.3-0.5H151z M150.6,195.6c0.1,0,0.3,0,0.3,0.1s0.1,0.2,0.1,0.3c0,0.1,0,0.3-0.1,0.4
			s-0.2,0.1-0.3,0.1s-0.3,0-0.4-0.1s-0.1-0.2-0.1-0.4c0-0.1,0-0.3,0.1-0.3S150.5,195.6,150.6,195.6z"/>
	</g>
	<line class="st1" x1="156.5" y1="149.8" x2="156.5" y2="17.2"/>
	<line class="st0" x1="156.5" y1="216" x2="156.5" y2="182.9"/>
	<g>
		<path d="M165.5,201.2l-0.1,1.4h-3.9v-0.2l3-3.9H163c-0.3,0-0.5,0-0.6,0.1c-0.1,0-0.2,0.1-0.2,0.2c-0.1,0.2-0.1,0.4-0.2,0.6h-0.2
			l0-1.2h3.7v0.2l-3,3.9h1.6c0.3,0,0.6,0,0.7-0.1s0.2-0.2,0.3-0.3c0.1-0.1,0.1-0.3,0.1-0.7H165.5z"/>
	</g>
	<line class="st1" x1="170.8" y1="149.8" x2="170.8" y2="17.2"/>
	<line class="st0" x1="170.8" y1="216" x2="170.8" y2="182.9"/>
	<g>
		<path d="M176.8,198.4v2.9c0,0.4,0,0.7,0.1,0.8c0.1,0.1,0.3,0.2,0.5,0.2h0.4v0.2h-2.7v-0.2h0.2c0.1,0,0.2,0,0.4-0.1
			c0.1-0.1,0.2-0.2,0.2-0.3s0.1-0.3,0.1-0.6v-2.9h-0.9v-0.4h0.9v-0.3c0-0.4,0.1-0.8,0.2-1.1c0.1-0.3,0.4-0.6,0.7-0.7
			c0.3-0.2,0.6-0.3,1-0.3c0.3,0,0.7,0.1,0.9,0.3c0.2,0.1,0.3,0.3,0.3,0.5c0,0.1,0,0.2-0.1,0.3c-0.1,0.1-0.2,0.1-0.3,0.1
			c-0.1,0-0.2,0-0.2-0.1c-0.1-0.1-0.2-0.2-0.3-0.3s-0.2-0.3-0.3-0.4s-0.2-0.1-0.3-0.1c-0.1,0-0.3,0-0.4,0.1
			c-0.1,0.1-0.2,0.2-0.2,0.4c0,0.2-0.1,0.6-0.1,1.3v0.3h1.1v0.4H176.8z"/>
	</g>
	<line class="st1" x1="182.2" y1="149.8" x2="182.2" y2="17.2"/>
	<line class="st0" x1="182.2" y1="216" x2="182.2" y2="182.9"/>
	<g>
		<path d="M187.4,202.1l-1.4,0.6h-0.2v-1c-0.4,0.7-0.8,1-1.2,1c-0.2,0-0.3-0.1-0.5-0.2c-0.1-0.1-0.2-0.2-0.2-0.4
			c0-0.1,0-0.2,0.1-0.3c0.1-0.1,0.2-0.1,0.3-0.1c0.1,0,0.3,0.1,0.4,0.2c0.1,0.1,0.2,0.2,0.3,0.2c0.2,0,0.4-0.3,0.7-0.8V199
			c0-0.3-0.1-0.5-0.2-0.7c-0.1-0.2-0.3-0.2-0.7-0.2v-0.2h2.4v0.2c-0.3,0-0.5,0-0.6,0.1c-0.1,0.1-0.1,0.3-0.1,0.7v1.8
			c0,0.7,0,1.1,0.1,1.2c0.2,0.1,0.4,0.1,0.6,0L187.4,202.1z"/>
	</g>
	<line class="st1" x1="189.2" y1="149.8" x2="189.2" y2="17.2"/>
	<line class="st0" x1="189.2" y1="216" x2="189.2" y2="182.9"/>
	<g>
		<path d="M196.8,199c0,0.4-0.2,0.7-0.5,1c-0.4,0.3-1.1,0.7-2.1,1v0.2c0,0.4,0.1,0.7,0.2,0.9s0.4,0.3,0.7,0.3c0.2,0,0.4-0.1,0.5-0.2
			c0.1-0.1,0.2-0.2,0.2-0.4v-0.3c0-0.3,0.1-0.5,0.4-0.5c0.3,0,0.4,0.2,0.4,0.5c0,0.4-0.2,0.6-0.5,0.8c-0.3,0.2-0.7,0.3-1.2,0.3
			c-0.6,0-1.1-0.1-1.3-0.4c-0.2-0.2-0.3-0.6-0.3-1.1v-1.6c0-0.4,0-0.7,0-0.8c0-0.2-0.1-0.2-0.2-0.2c-0.1,0-0.3,0.1-0.5,0.4v-0.3
			c0.4-0.5,0.7-0.8,1.1-0.8c0.4,0,0.5,0.3,0.5,0.8c0.4-0.3,0.7-0.5,0.9-0.6c0.2-0.1,0.4-0.1,0.6-0.1c0.3,0,0.6,0.1,0.8,0.3
			S196.8,198.6,196.8,199z M195.9,199.2c0-0.2-0.1-0.4-0.2-0.6c-0.1-0.2-0.3-0.2-0.5-0.2c-0.3,0-0.6,0.2-1,0.5v1.8
			c0.7-0.3,1.2-0.5,1.5-0.8C195.8,199.7,195.9,199.5,195.9,199.2z"/>
	</g>
	<line class="st1" x1="200.8" y1="149.8" x2="200.8" y2="17.2"/>
	<line class="st0" x1="200.8" y1="216" x2="200.8" y2="182.9"/>
	<g>
		<path d="M207.8,198.9c0.3-0.3,0.5-0.5,0.6-0.6c0.1-0.1,0.3-0.2,0.5-0.3c0.2-0.1,0.3-0.1,0.5-0.1c0.3,0,0.5,0.1,0.7,0.2
			s0.3,0.4,0.4,0.7c0.3-0.4,0.6-0.6,0.8-0.8c0.2-0.1,0.5-0.2,0.7-0.2c0.2,0,0.4,0.1,0.6,0.2c0.2,0.1,0.3,0.3,0.4,0.6
			c0.1,0.2,0.1,0.5,0.1,0.9v1.9c0,0.3,0,0.5,0.1,0.6c0,0.1,0.1,0.1,0.2,0.2c0.1,0,0.2,0.1,0.4,0.1v0.2h-2.2v-0.2h0.1
			c0.2,0,0.3,0,0.4-0.1c0.1-0.1,0.1-0.1,0.2-0.2c0-0.1,0-0.2,0-0.5v-1.9c0-0.4,0-0.6-0.1-0.8c-0.1-0.2-0.3-0.3-0.6-0.3
			c-0.2,0-0.3,0-0.5,0.1c-0.2,0.1-0.4,0.2-0.6,0.5l0,0.1l0,0.2v2.1c0,0.3,0,0.5,0.1,0.6c0,0.1,0.1,0.1,0.2,0.2
			c0.1,0,0.3,0.1,0.5,0.1v0.2H209v-0.2c0.2,0,0.4,0,0.5-0.1c0.1-0.1,0.2-0.1,0.2-0.3c0-0.1,0-0.2,0-0.5v-1.9c0-0.4-0.1-0.6-0.2-0.8
			c-0.1-0.2-0.3-0.3-0.6-0.3c-0.2,0-0.3,0-0.5,0.1c-0.3,0.1-0.5,0.3-0.6,0.5v2.4c0,0.3,0,0.5,0.1,0.6c0,0.1,0.1,0.2,0.2,0.2
			c0.1,0,0.2,0.1,0.5,0.1v0.2h-2.2v-0.2c0.2,0,0.3,0,0.4-0.1c0.1,0,0.1-0.1,0.2-0.2c0-0.1,0.1-0.3,0.1-0.6v-1.7c0-0.5,0-0.8,0-0.9
			c0-0.1-0.1-0.2-0.1-0.2c0,0-0.1-0.1-0.2-0.1c-0.1,0-0.2,0-0.3,0.1l-0.1-0.2l1.3-0.5h0.2V198.9z"/>
	</g>
	<line class="st1" x1="219.7" y1="149.8" x2="219.7" y2="17.2"/>
	<line class="st0" x1="219.7" y1="216" x2="219.7" y2="182.9"/>
	<g>
		<path d="M223.8,198.9c0.4-0.6,0.9-0.9,1.4-0.9c0.5,0,0.9,0.2,1.2,0.6s0.5,0.9,0.5,1.6c0,0.8-0.3,1.4-0.8,1.9
			c-0.5,0.4-1,0.6-1.5,0.6c-0.3,0-0.5,0-0.8-0.1s-0.5-0.2-0.8-0.4v-4.6c0-0.5,0-0.8,0-0.9c0-0.1-0.1-0.2-0.1-0.2
			c-0.1,0-0.1-0.1-0.2-0.1c-0.1,0-0.2,0-0.3,0.1l-0.1-0.2l1.3-0.5h0.2V198.9z M223.8,199.2v2.7c0.2,0.2,0.3,0.3,0.5,0.4
			s0.4,0.1,0.5,0.1c0.3,0,0.6-0.2,0.8-0.5c0.3-0.3,0.4-0.8,0.4-1.4c0-0.6-0.1-1-0.4-1.3c-0.3-0.3-0.5-0.5-0.9-0.5
			c-0.2,0-0.3,0-0.5,0.1C224.2,198.9,224,199,223.8,199.2z"/>
	</g>
	<line class="st1" x1="230.1" y1="149.8" x2="230.1" y2="17.2"/>
	<line class="st0" x1="230.1" y1="216" x2="230.1" y2="182.9"/>
	<g>
		<path d="M240.4,202.1l-1.4,0.6h-0.2v-1c-0.4,0.7-0.8,1-1.2,1c-0.2,0-0.3-0.1-0.5-0.2c-0.1-0.1-0.2-0.2-0.2-0.4
			c0-0.1,0-0.2,0.1-0.3c0.1-0.1,0.2-0.1,0.3-0.1s0.3,0.1,0.4,0.2c0.1,0.1,0.2,0.2,0.3,0.2c0.2,0,0.4-0.3,0.7-0.8V199
			c0-0.3-0.1-0.5-0.2-0.7c-0.1-0.2-0.3-0.2-0.7-0.2v-0.2h2.4v0.2c-0.3,0-0.5,0-0.6,0.1c-0.1,0.1-0.1,0.3-0.1,0.7v1.8
			c0,0.7,0,1.1,0.1,1.2c0.2,0.1,0.4,0.1,0.6,0L240.4,202.1z"/>
	</g>
	<line class="st1" x1="247.5" y1="149.8" x2="247.5" y2="17.2"/>
	<line class="st0" x1="247.5" y1="216" x2="247.5" y2="182.9"/>
	<g>
		<path d="M270,199.8c0,0.2,0,0.3,0,0.4c0,0.7,0.1,1.1,0.4,1.4s0.5,0.4,0.9,0.4c0.3,0,0.6-0.1,0.9-0.3c0.2-0.1,0.3-0.4,0.5-0.8
			l0.2,0.1c-0.1,0.5-0.4,1-0.8,1.3c-0.3,0.3-0.6,0.4-1,0.4c-0.3,0-0.6-0.1-0.9-0.2c-0.1-0.1-0.3-0.3-0.5-0.5c0,0-0.1,0.1-0.3,0.2
			c-0.2,0.2-0.3,0.2-0.4,0.3c-0.2,0.1-0.3,0.2-0.5,0.2s-0.3,0.1-0.5,0.1c-0.3,0-0.6-0.1-0.8-0.3c-0.2-0.2-0.3-0.5-0.3-0.8
			c0-0.3,0.1-0.5,0.2-0.7c0.1-0.2,0.4-0.4,0.8-0.6c0.5-0.3,1-0.5,1.3-0.6v-0.4c0-0.4-0.1-0.6-0.2-0.7c-0.1-0.1-0.3-0.2-0.5-0.2
			c-0.2,0-0.4,0.1-0.5,0.2c-0.1,0.1-0.2,0.2-0.2,0.4c0,0.3,0,0.4,0,0.5s-0.1,0.1-0.1,0.2s-0.1,0.1-0.2,0.1c-0.1,0-0.2,0-0.3-0.1
			c-0.1-0.1-0.1-0.2-0.1-0.4c0-0.2,0.1-0.3,0.2-0.5c0.1-0.2,0.3-0.3,0.6-0.4c0.3-0.1,0.6-0.2,0.9-0.2c0.4,0,0.7,0.1,0.9,0.2
			c0.2,0.1,0.3,0.3,0.4,0.4c0.2-0.2,0.3-0.3,0.5-0.4c0.2-0.1,0.5-0.2,0.8-0.2c0.5,0,0.8,0.2,1.1,0.5c0.3,0.3,0.4,0.8,0.4,1.4H270z
			 M269.4,201.7c-0.1-0.1-0.1-0.3-0.2-0.6c0-0.2-0.1-0.5-0.1-0.7V200c-0.4,0.1-0.8,0.3-1.2,0.6c-0.2,0.2-0.4,0.4-0.4,0.7
			c0,0.3,0.1,0.5,0.2,0.6c0.2,0.2,0.3,0.2,0.6,0.2c0.1,0,0.3,0,0.4-0.1C268.9,202,269.1,201.9,269.4,201.7z M270,199.5h1.8
			c0-0.4-0.1-0.7-0.3-0.9s-0.4-0.3-0.6-0.3c-0.3,0-0.5,0.1-0.7,0.3C270.1,198.8,270,199.1,270,199.5z"/>
	</g>
	<line class="st1" x1="292.2" y1="149.8" x2="292.2" y2="17.2"/>
	<line class="st0" x1="292.2" y1="216" x2="292.2" y2="182.9"/>
	<g>
		<path d="M294.8,198.9c0.5-0.6,1-0.9,1.5-0.9c0.2,0,0.5,0.1,0.6,0.2c0.2,0.1,0.3,0.3,0.4,0.6c0.1,0.2,0.1,0.5,0.1,0.9v1.9
			c0,0.3,0,0.5,0.1,0.6c0,0.1,0.1,0.1,0.2,0.2c0.1,0,0.2,0.1,0.4,0.1v0.2h-2.2v-0.2h0.1c0.2,0,0.4,0,0.4-0.1
			c0.1-0.1,0.1-0.2,0.2-0.3c0,0,0-0.2,0-0.5v-1.8c0-0.4-0.1-0.7-0.2-0.9c-0.1-0.2-0.3-0.3-0.5-0.3c-0.4,0-0.8,0.2-1.2,0.6v2.3
			c0,0.3,0,0.5,0.1,0.6c0,0.1,0.1,0.2,0.2,0.2c0.1,0,0.2,0.1,0.5,0.1v0.2h-2.2v-0.2h0.1c0.2,0,0.4-0.1,0.5-0.2
			c0.1-0.1,0.1-0.3,0.1-0.7v-1.7c0-0.5,0-0.9,0-1c0-0.1-0.1-0.2-0.1-0.2c-0.1,0-0.1-0.1-0.2-0.1c-0.1,0-0.2,0-0.3,0.1l-0.1-0.2
			l1.3-0.5h0.2V198.9z"/>
	</g>
	<line class="st1" x1="299.4" y1="149.8" x2="299.4" y2="17.2"/>
	<line class="st0" x1="299.4" y1="216" x2="299.4" y2="182.9"/>
	<g>
		<path d="M313,202.6h-2.3v-0.2c0.3,0,0.5-0.1,0.6-0.2c0.1-0.1,0.1-0.3,0.1-0.7V199c0-0.4,0-0.6-0.1-0.7c-0.1-0.1-0.3-0.2-0.6-0.2
			v-0.2h2.3v0.2c-0.3,0-0.5,0.1-0.6,0.2c-0.1,0.1-0.1,0.4-0.1,0.7v2.5c0,0.4,0,0.6,0.1,0.7c0.1,0.1,0.3,0.2,0.6,0.2V202.6z"/>
	</g>
	<line class="st1" x1="324.3" y1="149.8" x2="324.3" y2="17.2"/>
	<line class="st0" x1="324.3" y1="216" x2="324.3" y2="182.9"/>
	<g>
		<path d="M339.9,202.4c0,0.8-0.2,1.4-0.5,1.8c-0.3,0.4-0.8,0.6-1.3,0.6c-0.3,0-0.5-0.1-0.7-0.2c-0.1-0.1-0.2-0.2-0.2-0.3
			c0-0.1,0-0.2,0.1-0.3c0.1-0.1,0.2-0.1,0.3-0.1c0.2,0,0.4,0.1,0.6,0.3c0.1,0.1,0.3,0.2,0.4,0.2c0.2,0,0.4-0.1,0.4-0.4
			c0-0.2,0.1-0.5,0.1-0.9v-3.4c0-0.4-0.1-0.7-0.2-0.9c-0.1-0.2-0.3-0.3-0.6-0.3c-0.4,0-0.8,0.2-1.2,0.7v2.4c0,0.3,0,0.6,0.1,0.7
			c0.1,0.1,0.3,0.2,0.7,0.2v0.2h-2.3v-0.2c0.3,0,0.5-0.1,0.6-0.2s0.1-0.3,0.1-0.7v-1.7c0-0.8,0-1.2-0.1-1.3c-0.1-0.1-0.3-0.1-0.5,0
			l-0.1-0.2l1.4-0.6h0.2v1c0.5-0.6,1.1-1,1.6-1c0.8,0,1.2,0.6,1.2,1.7V202.4z"/>
	</g>
	<line class="st1" x1="351.7" y1="149.8" x2="351.7" y2="17.2"/>
	<path class="st0" d="M351.7,216v-33.1 M56.3,249.2h348V216h-348V249.2z"/>
	<line class="st1" x1="219.7" y1="149.8" x2="219.7" y2="17.2"/>
	<line class="st0" x1="219.7" y1="249.2" x2="219.7" y2="216"/>
	<g>
		<path d="M254.5,229.7l1.6-0.8h0.2v5.6c0,0.4,0,0.6,0,0.7c0,0.1,0.1,0.2,0.2,0.2s0.3,0.1,0.6,0.1v0.2h-2.5v-0.2
			c0.3,0,0.5,0,0.6-0.1c0.1,0,0.2-0.1,0.2-0.2c0-0.1,0.1-0.3,0.1-0.7v-3.6c0-0.5,0-0.8,0-0.9c0-0.1-0.1-0.2-0.1-0.2
			c-0.1,0-0.1-0.1-0.2-0.1c-0.1,0-0.3,0.1-0.5,0.2L254.5,229.7z"/>
	</g>
	<line class="st1" x1="292.2" y1="149.8" x2="292.2" y2="17.2"/>
	<line class="st0" x1="292.2" y1="249.2" x2="292.2" y2="216"/>
	<g>
		<path d="M323.9,234.4l-0.5,1.3h-3.9v-0.2c1.1-1,2-1.9,2.4-2.6c0.5-0.7,0.7-1.3,0.7-1.8c0-0.4-0.1-0.8-0.4-1s-0.6-0.4-0.9-0.4
			c-0.3,0-0.6,0.1-0.9,0.3s-0.4,0.5-0.6,0.8h-0.2c0.1-0.6,0.3-1.1,0.6-1.4c0.3-0.3,0.8-0.5,1.3-0.5c0.5,0,1,0.2,1.3,0.5
			c0.4,0.3,0.5,0.7,0.5,1.2c0,0.3-0.1,0.7-0.2,1c-0.2,0.5-0.6,1.1-1.2,1.7c-0.8,0.9-1.3,1.4-1.5,1.6h1.7c0.3,0,0.6,0,0.7,0
			c0.1,0,0.3-0.1,0.4-0.2c0.1-0.1,0.2-0.2,0.3-0.3H323.9z"/>
	</g>
	<line class="st1" x1="351.7" y1="149.8" x2="351.7" y2="17.2"/>
	<line class="st0" x1="351.7" y1="249.2" x2="351.7" y2="216"/>
	<rect x="56.3" y="17.2" class="st2" width="348" height="232"/>
	<g>
		<path d="M47.4,150.4v0.7h-0.9v1.7h-0.8v-1.7h-2.8v-0.6l3.1-4.4h0.5v4.3H47.4z M45.7,150.4v-3.3l-2.3,3.3H45.7z"/>
		<path d="M48.1,149.6c0-0.8,0.1-1.4,0.3-1.9s0.5-0.9,0.9-1.2c0.3-0.2,0.6-0.3,0.9-0.3c0.5,0,1,0.3,1.4,0.8c0.5,0.6,0.8,1.5,0.8,2.6
			c0,0.8-0.1,1.4-0.3,2c-0.2,0.5-0.5,0.9-0.8,1.2c-0.3,0.2-0.7,0.4-1,0.4c-0.6,0-1.2-0.4-1.6-1.1C48.3,151.3,48.1,150.5,48.1,149.6z
			 M49.1,149.7c0,0.9,0.1,1.6,0.3,2.2c0.2,0.5,0.5,0.7,0.8,0.7c0.2,0,0.4-0.1,0.5-0.2s0.3-0.4,0.4-0.8c0.1-0.6,0.2-1.3,0.2-2.4
			c0-0.8-0.1-1.4-0.2-1.9c-0.1-0.4-0.3-0.6-0.5-0.8c-0.1-0.1-0.3-0.2-0.5-0.2c-0.2,0-0.4,0.1-0.6,0.3c-0.2,0.3-0.4,0.7-0.5,1.3
			S49.1,149.2,49.1,149.7z"/>
	</g>
	<line class="st2" x1="53.8" y1="149.8" x2="56.3" y2="149.8"/>
	<g>
		<path d="M42.4,19l-0.5,1.3h-3.9v-0.2c1.1-1,2-1.9,2.4-2.6c0.5-0.7,0.7-1.3,0.7-1.8c0-0.4-0.1-0.8-0.4-1c-0.3-0.3-0.6-0.4-0.9-0.4
			c-0.3,0-0.6,0.1-0.9,0.3c-0.3,0.2-0.4,0.5-0.6,0.8h-0.2c0.1-0.6,0.3-1.1,0.6-1.4c0.3-0.3,0.8-0.5,1.3-0.5c0.5,0,1,0.2,1.3,0.5
			s0.5,0.7,0.5,1.2c0,0.3-0.1,0.7-0.2,1c-0.2,0.5-0.6,1.1-1.2,1.7c-0.8,0.9-1.3,1.4-1.5,1.6h1.7c0.4,0,0.6,0,0.7,0
			c0.1,0,0.3-0.1,0.4-0.2c0.1-0.1,0.2-0.2,0.3-0.3H42.4z"/>
		<path d="M43.2,17c0-0.8,0.1-1.4,0.3-1.9s0.5-0.9,0.9-1.2c0.3-0.2,0.6-0.3,0.9-0.3c0.5,0,1,0.3,1.4,0.8c0.5,0.6,0.8,1.5,0.8,2.6
			c0,0.8-0.1,1.4-0.3,2c-0.2,0.5-0.5,0.9-0.8,1.2c-0.3,0.2-0.7,0.4-1,0.4c-0.6,0-1.2-0.4-1.6-1.1C43.4,18.7,43.2,17.9,43.2,17z
			 M44.1,17.1c0,0.9,0.1,1.6,0.3,2.2c0.2,0.5,0.5,0.7,0.8,0.7c0.2,0,0.4-0.1,0.5-0.2c0.2-0.2,0.3-0.4,0.4-0.8
			c0.1-0.6,0.2-1.3,0.2-2.4c0-0.8-0.1-1.4-0.2-1.9c-0.1-0.4-0.3-0.6-0.5-0.8c-0.1-0.1-0.3-0.2-0.5-0.2c-0.2,0-0.4,0.1-0.6,0.3
			c-0.2,0.3-0.4,0.7-0.5,1.3S44.1,16.6,44.1,17.1z"/>
		<path d="M48.2,17c0-0.8,0.1-1.4,0.3-1.9s0.5-0.9,0.9-1.2c0.3-0.2,0.6-0.3,0.9-0.3c0.5,0,1,0.3,1.4,0.8c0.5,0.6,0.8,1.5,0.8,2.6
			c0,0.8-0.1,1.4-0.3,2c-0.2,0.5-0.5,0.9-0.8,1.2c-0.3,0.2-0.7,0.4-1,0.4c-0.6,0-1.2-0.4-1.6-1.1C48.3,18.7,48.2,17.9,48.2,17z
			 M49.1,17.1c0,0.9,0.1,1.6,0.3,2.2c0.2,0.5,0.5,0.7,0.8,0.7c0.2,0,0.4-0.1,0.5-0.2c0.2-0.2,0.3-0.4,0.4-0.8
			c0.1-0.6,0.2-1.3,0.2-2.4c0-0.8-0.1-1.4-0.2-1.9c-0.1-0.4-0.3-0.6-0.5-0.8c-0.1-0.1-0.3-0.2-0.5-0.2c-0.2,0-0.4,0.1-0.6,0.3
			c-0.2,0.3-0.4,0.7-0.5,1.3S49.1,16.6,49.1,17.1z"/>
	</g>
	<line class="st2" x1="53.8" y1="17.2" x2="56.3" y2="17.2"/>
	<g>
		<path d="M39,97.1l1.6-0.8h0.2v5.6c0,0.4,0,0.6,0,0.7c0,0.1,0.1,0.2,0.2,0.2c0.1,0,0.3,0.1,0.6,0.1v0.2h-2.5v-0.2
			c0.3,0,0.5,0,0.6-0.1c0.1,0,0.2-0.1,0.2-0.2c0-0.1,0.1-0.3,0.1-0.7v-3.6c0-0.5,0-0.8,0-0.9c0-0.1-0.1-0.2-0.1-0.2
			c-0.1,0-0.1-0.1-0.2-0.1c-0.1,0-0.3,0.1-0.5,0.2L39,97.1z"/>
		<path d="M43.2,99.8c0-0.8,0.1-1.4,0.3-1.9s0.5-0.9,0.9-1.2c0.3-0.2,0.6-0.3,0.9-0.3c0.5,0,1,0.3,1.4,0.8c0.5,0.6,0.8,1.5,0.8,2.6
			c0,0.8-0.1,1.4-0.3,2c-0.2,0.5-0.5,0.9-0.8,1.2c-0.3,0.2-0.7,0.4-1,0.4c-0.6,0-1.2-0.4-1.6-1.1C43.4,101.4,43.2,100.7,43.2,99.8z
			 M44.1,99.9c0,0.9,0.1,1.6,0.3,2.2c0.2,0.5,0.5,0.7,0.8,0.7c0.2,0,0.4-0.1,0.5-0.2c0.2-0.2,0.3-0.4,0.4-0.8
			c0.1-0.6,0.2-1.3,0.2-2.4c0-0.8-0.1-1.4-0.2-1.9c-0.1-0.4-0.3-0.6-0.5-0.8c-0.1-0.1-0.3-0.2-0.5-0.2c-0.2,0-0.4,0.1-0.6,0.3
			c-0.2,0.3-0.4,0.7-0.5,1.3S44.1,99.4,44.1,99.9z"/>
		<path d="M48.2,99.8c0-0.8,0.1-1.4,0.3-1.9s0.5-0.9,0.9-1.2c0.3-0.2,0.6-0.3,0.9-0.3c0.5,0,1,0.3,1.4,0.8c0.5,0.6,0.8,1.5,0.8,2.6
			c0,0.8-0.1,1.4-0.3,2c-0.2,0.5-0.5,0.9-0.8,1.2c-0.3,0.2-0.7,0.4-1,0.4c-0.6,0-1.2-0.4-1.6-1.1C48.3,101.4,48.2,100.7,48.2,99.8z
			 M49.1,99.9c0,0.9,0.1,1.6,0.3,2.2c0.2,0.5,0.5,0.7,0.8,0.7c0.2,0,0.4-0.1,0.5-0.2c0.2-0.2,0.3-0.4,0.4-0.8
			c0.1-0.6,0.2-1.3,0.2-2.4c0-0.8-0.1-1.4-0.2-1.9c-0.1-0.4-0.3-0.6-0.5-0.8c-0.1-0.1-0.3-0.2-0.5-0.2c-0.2,0-0.4,0.1-0.6,0.3
			c-0.2,0.3-0.4,0.7-0.5,1.3S49.1,99.4,49.1,99.9z"/>
	</g>
	<line class="st2" x1="53.8" y1="100" x2="56.3" y2="100"/>
	<g>
		<path d="M39,55.7l1.6-0.8h0.2v5.6c0,0.4,0,0.6,0,0.7c0,0.1,0.1,0.2,0.2,0.2c0.1,0,0.3,0.1,0.6,0.1v0.2h-2.5v-0.2
			c0.3,0,0.5,0,0.6-0.1c0.1,0,0.2-0.1,0.2-0.2c0-0.1,0.1-0.3,0.1-0.7V57c0-0.5,0-0.8,0-0.9c0-0.1-0.1-0.2-0.1-0.2
			c-0.1,0-0.1-0.1-0.2-0.1c-0.1,0-0.3,0.1-0.5,0.2L39,55.7z"/>
		<path d="M47.1,55.1l-0.4,0.8h-2l-0.4,0.9c0.9,0.1,1.5,0.4,2,1c0.4,0.4,0.6,1,0.6,1.6c0,0.3-0.1,0.7-0.2,1
			c-0.1,0.3-0.3,0.5-0.5,0.8c-0.2,0.2-0.5,0.4-0.7,0.5c-0.4,0.2-0.8,0.3-1.1,0.3c-0.4,0-0.7-0.1-0.9-0.2c-0.2-0.1-0.3-0.3-0.3-0.4
			c0-0.1,0-0.2,0.1-0.2c0.1-0.1,0.2-0.1,0.3-0.1c0.1,0,0.2,0,0.2,0c0.1,0,0.2,0.1,0.3,0.2c0.2,0.2,0.5,0.3,0.7,0.3
			c0.4,0,0.7-0.1,1-0.4c0.3-0.3,0.4-0.6,0.4-1c0-0.4-0.1-0.8-0.4-1.1c-0.3-0.3-0.6-0.6-1.1-0.8c-0.4-0.1-0.8-0.2-1.4-0.3l1.3-2.6
			H47.1z"/>
		<path d="M48.2,58.4c0-0.8,0.1-1.4,0.3-1.9s0.5-0.9,0.9-1.2c0.3-0.2,0.6-0.3,0.9-0.3c0.5,0,1,0.3,1.4,0.8c0.5,0.6,0.8,1.5,0.8,2.6
			c0,0.8-0.1,1.4-0.3,2c-0.2,0.5-0.5,0.9-0.8,1.2c-0.3,0.2-0.7,0.4-1,0.4c-0.6,0-1.2-0.4-1.6-1.1C48.3,60.1,48.2,59.3,48.2,58.4z
			 M49.1,58.5c0,0.9,0.1,1.6,0.3,2.2c0.2,0.5,0.5,0.7,0.8,0.7c0.2,0,0.4-0.1,0.5-0.2c0.2-0.2,0.3-0.4,0.4-0.8
			c0.1-0.6,0.2-1.3,0.2-2.4c0-0.8-0.1-1.4-0.2-1.9c-0.1-0.4-0.3-0.6-0.5-0.8c-0.1-0.1-0.3-0.2-0.5-0.2c-0.2,0-0.4,0.1-0.6,0.3
			c-0.2,0.3-0.4,0.7-0.5,1.3S49.1,58,49.1,58.5z"/>
	</g>
	<line class="st2" x1="53.8" y1="58.6" x2="56.3" y2="58.6"/>
	<g>
		<path d="M21.2,151.8h1.9c0.4,0,0.7,0,0.8-0.1c0.1-0.1,0.2-0.3,0.2-0.6v-0.3h0.2v2.8h-0.2v-0.2c0-0.3-0.1-0.5-0.3-0.6
			c-0.1-0.1-0.3-0.1-0.7-0.1h-4.3c-0.4,0-0.7,0-0.8,0.1c-0.1,0.1-0.2,0.3-0.2,0.6v0.2h-0.2v-2.4c0-0.6,0.1-1.1,0.2-1.4
			c0.1-0.3,0.3-0.6,0.6-0.9s0.6-0.4,1-0.4c0.5,0,1,0.2,1.3,0.5c0.3,0.4,0.5,0.9,0.5,1.5c0,0.2,0,0.3,0,0.5
			C21.3,151.4,21.2,151.6,21.2,151.8z M20.9,151.8c0-0.2,0.1-0.3,0.1-0.5s0-0.2,0-0.3c0-0.3-0.1-0.6-0.4-0.9c-0.3-0.2-0.6-0.4-1-0.4
			c-0.3,0-0.6,0.1-0.8,0.2c-0.2,0.1-0.4,0.3-0.5,0.5s-0.2,0.5-0.2,0.7c0,0.2,0,0.4,0.1,0.6H20.9z"/>
		<path d="M17.4,146.8c0-0.1,0-0.3,0.1-0.3s0.2-0.1,0.3-0.1s0.3,0,0.4,0.1s0.1,0.2,0.1,0.3c0,0.1,0,0.3-0.1,0.3
			c-0.1,0.1-0.2,0.1-0.4,0.1s-0.3,0-0.3-0.1S17.4,147,17.4,146.8z M19.7,146.4h3.6c0.3,0,0.5,0,0.6-0.1c0.1,0,0.2-0.1,0.2-0.2
			s0.1-0.2,0.1-0.4h0.2v2.2h-0.2c0-0.2,0-0.4-0.1-0.4c0-0.1-0.1-0.1-0.2-0.2c-0.1,0-0.3-0.1-0.6-0.1h-1.7c-0.5,0-0.8,0-0.9,0
			c-0.1,0-0.2,0.1-0.2,0.1c0,0-0.1,0.1-0.1,0.2c0,0.1,0,0.2,0.1,0.3l-0.2,0.1l-0.5-1.3V146.4z"/>
		<path d="M18.4,143.9h1.5v-1h0.3v1h2.9c0.3,0,0.5,0,0.6-0.1c0.1-0.1,0.2-0.2,0.2-0.3c0-0.1,0-0.2-0.1-0.3s-0.2-0.2-0.3-0.2v-0.2
			c0.3,0.1,0.6,0.3,0.7,0.5c0.2,0.2,0.2,0.4,0.2,0.6c0,0.1,0,0.3-0.1,0.4c-0.1,0.1-0.2,0.2-0.4,0.3c-0.2,0.1-0.4,0.1-0.7,0.1h-3v0.7
			H20c-0.1-0.2-0.2-0.4-0.4-0.5c-0.2-0.2-0.4-0.4-0.6-0.5c-0.1-0.1-0.3-0.2-0.7-0.3V143.9z"/>
		<path d="M22.6,138.7c0.6,0.1,1,0.4,1.4,0.7c0.3,0.3,0.5,0.7,0.5,1.2c0,0.5-0.2,0.9-0.6,1.3s-1,0.6-1.7,0.6c-0.7,0-1.3-0.2-1.7-0.6
			c-0.4-0.4-0.7-0.9-0.7-1.5c0-0.4,0.1-0.8,0.3-1.1c0.2-0.3,0.5-0.4,0.7-0.4c0.1,0,0.2,0,0.3,0.1c0.1,0.1,0.1,0.2,0.1,0.3
			c0,0.2-0.1,0.3-0.2,0.4c-0.1,0.1-0.2,0.1-0.4,0.1c-0.2,0-0.3,0.1-0.4,0.2c-0.1,0.1-0.1,0.3-0.1,0.5c0,0.3,0.1,0.6,0.4,0.8
			c0.3,0.3,0.7,0.4,1.3,0.4c0.5,0,1-0.1,1.4-0.4c0.4-0.3,0.6-0.6,0.6-1.1c0-0.3-0.1-0.6-0.3-0.9c-0.1-0.2-0.4-0.4-0.8-0.5
			L22.6,138.7z"/>
		<path d="M17.4,136.7h3.3c-0.4-0.4-0.6-0.6-0.8-0.9s-0.2-0.4-0.2-0.6c0-0.3,0.1-0.5,0.2-0.7c0.1-0.2,0.4-0.3,0.7-0.4
			c0.2-0.1,0.6-0.1,1.1-0.1h1.6c0.3,0,0.5,0,0.6-0.1c0.1,0,0.1-0.1,0.2-0.2c0-0.1,0.1-0.2,0.1-0.4h0.2v2.2h-0.2v-0.1
			c0-0.2,0-0.4-0.1-0.4c-0.1-0.1-0.2-0.1-0.3-0.2c-0.1,0-0.2,0-0.5,0h-1.6c-0.5,0-0.8,0-1,0.1c-0.2,0.1-0.3,0.1-0.3,0.2
			s-0.1,0.2-0.1,0.4c0,0.2,0,0.3,0.1,0.5s0.3,0.4,0.5,0.6h2.4c0.3,0,0.5,0,0.6-0.1c0.1,0,0.1-0.1,0.2-0.2c0.1-0.1,0.1-0.3,0.1-0.5
			h0.2v2.2h-0.2c0-0.2,0-0.4-0.1-0.5c0-0.1-0.1-0.1-0.2-0.2s-0.3-0.1-0.6-0.1h-4c-0.5,0-0.8,0-0.9,0s-0.2,0.1-0.2,0.1
			c0,0.1-0.1,0.1-0.1,0.2c0,0.1,0,0.2,0.1,0.3l-0.2,0.1l-0.5-1.3V136.7z"/>
		<path d="M26.2,127.8h0.2c-0.2,0.5-0.5,0.9-0.9,1.2c-0.5,0.5-1,0.8-1.7,1.1c-0.6,0.3-1.3,0.4-2,0.4c-1,0-1.9-0.2-2.8-0.7
			c-0.8-0.5-1.4-1.1-1.8-1.9h0.2c0.2,0.4,0.5,0.7,0.9,1c0.4,0.3,0.9,0.4,1.5,0.6s1.2,0.2,1.8,0.2c0.7,0,1.3-0.1,1.9-0.2
			c0.4-0.1,0.8-0.2,1.1-0.3c0.3-0.1,0.5-0.3,0.8-0.5C25.8,128.4,26,128.1,26.2,127.8z"/>
		<path d="M20.7,125.5v-3.1h-1.9c-0.3,0-0.6,0-0.7,0.1c-0.1,0-0.2,0.1-0.2,0.2c-0.1,0.1-0.1,0.3-0.1,0.4v0.2h-0.2v-2.8h0.2v0.2
			c0,0.2,0,0.3,0.1,0.4c0.1,0.1,0.1,0.2,0.2,0.2c0.1,0,0.3,0.1,0.6,0.1h4.3c0.3,0,0.6,0,0.7-0.1c0.1,0,0.2-0.1,0.2-0.2
			c0.1-0.1,0.1-0.3,0.1-0.4v-0.2h0.2v2.8h-0.2v-0.2c0-0.3-0.1-0.5-0.2-0.6c-0.1-0.1-0.4-0.1-0.7-0.1h-2v3.1h2c0.3,0,0.6,0,0.7-0.1
			c0.1,0,0.2-0.1,0.2-0.2c0.1-0.1,0.1-0.3,0.1-0.4v-0.2h0.2v2.8h-0.2v-0.2c0-0.3-0.1-0.5-0.2-0.6c-0.1-0.1-0.4-0.1-0.7-0.1h-4.3
			c-0.3,0-0.6,0-0.7,0.1c-0.1,0-0.2,0.1-0.2,0.2c-0.1,0.1-0.1,0.3-0.1,0.4v0.2h-0.2v-2.8h0.2v0.2c0,0.2,0,0.3,0.1,0.4
			c0.1,0.1,0.1,0.2,0.2,0.2c0.1,0,0.3,0.1,0.6,0.1H20.7z"/>
		<path d="M22.9,116.2l1.4,0.1v3.9h-0.2l-3.9-3v1.5c0,0.3,0,0.5,0.1,0.6s0.1,0.2,0.2,0.2c0.2,0.1,0.4,0.1,0.6,0.2v0.2l-1.2,0v-3.7
			H20l3.9,3v-1.6c0-0.3,0-0.6-0.1-0.7c-0.1-0.1-0.2-0.2-0.3-0.3c-0.1-0.1-0.3-0.1-0.7-0.1V116.2z"/>
		<path d="M17.6,115.7h-0.2c0.2-0.5,0.5-0.9,0.9-1.2c0.5-0.5,1-0.8,1.7-1.1s1.3-0.4,2-0.4c1,0,1.9,0.2,2.8,0.7
			c0.8,0.5,1.4,1.1,1.8,1.9h-0.2c-0.2-0.4-0.5-0.7-0.9-1c-0.4-0.3-0.9-0.4-1.5-0.6c-0.6-0.1-1.2-0.2-1.8-0.2c-0.7,0-1.3,0.1-1.9,0.2
			c-0.4,0.1-0.8,0.2-1.1,0.3s-0.5,0.3-0.8,0.5C18,115.1,17.8,115.4,17.6,115.7z"/>
	</g>
	<g>
		<path d="M219,266.6l0.1,1.5h-0.2c0-0.3-0.1-0.5-0.1-0.6c-0.1-0.2-0.2-0.3-0.4-0.4c-0.2-0.1-0.4-0.1-0.7-0.1h-0.9v5
			c0,0.4,0,0.7,0.1,0.8c0.1,0.1,0.3,0.2,0.6,0.2h0.2v0.2h-2.8V273h0.2c0.3,0,0.5-0.1,0.6-0.3c0.1-0.1,0.1-0.3,0.1-0.7v-5h-0.8
			c-0.3,0-0.5,0-0.7,0.1c-0.2,0.1-0.3,0.2-0.4,0.4c-0.1,0.2-0.2,0.4-0.2,0.7h-0.2l0.1-1.5H219z"/>
		<path d="M221.2,268.6v3.6c0,0.3,0,0.5,0.1,0.6c0,0.1,0.1,0.2,0.2,0.2c0.1,0,0.2,0.1,0.4,0.1v0.2h-2.2V273c0.2,0,0.4,0,0.4-0.1
			c0.1,0,0.1-0.1,0.2-0.2c0-0.1,0.1-0.3,0.1-0.6v-1.7c0-0.5,0-0.8,0-0.9c0-0.1-0.1-0.2-0.1-0.2c0,0-0.1-0.1-0.2-0.1
			c-0.1,0-0.2,0-0.3,0.1l-0.1-0.2l1.3-0.5H221.2z M220.8,266.3c0.1,0,0.3,0,0.3,0.1s0.1,0.2,0.1,0.3c0,0.1,0,0.3-0.1,0.4
			s-0.2,0.1-0.3,0.1s-0.3,0-0.4-0.1c-0.1-0.1-0.1-0.2-0.1-0.4c0-0.1,0-0.3,0.1-0.3S220.7,266.3,220.8,266.3z"/>
		<path d="M223.8,269.6c0.3-0.3,0.5-0.5,0.6-0.6c0.1-0.1,0.3-0.2,0.5-0.3c0.2-0.1,0.3-0.1,0.5-0.1c0.3,0,0.5,0.1,0.7,0.2
			s0.3,0.4,0.4,0.7c0.3-0.4,0.6-0.6,0.8-0.8c0.2-0.1,0.5-0.2,0.7-0.2c0.2,0,0.4,0.1,0.6,0.2c0.2,0.1,0.3,0.3,0.4,0.6
			c0.1,0.2,0.1,0.5,0.1,0.9v1.9c0,0.3,0,0.5,0.1,0.6c0,0.1,0.1,0.1,0.2,0.2c0.1,0,0.2,0.1,0.4,0.1v0.2h-2.2V273h0.1
			c0.2,0,0.3,0,0.4-0.1c0.1-0.1,0.1-0.1,0.2-0.2c0-0.1,0-0.2,0-0.5v-1.9c0-0.4,0-0.6-0.1-0.8c-0.1-0.2-0.3-0.3-0.6-0.3
			c-0.2,0-0.3,0-0.5,0.1c-0.2,0.1-0.4,0.2-0.6,0.5l0,0.1l0,0.2v2.1c0,0.3,0,0.5,0.1,0.6c0,0.1,0.1,0.1,0.2,0.2
			c0.1,0,0.3,0.1,0.5,0.1v0.2h-2.3V273c0.2,0,0.4,0,0.5-0.1c0.1-0.1,0.2-0.1,0.2-0.3c0-0.1,0-0.2,0-0.5v-1.9c0-0.4-0.1-0.6-0.2-0.8
			c-0.1-0.2-0.3-0.3-0.6-0.3c-0.2,0-0.3,0-0.5,0.1c-0.3,0.1-0.5,0.3-0.6,0.5v2.4c0,0.3,0,0.5,0.1,0.6c0,0.1,0.1,0.2,0.2,0.2
			c0.1,0,0.2,0.1,0.5,0.1v0.2h-2.2V273c0.2,0,0.3,0,0.4-0.1c0.1,0,0.1-0.1,0.2-0.2c0-0.1,0.1-0.3,0.1-0.6v-1.7c0-0.5,0-0.8,0-0.9
			c0-0.1-0.1-0.2-0.1-0.2c0,0-0.1-0.1-0.2-0.1c-0.1,0-0.2,0-0.3,0.1l-0.1-0.2l1.3-0.5h0.2V269.6z"/>
		<path d="M230.9,270.4c0,0.7,0.2,1.2,0.5,1.6s0.7,0.6,1.1,0.6c0.3,0,0.5-0.1,0.8-0.2c0.2-0.2,0.4-0.4,0.5-0.8l0.2,0.1
			c-0.1,0.4-0.3,0.8-0.6,1.2c-0.3,0.4-0.7,0.5-1.2,0.5c-0.5,0-1-0.2-1.4-0.6c-0.4-0.4-0.6-1-0.6-1.7c0-0.8,0.2-1.4,0.6-1.8
			c0.4-0.4,0.9-0.6,1.5-0.6c0.5,0,0.9,0.2,1.2,0.5c0.3,0.3,0.5,0.8,0.5,1.3H230.9z M230.9,270.2h2.1c0-0.3-0.1-0.5-0.1-0.6
			c-0.1-0.2-0.2-0.3-0.4-0.4s-0.3-0.2-0.5-0.2c-0.3,0-0.5,0.1-0.7,0.3C231.1,269.5,231,269.8,230.9,270.2z"/>
		<path d="M239.9,275.2v0.2c-0.5-0.2-0.9-0.5-1.2-0.9c-0.5-0.5-0.8-1-1.1-1.7s-0.4-1.3-0.4-2c0-1,0.2-1.9,0.7-2.8
			c0.5-0.8,1.1-1.4,1.9-1.8v0.2c-0.4,0.2-0.7,0.5-1,0.9c-0.3,0.4-0.4,0.9-0.6,1.5c-0.1,0.6-0.2,1.2-0.2,1.8c0,0.7,0.1,1.3,0.2,1.9
			c0.1,0.4,0.2,0.8,0.3,1.1c0.1,0.3,0.3,0.5,0.5,0.8S239.6,274.9,239.9,275.2z"/>
		<path d="M243.3,268.6v1.5h-0.2c-0.1-0.5-0.3-0.8-0.5-1c-0.2-0.2-0.4-0.3-0.7-0.3c-0.2,0-0.4,0.1-0.5,0.2c-0.1,0.1-0.2,0.3-0.2,0.4
			c0,0.2,0.1,0.3,0.2,0.5c0.1,0.1,0.3,0.3,0.6,0.4l0.7,0.3c0.7,0.3,1,0.7,1,1.3c0,0.4-0.2,0.7-0.5,1s-0.6,0.4-1,0.4
			c-0.3,0-0.6,0-0.9-0.1c-0.1,0-0.2,0-0.3,0c-0.1,0-0.1,0-0.2,0.1h-0.2v-1.6h0.2c0.1,0.5,0.3,0.8,0.5,1s0.5,0.3,0.9,0.3
			c0.2,0,0.4-0.1,0.5-0.2c0.1-0.1,0.2-0.3,0.2-0.5c0-0.2-0.1-0.4-0.2-0.6s-0.5-0.3-0.9-0.6c-0.5-0.2-0.8-0.4-0.9-0.6
			c-0.1-0.2-0.2-0.4-0.2-0.7c0-0.4,0.1-0.7,0.4-0.9c0.3-0.2,0.6-0.4,1-0.4c0.2,0,0.4,0,0.6,0.1c0.2,0,0.3,0.1,0.3,0.1
			c0.1,0,0.1,0,0.1,0c0,0,0.1-0.1,0.1-0.2H243.3z"/>
		<path d="M244.2,266.5v-0.2c0.5,0.2,0.9,0.5,1.2,0.9c0.5,0.5,0.8,1,1.1,1.7c0.3,0.6,0.4,1.3,0.4,2c0,1-0.2,1.9-0.7,2.8
			c-0.5,0.8-1.1,1.4-1.9,1.8v-0.2c0.4-0.2,0.7-0.5,1-0.9c0.3-0.4,0.4-0.9,0.6-1.5c0.1-0.6,0.2-1.2,0.2-1.8c0-0.7-0.1-1.3-0.2-1.9
			c-0.1-0.4-0.2-0.8-0.3-1.1c-0.1-0.3-0.3-0.5-0.5-0.8C244.8,267,244.5,266.7,244.2,266.5z"/>
	</g>
	<g>
		<path d="M54.2,258.6c0-0.8,0.1-1.4,0.3-1.9s0.5-0.9,0.9-1.2c0.3-0.2,0.6-0.3,0.9-0.3c0.5,0,1,0.3,1.4,0.8c0.5,0.6,0.8,1.5,0.8,2.6
			c0,0.8-0.1,1.4-0.3,2c-0.2,0.5-0.5,0.9-0.8,1.2c-0.3,0.2-0.7,0.4-1,0.4c-0.6,0-1.2-0.4-1.6-1.1C54.3,260.2,54.2,259.5,54.2,258.6z
			 M55.1,258.7c0,0.9,0.1,1.6,0.3,2.2c0.2,0.5,0.5,0.7,0.8,0.7c0.2,0,0.4-0.1,0.5-0.2s0.3-0.4,0.4-0.8c0.1-0.6,0.2-1.3,0.2-2.4
			c0-0.8-0.1-1.4-0.2-1.9c-0.1-0.4-0.3-0.6-0.5-0.8c-0.1-0.1-0.3-0.2-0.5-0.2c-0.2,0-0.4,0.1-0.6,0.3c-0.2,0.3-0.4,0.7-0.5,1.3
			S55.1,258.1,55.1,258.7z"/>
	</g>
	<line class="st2" x1="56.3" y1="251.7" x2="56.3" y2="249.2"/>
	<g>
		<path d="M394.2,255.9l1.6-0.8h0.2v5.6c0,0.4,0,0.6,0,0.7c0,0.1,0.1,0.2,0.2,0.2s0.3,0.1,0.6,0.1v0.2h-2.5v-0.2
			c0.3,0,0.5,0,0.6-0.1c0.1,0,0.2-0.1,0.2-0.2c0-0.1,0.1-0.3,0.1-0.7v-3.6c0-0.5,0-0.8,0-0.9c0-0.1-0.1-0.2-0.1-0.2
			c-0.1,0-0.1-0.1-0.2-0.1c-0.1,0-0.3,0.1-0.5,0.2L394.2,255.9z"/>
		<path d="M399.3,260.9c0.2,0,0.3,0.1,0.4,0.2c0.1,0.1,0.2,0.2,0.2,0.4c0,0.1-0.1,0.3-0.2,0.4c-0.1,0.1-0.2,0.2-0.4,0.2
			s-0.3-0.1-0.4-0.2c-0.1-0.1-0.2-0.2-0.2-0.4c0-0.2,0.1-0.3,0.2-0.4C399,260.9,399.1,260.9,399.3,260.9z"/>
		<path d="M405.1,259.4v0.7h-0.9v1.7h-0.8v-1.7h-2.8v-0.6l3.1-4.4h0.5v4.3H405.1z M403.5,259.4v-3.3l-2.3,3.3H403.5z"/>
		<path d="M406,262v-0.2c0.4,0,0.8-0.1,1.2-0.3s0.7-0.5,1.1-1c0.3-0.5,0.6-1,0.7-1.6c-0.5,0.3-1,0.5-1.4,0.5c-0.5,0-0.9-0.2-1.2-0.5
			c-0.3-0.4-0.5-0.8-0.5-1.4c0-0.6,0.2-1.1,0.5-1.5c0.4-0.5,0.9-0.8,1.6-0.8c0.5,0,1,0.2,1.4,0.7c0.5,0.6,0.7,1.2,0.7,2.1
			c0,0.7-0.2,1.4-0.5,2.1c-0.4,0.6-0.9,1.2-1.5,1.6c-0.5,0.3-1.1,0.5-1.7,0.5H406z M409,258.6c0.1-0.4,0.1-0.8,0.1-1
			c0-0.3-0.1-0.7-0.2-1c-0.1-0.4-0.3-0.6-0.5-0.8s-0.4-0.3-0.7-0.3c-0.3,0-0.5,0.1-0.8,0.4c-0.2,0.3-0.3,0.6-0.3,1.2
			c0,0.7,0.1,1.2,0.4,1.6c0.2,0.3,0.5,0.4,0.8,0.4c0.1,0,0.3,0,0.5-0.1S408.9,258.7,409,258.6z"/>
	</g>
	<g>
		<path d="M411,256.5c0.2-0.4,0.4-0.8,0.7-1c0.3-0.2,0.6-0.4,1.1-0.4c0.5,0,0.9,0.2,1.2,0.5c0.2,0.3,0.3,0.5,0.3,0.8
			c0,0.5-0.3,1-0.9,1.5c0.4,0.2,0.7,0.4,0.9,0.7c0.2,0.3,0.3,0.6,0.3,1c0,0.6-0.2,1.1-0.5,1.5c-0.5,0.5-1.2,0.8-2.1,0.8
			c-0.4,0-0.7-0.1-0.9-0.2s-0.2-0.2-0.2-0.4c0-0.1,0-0.2,0.1-0.2s0.2-0.1,0.3-0.1c0.1,0,0.2,0,0.2,0c0.1,0,0.2,0.1,0.4,0.2
			c0.2,0.1,0.3,0.2,0.4,0.2c0.1,0,0.2,0.1,0.4,0.1c0.3,0,0.6-0.1,0.9-0.4s0.4-0.6,0.4-0.9c0-0.3-0.1-0.5-0.2-0.7
			c-0.1-0.2-0.2-0.3-0.3-0.4c-0.1-0.1-0.3-0.2-0.6-0.4s-0.5-0.2-0.7-0.2H412v-0.1c0.3,0,0.5-0.1,0.8-0.3s0.4-0.3,0.6-0.5
			c0.1-0.2,0.2-0.4,0.2-0.7c0-0.3-0.1-0.6-0.3-0.8c-0.2-0.2-0.5-0.3-0.8-0.3c-0.5,0-0.9,0.3-1.3,0.8L411,256.5z"/>
	</g>
	<line class="st2" x1="404.3" y1="251.7" x2="404.3" y2="249.2"/>
</g>
<path class="st0" d="M90.8,108.5H93l4.4-0.2l4.4,0.1l4.4-0.1l4.4,0l4.4,0l4.4,0l4.4,0.3l4.4,0.7l4.4,0.7l4.4,0.7l4.4,0.7l4.4,0.8
	l4.4,0.7l4.4,0.8l4.4,0.1h2.2 M187,119.8h2.2l4.4,0.6l4.4,0.7l4.4,0.9l4.4,0.7l4.4,0.6l4.4,0.3h2.2 M230.7,117.6h2.2l4.4-1.9
	l4.4-2.3l4.4-2.2l4.4-1.7l4.4-2.7l4.4-2.2l4.4-2.5l4.4-2.5l4.4-2.2l4.4-2.4l4.4-2.1l4.4-0.5l4.4,1l4.4,1.9l4.4,1.8l4.4,1.2l4.4,1.9
	l4.4,0.9l4.4,1.9l4.4,1.5l4.4,1.5l4.4,1.5l4.4,1.5l4.4,1.5l4.4,1.3l4.4,1.5l4.4,0h2.2 M90.8,108.5H93l4.4-0.2l4.4,0.1l4.4-0.1l4.4,0
	l4.4,0l4.4,0l4.4,0.3l4.4,0.7l4.4,0.7l4.4,0.7l4.4,0.7l4.4,0.8l4.4,0.7l4.4,0.8l4.4,0.1h2.2 M187,119.8h2.2l4.4,0.6l4.4,0.7l4.4,0.9
	l4.4,0.7l4.4,0.6l4.4,0.3h2.2 M230.7,117.6h2.2l4.4-1.9l4.4-2.3l4.4-2.2l4.4-1.7l4.4-2.7l4.4-2.2l4.4-2.5l4.4-2.5l4.4-2.2l4.4-2.4
	l4.4-2.1l4.4-0.9l4.4,0l4.4,0.6l4.4,0.6l4.4,0.3l4.4,0.4l4.4,0.5l4.4,0.4l4.4,0.3l4.4,0.5l4.4,0.4l4.4,0.3l4.4,0.6l4.4,0.7l4.4,0.8
	l4.4-0.7h2.2 M90.8,108.5H93l4.4-0.2l4.4,0.1l4.4-0.1l4.4,0l4.4,0l4.4,0l4.4,0.3l4.4,0.7l4.4,0.7l4.4,0.7l4.4,0.7l4.4,0.8l4.4,0.7
	l4.4,0.8l4.4,0.1h2.2 M187,119.8h2.2l4.4,0.6l4.4,0.7l4.4,0.9l4.4,0.7l4.4,0.6l4.4,0.3h2.2 M230.7,117.6h2.2l4.4-1.9l4.4-2.3
	l4.4-2.2l4.4-1.7l4.4-2.7l4.4-2.2l4.4-2.5l4.4-2.5l4.4-2.2l4.4-2.4l4.4-2.2l4.4-1.4l4.4-0.8l4.4-0.6l4.4-0.8l4.4-1.1l4.4-0.8
	l4.4-0.3l4.4-0.9l4.4-0.6l4.4-0.7l4.4-0.9l4.4-0.8l4.4-0.6l4.4-0.4l4.4,0.2l4.4,2h2.2 M90.8,108.5H93l4.4-0.2l4.4,0.1l4.4-0.1l4.4,0
	l4.4,0l4.4,0l4.4,0.3l4.4,0.7l4.4,0.7l4.4,0.7l4.4,0.7l4.4,0.8l4.4,0.7l4.4,0.8l4.4,0.1h2.2 M187,119.8h2.2l4.4,0.6l4.4,0.7l4.4,0.9
	l4.4,0.7l4.4,0.6l4.4,0.3h2.2 M230.7,117.6h2.2l4.4-1.9l4.4-2.3l4.4-2.2l4.4-1.7l4.4-2.7l4.4-2.2l4.4-2.5l4.4-2.5l4.4-2.2l4.4-2.4
	l4.4-2.2l4.4-1.9l4.4-1.7l4.4-2.1l4.4-2.1l4.4-2.4l4.4-1.4l4.4-2.1l4.4-2.2l4.4-1.6l4.4-1.8l4.4-2.4l4.4-1.9l4.4-1.8l4.4-1.3l4.4-1
	l4.4-5h2.2 M90.8,108.5H93l4.4-0.2l4.4,0.1l4.4-0.1l4.4,0l4.4,0l4.4,0l4.4,0.3l4.4,0.6l4.4,0.7l4.4,0.7l4.4,0.6l4.4,0.8l4.4,0.6
	l4.4,0.7l4.4,0.1h2.2 M187,118.8h2.2l4.4,0.5l4.4,0.7l4.4,0.8l4.4,0.6l4.4,0.6l4.4,0.5h2.2 M230.7,122.4h2.2l4.4-2.5l4.4-2.1
	l4.4-2.5l4.4-2.1l4.4-2.7l4.4-2.6l4.4-2.5l4.4-2.6l4.4-2.3l4.4-2.7l4.4-2.4l4.4-2.2l4.4-0.7l4.4,3.1l4.4,2.9l4.4,2.6l4.4,3.2
	l4.4,2.4l4.4,3l4.4,2.3l4.4,2.6l4.4,3l4.4,2.7l4.4,2.5l4.4,2.4l4.4,2.6l4.4,2.4h2.2 M90.8,108.5H93l4.4-0.2l4.4,0.1l4.4-0.1l4.4,0
	l4.4,0l4.4,0l4.4,0.3l4.4,0.6l4.4,0.7l4.4,0.7l4.4,0.6l4.4,0.8l4.4,0.6l4.4,0.7l4.4,0.1h2.2 M187,118.8h2.2l4.4,0.5l4.4,0.7l4.4,0.8
	l4.4,0.6l4.4,0.6l4.4,0.5h2.2 M230.7,122.4h2.2l4.4-2.5l4.4-2.1l4.4-2.5l4.4-2.1l4.4-2.7l4.4-2.6l4.4-2.5l4.4-2.6l4.4-2.3l4.4-2.7
	l4.4-2.4l4.4-2.3l4.4-1l4.4,1.7l4.4,1.8l4.4,1.7l4.4,1.2l4.4,2.2l4.4,1.6l4.4,1.5l4.4,1.1l4.4,2l4.4,1.5l4.4,1.5l4.4,1.5l4.4,1.8
	h2.2 M90.8,108.5H93l4.4-0.2l4.4,0.1l4.4-0.1l4.4,0l4.4,0l4.4,0l4.4,0.3l4.4,0.6l4.4,0.7l4.4,0.7l4.4,0.6l4.4,0.8l4.4,0.6l4.4,0.7
	l4.4,0.1h2.2 M187,118.8h2.2l4.4,0.5l4.4,0.7l4.4,0.8l4.4,0.6l4.4,0.6l4.4,0.5h2.2 M230.7,122.4h2.2l4.4-2.5l4.4-2.1l4.4-2.5
	l4.4-2.1l4.4-2.7l4.4-2.6l4.4-2.5l4.4-2.6l4.4-2.3l4.4-2.7l4.4-2.4l4.4-2.3l4.4-1.3l4.4,0.5l4.4,0.6l4.4,0.3l4.4,0.4l4.4,0.7
	l4.4,0.3l4.4,0.5l4.4,0.2l4.4,0.7l4.4,0.4l4.4,0.5l4.4,0.9l4.4,0.7l4.4,1.4h2.2"/>
<path class="st0" d="M90.8,108.5H93l4.4-0.2l4.4,0.1l4.4-0.1l4.4,0l4.4,0l4.4,0l4.4,0.3l4.4,0.6l4.4,0.7l4.4,0.7l4.4,0.6l4.4,0.8
	l4.4,0.6l4.4,0.7l4.4,0.1h2.2 M187,118.8h2.2l4.4,0.5l4.4,0.7l4.4,0.8l4.4,0.6l4.4,0.6l4.4,0.5h2.2 M230.7,122.4h2.2l4.4-2.5
	l4.4-2.1l4.4-2.5l4.4-2.1l4.4-2.7l4.4-2.6l4.4-2.5l4.4-2.6l4.4-2.3l4.4-2.7l4.4-2.4l4.4-2.3l4.4-1.6l4.4-1l4.4-0.6l4.4-1.1l4.4-1
	l4.4-0.4l4.4-0.7l4.4-0.9l4.4-0.5l4.4-1l4.4-0.9l4.4-0.6l4.4-0.5l4.4,0.1l4.4-2.7h2.2 M90.8,108.5H93l4.4-0.2l4.4,0.1l4.4-0.1l4.4,0
	l4.4,0l4.4,0l4.4,0.3l4.4,0.6l4.4,0.7l4.4,0.7l4.4,0.6l4.4,0.8l4.4,0.6l4.4,0.7l4.4,0.1h2.2 M187,118.8h2.2l4.4,0.5l4.4,0.7l4.4,0.8
	l4.4,0.6l4.4,0.6l4.4,0.5h2.2 M230.7,122.4h2.2l4.4-2.5l4.4-2.1l4.4-2.5l4.4-2.1l4.4-2.7l4.4-2.6l4.4-2.5l4.4-2.6l4.4-2.3l4.4-2.7
	l4.4-2.4l4.4-2.4l4.4-1.9l4.4-2.5l4.4-1.9l4.4-2.7l4.4-1.6l4.4-2.2l4.4-2.3l4.4-1.9l4.4-1.7L329,72l4.4-2.1l4.4-1.9l4.4-1.5l4.4-1
	l4.4-5.8h2.2 M90.8,108.5H93l4.4-0.2l4.4,0.1l4.4-0.1l4.4,0l4.4,0l4.4,0l4.4,0.2l4.4,0.6l4.4,0.6l4.4,0.6l4.4,0.5l4.4,0.7l4.4,0.6
	l4.4,0.6l4.4,0.1h2.2 M182.6,117.7h2.2l4.4,0.3l4.4,0.4l4.4,0.7l4.4,0.7l4.4,0.6l4.4,0.5l4.4,0.2h2.2 M230.7,124.2h2.2l4.4,0.1
	l4.4-1l4.4-3.4l4.4-2.5l4.4-2.5l4.4-2.9l4.4-2.6l4.4-2.8l4.4-2.7l4.4-2.8l4.4-2.4l4.4-2.5l4.4-2.1l4.4-0.7l4.4,2.4l4.4,3l4.4,2.6
	l4.4,3.8l4.4,2.3l4.4,3.2l4.4,2.7l4.4,3.1l4.4,3l4.4,2.7l4.4,2.6l4.4,2.8l4.4,3.1h2.2 M90.8,108.5H93l4.4-0.2l4.4,0.1l4.4-0.1l4.4,0
	l4.4,0l4.4,0l4.4,0.2l4.4,0.6l4.4,0.6l4.4,0.6l4.4,0.5l4.4,0.7l4.4,0.6l4.4,0.6l4.4,0.1h2.2 M182.6,117.7h2.2l4.4,0.3l4.4,0.4
	l4.4,0.7l4.4,0.7l4.4,0.6l4.4,0.5l4.4,0.2h2.2 M230.7,124.2h2.2l4.4,0.1l4.4-1l4.4-3.4l4.4-2.5l4.4-2.5l4.4-2.9l4.4-2.6l4.4-2.8
	l4.4-2.7l4.4-2.8l4.4-2.4l4.4-2.5l4.4-2.1l4.4-1.2l4.4,1.3l4.4,1.7l4.4,1.5l4.4,2.1l4.4,1.5l4.4,1.8l4.4,1.7l4.4,1.8l4.4,1.7
	l4.4,1.7l4.4,1.5l4.4,1.8l4.4,0.1h2.2 M90.8,108.5H93l4.4-0.2l4.4,0.1l4.4-0.1l4.4,0l4.4,0l4.4,0l4.4,0.2l4.4,0.6l4.4,0.6l4.4,0.6
	l4.4,0.5l4.4,0.7l4.4,0.6l4.4,0.6l4.4,0.1h2.2 M182.6,117.7h2.2l4.4,0.3l4.4,0.4l4.4,0.7l4.4,0.7l4.4,0.6l4.4,0.5l4.4,0.2h2.2
	 M230.7,124.2h2.2l4.4,0.1l4.4-1l4.4-3.4l4.4-2.5l4.4-2.5l4.4-2.9l4.4-2.6l4.4-2.8l4.4-2.7l4.4-2.8l4.4-2.4l4.4-2.5l4.4-2.1l4.4-1.8
	l4.4,0.3l4.4,0.2l4.4,0.6l4.4,0.5l4.4,0.3l4.4,0.6l4.4,0.2L329,96l4.4,0.4l4.4,0.6l4.4,0.5l4.4,1l4.4-1.7h2.2 M90.8,108.5H93
	l4.4-0.2l4.4,0.1l4.4-0.1l4.4,0l4.4,0l4.4,0l4.4,0.2l4.4,0.6l4.4,0.6l4.4,0.6l4.4,0.5l4.4,0.7l4.4,0.6l4.4,0.6l4.4,0.1h2.2
	 M182.6,117.7h2.2l4.4,0.3l4.4,0.4l4.4,0.7l4.4,0.7l4.4,0.6l4.4,0.5l4.4,0.2h2.2 M230.7,124.2h2.2l4.4,0.1l4.4-1l4.4-3.4l4.4-2.5
	l4.4-2.5l4.4-2.9l4.4-2.6l4.4-2.8l4.4-2.7l4.4-2.8l4.4-2.4l4.4-2.5l4.4-2.2l4.4-2.4l4.4-0.9l4.4-1.1l4.4-1l4.4-0.5l4.4-0.8l4.4-0.8
	l4.4-0.8l4.4-0.9l4.4-1l4.4-0.7l4.4-0.5l4.4,0.1l4.4-2.4h2.2 M90.8,108.5H93l4.4-0.2l4.4,0.1l4.4-0.1l4.4,0l4.4,0l4.4,0l4.4,0.2
	l4.4,0.6l4.4,0.6l4.4,0.6l4.4,0.5l4.4,0.7l4.4,0.6l4.4,0.6l4.4,0.1h2.2 M182.6,117.7h2.2l4.4,0.3l4.4,0.4l4.4,0.7l4.4,0.7l4.4,0.6
	l4.4,0.5l4.4,0.2h2.2 M230.7,124.2h2.2l4.4,0.1l4.4-1l4.4-3.4l4.4-2.5l4.4-2.5l4.4-2.9l4.4-2.6l4.4-2.8l4.4-2.7l4.4-2.8l4.4-2.4
	l4.4-2.5l4.4-2.2l4.4-3.1l4.4-2.2l4.4-2.6l4.4-1.9l4.4-2.5l4.4-2.5l4.4-1.9l4.4-1.9l4.4-2.7l4.4-2.2l4.4-2.1l4.4-1.7l4.4-1.1
	l4.4-5.6h2.2"/>
<path class="st0" d="M90.8,108.5H93l4.4-0.2l4.4,0.1l4.4-0.1l4.4,0l4.4,0l4.4,0l4.4,0.2l4.4,0.5l4.4,0.6l4.4,0.5l4.4,0.5l4.4,0.6
	l4.4,0.6l4.4,0.5l4.4,0.7h2.2 M182.6,117h2.2l4.4,0.3l4.4,0.4l4.4,0.7l4.4,0.6l4.4,0.6l4.4,0.4l4.4,0.9h2.2 M235.1,123.7h2.2
	l4.4,0.6l4.4,0.2l4.4-1.4l4.4-2.9l4.4-3.2l4.4-2.8l4.4-3.2l4.4-2.9l4.4-3.2l4.4-2.7l4.4-2.6l4.4-2.2l4.4-3.5l4.4-0.2l4.4,2.2l4.4,3
	l4.4,3.8l4.4,3.5l4.4,3.2l4.4,2.4l4.4,3.6l4.4,3.2l4.4,3.1l4.4,2.4l4.4,1.3h2.2 M90.8,108.5H93l4.4-0.2l4.4,0.1l4.4-0.1l4.4,0l4.4,0
	l4.4,0l4.4,0.2l4.4,0.5l4.4,0.6l4.4,0.5l4.4,0.5l4.4,0.6l4.4,0.6l4.4,0.5l4.4,0.7h2.2 M182.6,117h2.2l4.4,0.3l4.4,0.4l4.4,0.7
	l4.4,0.6l4.4,0.6l4.4,0.4l4.4,0.9h2.2 M235.1,123.7h2.2l4.4,0.6l4.4,0.2l4.4-1.4l4.4-2.9l4.4-3.2l4.4-2.8l4.4-3.2l4.4-2.9l4.4-3.2
	l4.4-2.7l4.4-2.6l4.4-2.2l4.4-3.6l4.4-0.7l4.4,1.1l4.4,2.3l4.4,1.2l4.4,2.4l4.4,2.2l4.4,1.3l4.4,2.2l4.4,1.9l4.4,1.7l4.4,1.8l4.4,2
	h2.2 M90.8,108.5H93l4.4-0.2l4.4,0.1l4.4-0.1l4.4,0l4.4,0l4.4,0l4.4,0.2l4.4,0.5l4.4,0.6l4.4,0.5l4.4,0.5l4.4,0.6l4.4,0.6l4.4,0.5
	l4.4,0.7h2.2 M182.6,117h2.2l4.4,0.3l4.4,0.4l4.4,0.7l4.4,0.6l4.4,0.6l4.4,0.4l4.4,0.9h2.2 M235.1,123.7h2.2l4.4,0.6l4.4,0.2
	l4.4-1.4l4.4-2.9l4.4-3.2l4.4-2.8l4.4-3.2l4.4-2.9l4.4-3.2l4.4-2.7l4.4-2.6l4.4-2.2l4.4-3.6l4.4-1.4l4.4,0l4.4,0.7l4.4,0.5l4.4,0.6
	l4.4,0.5l4.4,0.6l4.4,0.5l4.4,0.5l4.4,0.6l4.4,0.7l4.4,1l4.4-1.1h2.2 M90.8,108.5H93l4.4-0.2l4.4,0.1l4.4-0.1l4.4,0l4.4,0l4.4,0
	l4.4,0.2l4.4,0.5l4.4,0.6l4.4,0.5l4.4,0.5l4.4,0.6l4.4,0.6l4.4,0.5l4.4,0.7h2.2 M182.6,117h2.2l4.4,0.3l4.4,0.4l4.4,0.7l4.4,0.6
	l4.4,0.6l4.4,0.4l4.4,0.9h2.2 M235.1,123.7h2.2l4.4,0.6l4.4,0.2l4.4-1.4l4.4-2.9l4.4-3.2l4.4-2.8l4.4-3.2l4.4-2.9l4.4-3.2l4.4-2.7
	l4.4-2.6l4.4-2.2l4.4-3.7l4.4-2l4.4-1.4l4.4-0.7l4.4-0.9l4.4-0.9l4.4-0.8l4.4-0.8l4.4-1.1l4.4-1l4.4-0.8l4.4-0.5l4.4,0.1l4.4-2.7
	h2.2 M90.8,108.5H93l4.4-0.2l4.4,0.1l4.4-0.1l4.4,0l4.4,0l4.4,0l4.4,0.2l4.4,0.5l4.4,0.6l4.4,0.5l4.4,0.5l4.4,0.6l4.4,0.6l4.4,0.5
	l4.4,0.7h2.2 M182.6,117h2.2l4.4,0.3l4.4,0.4l4.4,0.7l4.4,0.6l4.4,0.6l4.4,0.4l4.4,0.9h2.2 M235.1,123.7h2.2l4.4,0.6l4.4,0.2
	l4.4-1.4l4.4-2.9l4.4-3.2l4.4-2.8l4.4-3.2l4.4-2.9l4.4-3.2l4.4-2.7l4.4-2.6l4.4-2.2l4.4-3.8l4.4-2.7l4.4-2.8l4.4-1.9l4.4-2.7
	l4.4-2.8l4.4-1.8l4.4-2.4l4.4-2.7l4.4-2.5l4.4-2.3l4.4-1.9l4.4-1.1l4.4-5.3h2.2 M90.8,108.5H93l4.4-0.2l4.4,0.1l4.4-0.1l4.4,0l4.4,0
	l4.4,0l4.4,0.2l4.4,0.5l4.4,0.6l4.4,0.5l4.4,0.5l4.4,0.6l4.4,0.5l4.4,0.4l4.4-0.1h2.2 M187,116.8h2.2l4.4,0.3l4.4,0.6l4.4,0.7
	l4.4,0.5l4.4,0.4l4.4,0.3h2.2 M230.7,122.2h2.2l4.4,0.4l4.4,0.6l4.4,0.4l4.4,0.4l4.4,0.5l4.4-1.5l4.4-3.5l4.4-3.2l4.4-3.3l4.4-3.2
	l4.4-3.2l4.4-3l4.4-2.5l4.4-3.6l4.4-3.1l4.4-0.9l4.4,2.6l4.4,4.4l4.4,2.7l4.4,3.7l4.4,2.7l4.4,4l4.4,3.5l4.4,3.3l4.4,2.9l4.4,3.1
	l4.4,3.1h2.2"/>
<path class="st0" d="M90.8,108.5H93l4.4-0.2l4.4,0.1l4.4-0.1l4.4,0l4.4,0l4.4,0l4.4,0.2l4.4,0.5l4.4,0.6l4.4,0.5l4.4,0.5l4.4,0.6
	l4.4,0.5l4.4,0.4l4.4-0.1h2.2 M187,116.8h2.2l4.4,0.3l4.4,0.6l4.4,0.7l4.4,0.5l4.4,0.4l4.4,0.3h2.2 M230.7,122.2h2.2l4.4,0.4
	l4.4,0.6l4.4,0.4l4.4,0.4l4.4,0.5l4.4-1.5l4.4-3.5l4.4-3.2l4.4-3.3l4.4-3.2l4.4-3.2l4.4-3l4.4-2.5l4.4-3.6l4.4-3.2l4.4-1.3l4.4,1.1
	l4.4,2.7l4.4,1.8l4.4,2.1l4.4,2l4.4,2.2l4.4,1.9l4.4,2l4.4,1.8l4.4,2l4.4,0.3h2.2 M90.8,108.5H93l4.4-0.2l4.4,0.1l4.4-0.1l4.4,0
	l4.4,0l4.4,0l4.4,0.2l4.4,0.5l4.4,0.6l4.4,0.5l4.4,0.5l4.4,0.6l4.4,0.5l4.4,0.4l4.4-0.1h2.2 M187,116.8h2.2l4.4,0.3l4.4,0.6l4.4,0.7
	l4.4,0.5l4.4,0.4l4.4,0.3h2.2 M230.7,122.2h2.2l4.4,0.4l4.4,0.6l4.4,0.4l4.4,0.4l4.4,0.5l4.4-1.5l4.4-3.5l4.4-3.2l4.4-3.3l4.4-3.2
	l4.4-3.2l4.4-3l4.4-2.5l4.4-3.6l4.4-3.2l4.4-2.1l4.4,0.2l4.4,0.8l4.4,0.6l4.4,0.5l4.4,0.6l4.4,0.6l4.4,0.5l4.4,0.6l4.4,1.1l4.4,0.8
	l4.4,0.6h2.2 M90.8,108.5H93l4.4-0.2l4.4,0.1l4.4-0.1l4.4,0l4.4,0l4.4,0l4.4,0.2l4.4,0.5l4.4,0.6l4.4,0.5l4.4,0.5l4.4,0.6l4.4,0.5
	l4.4,0.4l4.4-0.1h2.2 M187,116.8h2.2l4.4,0.3l4.4,0.6l4.4,0.7l4.4,0.5l4.4,0.4l4.4,0.3h2.2 M230.7,122.2h2.2l4.4,0.4l4.4,0.6
	l4.4,0.4l4.4,0.4l4.4,0.5l4.4-1.5l4.4-3.5l4.4-3.2l4.4-3.3l4.4-3.2l4.4-3.2l4.4-3l4.4-2.5l4.4-3.6l4.4-3.2l4.4-2.9l4.4-0.9l4.4-1
	l4.4-1.1l4.4-1l4.4-0.6l4.4-1.3l4.4-1.1l4.4-0.7l4.4-0.7l4.4,0l4.4-2.9h2.2 M90.8,108.5H93l4.4-0.2l4.4,0.1l4.4-0.1l4.4,0l4.4,0
	l4.4,0l4.4,0.2l4.4,0.5l4.4,0.6l4.4,0.5l4.4,0.5l4.4,0.6l4.4,0.5l4.4,0.4l4.4-0.1h2.2 M187,116.8h2.2l4.4,0.3l4.4,0.6l4.4,0.7
	l4.4,0.5l4.4,0.4l4.4,0.3h2.2 M230.7,122.2h2.2l4.4,0.4l4.4,0.6l4.4,0.4l4.4,0.4l4.4,0.5l4.4-1.5l4.4-3.5l4.4-3.2l4.4-3.3l4.4-3.2
	l4.4-3.2l4.4-3l4.4-2.5l4.4-3.6l4.4-3.3l4.4-3.6l4.4-2l4.4-3l4.4-2.6l4.4-2.5l4.4-2.6l4.4-3l4.4-2.7l4.4-2.5l4.4-2.2l4.4-1.3
	l4.4-2.1h2.2"/>
</svg>
