<?xml version="1.0" encoding="utf-8"?>
<!-- Generator: Adobe Illustrator 22.0.1, SVG Export Plug-In . SVG Version: 6.00 Build 0)  -->
<svg version="1.1" id="Layer_1" xmlns="http://www.w3.org/2000/svg" xmlns:xlink="http://www.w3.org/1999/xlink" x="0px" y="0px"
	 viewBox="0 0 432 288" style="enable-background:new 0 0 432 288;" xml:space="preserve">
<style type="text/css">
	.st0{fill:none;stroke:#000000;stroke-width:0.375;stroke-linejoin:bevel;stroke-miterlimit:10;}
	.st1{fill:none;stroke:#000000;stroke-width:0.375;stroke-linejoin:bevel;stroke-miterlimit:10;stroke-dasharray:0.72,1.32;}
	.st2{fill:none;stroke:#000000;stroke-width:0.75;stroke-linejoin:bevel;stroke-miterlimit:10;}
</style>
<g>
	<path class="st0" d="M90.8,108.5H93l4.4-0.2l4.4,0.1l4.4-0.1l4.4,0l4.4,0l4.4,0l4.4,0.3l4.4,0.7l4.4,0.7l4.4,0.7l4.4,0.7l4.4,0.8
		l4.4,0.7l4.4,0.8l4.4,0.1h2.2 M187,119.8h2.2l4.4,0.6l4.4,0.7l4.4,0.9l4.4,0.7l4.4,0.6l4.4,0.3h2.2 M235.1,114.9h2.2l4.4-4.2
		l4.4-5.3l4.4-4.8l4.4-2.9l4.4-5l4.4-3.4l4.4-2.8l4.4-1.8l4.4-0.8l4.4,1l4.4,2.7l4.4,2l4.4,4l4.4,3l4.4,2.8l4.4,2.7l4.4,3l4.4,3
		l4.4,3.2l4.4,2.3l4.4,3.3l4.4,2.8l4.4,2.7l4.4,2.3l4.4,1.1h2.2 M56.3,182.9h348v-33.1h-348V182.9z"/>
	<line class="st1" x1="86.9" y1="149.8" x2="86.9" y2="17.2"/>
	<line class="st0" x1="86.9" y1="182.9" x2="86.9" y2="149.8"/>
	<g>
		<path d="M111.6,165.8c0.3-0.3,0.5-0.5,0.6-0.6c0.1-0.1,0.3-0.2,0.5-0.3c0.2-0.1,0.3-0.1,0.5-0.1c0.3,0,0.5,0.1,0.7,0.2
			s0.3,0.4,0.4,0.7c0.3-0.4,0.6-0.6,0.8-0.8c0.2-0.1,0.5-0.2,0.7-0.2c0.2,0,0.4,0.1,0.6,0.2c0.2,0.1,0.3,0.3,0.4,0.6
			c0.1,0.2,0.1,0.5,0.1,0.9v1.9c0,0.3,0,0.5,0.1,0.6c0,0.1,0.1,0.1,0.2,0.2c0.1,0,0.2,0.1,0.4,0.1v0.2h-2.2v-0.2h0.1
			c0.2,0,0.3,0,0.4-0.1c0.1-0.1,0.1-0.1,0.2-0.2c0-0.1,0-0.2,0-0.5v-1.9c0-0.4,0-0.6-0.1-0.8c-0.1-0.2-0.3-0.3-0.6-0.3
			c-0.2,0-0.3,0-0.5,0.1c-0.2,0.1-0.4,0.2-0.6,0.5l0,0.1l0,0.2v2.1c0,0.3,0,0.5,0.1,0.6c0,0.1,0.1,0.1,0.2,0.2
			c0.1,0,0.3,0.1,0.5,0.1v0.2h-2.3v-0.2c0.2,0,0.4,0,0.5-0.1c0.1-0.1,0.2-0.1,0.2-0.3c0-0.1,0-0.2,0-0.5v-1.9c0-0.4-0.1-0.6-0.2-0.8
			c-0.1-0.2-0.3-0.3-0.6-0.3c-0.2,0-0.3,0-0.5,0.1c-0.3,0.1-0.5,0.3-0.6,0.5v2.4c0,0.3,0,0.5,0.1,0.6c0,0.1,0.1,0.2,0.2,0.2
			c0.1,0,0.2,0.1,0.5,0.1v0.2h-2.2v-0.2c0.2,0,0.3,0,0.4-0.1c0.1,0,0.1-0.1,0.2-0.2c0-0.1,0.1-0.3,0.1-0.6v-1.7c0-0.5,0-0.8,0-0.9
			c0-0.1-0.1-0.2-0.1-0.2c0,0-0.1-0.1-0.2-0.1c-0.1,0-0.2,0-0.3,0.1l-0.1-0.2l1.3-0.5h0.2V165.8z"/>
		<path d="M120.2,164.9c0.7,0,1.2,0.3,1.6,0.8c0.3,0.4,0.5,0.9,0.5,1.5c0,0.4-0.1,0.8-0.3,1.2c-0.2,0.4-0.5,0.7-0.8,0.9
			c-0.3,0.2-0.7,0.3-1.1,0.3c-0.7,0-1.2-0.3-1.6-0.8c-0.3-0.5-0.5-1-0.5-1.5c0-0.4,0.1-0.8,0.3-1.2c0.2-0.4,0.5-0.7,0.8-0.9
			C119.5,165,119.8,164.9,120.2,164.9z M120,165.2c-0.2,0-0.3,0.1-0.5,0.2c-0.2,0.1-0.3,0.3-0.4,0.5c-0.1,0.3-0.2,0.6-0.2,1
			c0,0.6,0.1,1.2,0.4,1.7c0.3,0.5,0.6,0.7,1,0.7c0.3,0,0.6-0.1,0.8-0.4c0.2-0.3,0.3-0.7,0.3-1.3c0-0.8-0.2-1.4-0.5-1.9
			C120.7,165.3,120.4,165.2,120,165.2z"/>
		<path d="M124.5,162.5v5.9c0,0.3,0,0.5,0.1,0.6s0.1,0.2,0.2,0.2c0.1,0,0.2,0.1,0.5,0.1v0.2h-2.2v-0.2c0.2,0,0.3,0,0.4-0.1
			c0.1,0,0.1-0.1,0.2-0.2c0-0.1,0.1-0.3,0.1-0.6v-4c0-0.5,0-0.8,0-0.9c0-0.1-0.1-0.2-0.1-0.2c-0.1,0-0.1-0.1-0.2-0.1
			c-0.1,0-0.2,0-0.3,0.1l-0.1-0.2l1.3-0.5H124.5z"/>
		<path d="M127.3,162.5v5.9c0,0.3,0,0.5,0.1,0.6s0.1,0.2,0.2,0.2c0.1,0,0.2,0.1,0.5,0.1v0.2h-2.2v-0.2c0.2,0,0.3,0,0.4-0.1
			c0.1,0,0.1-0.1,0.2-0.2c0-0.1,0.1-0.3,0.1-0.6v-4c0-0.5,0-0.8,0-0.9c0-0.1-0.1-0.2-0.1-0.2c-0.1,0-0.1-0.1-0.2-0.1
			c-0.1,0-0.2,0-0.3,0.1l-0.1-0.2l1.3-0.5H127.3z"/>
		<path d="M128.3,165h2.1v0.2h-0.1c-0.1,0-0.3,0-0.3,0.1c-0.1,0.1-0.1,0.1-0.1,0.2c0,0.1,0.1,0.3,0.2,0.5l1.1,2.2l1-2.5
			c0.1-0.1,0.1-0.3,0.1-0.4c0-0.1,0-0.1,0-0.1c0,0-0.1-0.1-0.1-0.1s-0.2,0-0.3,0V165h1.4v0.2c-0.1,0-0.2,0-0.3,0.1s-0.1,0.1-0.2,0.2
			c0,0-0.1,0.2-0.2,0.4l-1.8,4.4c-0.2,0.4-0.4,0.8-0.7,1c-0.3,0.2-0.6,0.3-0.8,0.3c-0.2,0-0.3-0.1-0.5-0.2s-0.2-0.2-0.2-0.4
			c0-0.1,0-0.2,0.1-0.3c0.1-0.1,0.2-0.1,0.4-0.1c0.1,0,0.3,0,0.4,0.1c0.1,0,0.2,0.1,0.2,0.1c0.1,0,0.2-0.1,0.3-0.2
			c0.1-0.1,0.2-0.3,0.3-0.6l0.3-0.8l-1.6-3.4c0-0.1-0.1-0.2-0.2-0.4c-0.1-0.1-0.1-0.2-0.2-0.2c-0.1-0.1-0.2-0.1-0.4-0.1V165z"/>
	</g>
	<line class="st1" x1="156.5" y1="149.8" x2="156.5" y2="17.2"/>
	<line class="st0" x1="156.5" y1="182.9" x2="156.5" y2="149.8"/>
	<g>
		<path d="M161.2,165.2V165c0.3-0.2,0.6-0.4,0.7-0.6c0.1-0.1,0.1-0.3,0.1-0.4c0-0.1,0-0.2-0.1-0.2c0,0-0.1-0.1-0.1-0.1
			c0,0-0.1,0-0.1,0c-0.1,0-0.2,0-0.2,0c-0.1,0-0.2,0-0.3-0.1s-0.2-0.2-0.2-0.4c0-0.2,0.1-0.3,0.2-0.4c0.1-0.1,0.3-0.2,0.5-0.2
			c0.2,0,0.4,0.1,0.6,0.3c0.2,0.2,0.3,0.4,0.3,0.7c0,0.4-0.1,0.7-0.4,1C161.8,164.9,161.5,165.1,161.2,165.2z"/>
		<path d="M166.5,164.9v1.5h-0.2c-0.1-0.5-0.3-0.8-0.5-1s-0.4-0.3-0.7-0.3c-0.2,0-0.4,0.1-0.5,0.2c-0.1,0.1-0.2,0.3-0.2,0.4
			c0,0.2,0.1,0.3,0.2,0.5c0.1,0.1,0.3,0.3,0.6,0.4l0.7,0.3c0.7,0.3,1,0.7,1,1.3c0,0.4-0.2,0.7-0.5,1c-0.3,0.2-0.6,0.4-1,0.4
			c-0.3,0-0.6,0-0.9-0.1c-0.1,0-0.2,0-0.3,0c-0.1,0-0.1,0-0.2,0.1h-0.2v-1.6h0.2c0.1,0.5,0.3,0.8,0.5,1c0.3,0.2,0.5,0.3,0.9,0.3
			c0.2,0,0.4-0.1,0.5-0.2c0.1-0.1,0.2-0.3,0.2-0.5c0-0.2-0.1-0.4-0.2-0.6s-0.5-0.3-0.9-0.6c-0.5-0.2-0.8-0.4-0.9-0.6
			c-0.1-0.2-0.2-0.4-0.2-0.7c0-0.4,0.1-0.7,0.4-0.9c0.3-0.2,0.6-0.4,1-0.4c0.2,0,0.4,0,0.6,0.1c0.2,0,0.3,0.1,0.3,0.1
			c0.1,0,0.1,0,0.1,0c0,0,0.1-0.1,0.1-0.2H166.5z"/>
	</g>
	<line class="st1" x1="170.8" y1="149.8" x2="170.8" y2="17.2"/>
	<line class="st0" x1="170.8" y1="182.9" x2="170.8" y2="149.8"/>
	<g>
		<path d="M187.5,165.3v2.9c0,0.4,0,0.7,0.1,0.8c0.1,0.1,0.3,0.2,0.5,0.2h0.4v0.2h-2.7v-0.2h0.2c0.1,0,0.2,0,0.4-0.1
			c0.1-0.1,0.2-0.2,0.2-0.3s0.1-0.3,0.1-0.6v-2.9h-0.9V165h0.9v-0.3c0-0.4,0.1-0.8,0.2-1.1c0.1-0.3,0.4-0.6,0.7-0.7
			c0.3-0.2,0.6-0.3,1-0.3c0.3,0,0.7,0.1,0.9,0.3c0.2,0.1,0.3,0.3,0.3,0.5c0,0.1,0,0.2-0.1,0.3c-0.1,0.1-0.2,0.1-0.3,0.1
			c-0.1,0-0.2,0-0.2-0.1c-0.1-0.1-0.2-0.2-0.3-0.3s-0.2-0.3-0.3-0.4s-0.2-0.1-0.3-0.1c-0.1,0-0.3,0-0.4,0.1
			c-0.1,0.1-0.2,0.2-0.2,0.4c0,0.2-0.1,0.6-0.1,1.3v0.3h1.1v0.4H187.5z"/>
		<path d="M190.4,164.9v1c0.4-0.7,0.8-1,1.1-1c0.2,0,0.3,0.1,0.4,0.2c0.1,0.1,0.2,0.2,0.2,0.4c0,0.1,0,0.2-0.1,0.3
			c-0.1,0.1-0.2,0.1-0.3,0.1c-0.1,0-0.2-0.1-0.4-0.2s-0.2-0.2-0.3-0.2c-0.1,0-0.1,0-0.2,0.1c-0.1,0.1-0.3,0.4-0.5,0.7v2.1
			c0,0.2,0,0.4,0.1,0.6c0,0.1,0.1,0.2,0.2,0.2s0.3,0.1,0.5,0.1v0.2h-2.3v-0.2c0.2,0,0.4,0,0.5-0.1c0.1-0.1,0.1-0.1,0.2-0.2
			c0-0.1,0-0.2,0-0.5v-1.7c0-0.5,0-0.8,0-0.9c0-0.1-0.1-0.2-0.1-0.2c-0.1,0-0.1-0.1-0.2-0.1c-0.1,0-0.2,0-0.3,0.1l0-0.2l1.3-0.5
			H190.4z"/>
		<path d="M194.6,164.9c0.7,0,1.2,0.3,1.6,0.8c0.3,0.4,0.5,0.9,0.5,1.5c0,0.4-0.1,0.8-0.3,1.2c-0.2,0.4-0.5,0.7-0.8,0.9
			c-0.3,0.2-0.7,0.3-1.1,0.3c-0.7,0-1.2-0.3-1.6-0.8c-0.3-0.5-0.5-1-0.5-1.5c0-0.4,0.1-0.8,0.3-1.2c0.2-0.4,0.5-0.7,0.8-0.9
			C193.8,165,194.2,164.9,194.6,164.9z M194.4,165.2c-0.2,0-0.3,0.1-0.5,0.2c-0.2,0.1-0.3,0.3-0.4,0.5c-0.1,0.3-0.2,0.6-0.2,1
			c0,0.6,0.1,1.2,0.4,1.7c0.3,0.5,0.6,0.7,1,0.7c0.3,0,0.6-0.1,0.8-0.4c0.2-0.3,0.3-0.7,0.3-1.3c0-0.8-0.2-1.4-0.5-1.9
			C195.1,165.3,194.8,165.2,194.4,165.2z"/>
		<path d="M198.7,165.8c0.3-0.3,0.5-0.5,0.6-0.6c0.1-0.1,0.3-0.2,0.5-0.3c0.2-0.1,0.3-0.1,0.5-0.1c0.3,0,0.5,0.1,0.7,0.2
			s0.3,0.4,0.4,0.7c0.3-0.4,0.6-0.6,0.8-0.8c0.2-0.1,0.5-0.2,0.7-0.2c0.2,0,0.4,0.1,0.6,0.2c0.2,0.1,0.3,0.3,0.4,0.6
			c0.1,0.2,0.1,0.5,0.1,0.9v1.9c0,0.3,0,0.5,0.1,0.6c0,0.1,0.1,0.1,0.2,0.2c0.1,0,0.2,0.1,0.4,0.1v0.2h-2.2v-0.2h0.1
			c0.2,0,0.3,0,0.4-0.1c0.1-0.1,0.1-0.1,0.2-0.2c0-0.1,0-0.2,0-0.5v-1.9c0-0.4,0-0.6-0.1-0.8c-0.1-0.2-0.3-0.3-0.6-0.3
			c-0.2,0-0.3,0-0.5,0.1c-0.2,0.1-0.4,0.2-0.6,0.5l0,0.1l0,0.2v2.1c0,0.3,0,0.5,0.1,0.6c0,0.1,0.1,0.1,0.2,0.2
			c0.1,0,0.3,0.1,0.5,0.1v0.2h-2.3v-0.2c0.2,0,0.4,0,0.5-0.1c0.1-0.1,0.2-0.1,0.2-0.3c0-0.1,0-0.2,0-0.5v-1.9c0-0.4-0.1-0.6-0.2-0.8
			c-0.1-0.2-0.3-0.3-0.6-0.3c-0.2,0-0.3,0-0.5,0.1c-0.3,0.1-0.5,0.3-0.6,0.5v2.4c0,0.3,0,0.5,0.1,0.6c0,0.1,0.1,0.2,0.2,0.2
			c0.1,0,0.2,0.1,0.5,0.1v0.2h-2.2v-0.2c0.2,0,0.3,0,0.4-0.1c0.1,0,0.1-0.1,0.2-0.2c0-0.1,0.1-0.3,0.1-0.6v-1.7c0-0.5,0-0.8,0-0.9
			c0-0.1-0.1-0.2-0.1-0.2c0,0-0.1-0.1-0.2-0.1c-0.1,0-0.2,0-0.3,0.1l-0.1-0.2l1.3-0.5h0.2V165.8z"/>
	</g>
	<line class="st1" x1="219.7" y1="149.8" x2="219.7" y2="17.2"/>
	<line class="st0" x1="219.7" y1="182.9" x2="219.7" y2="149.8"/>
	<g>
		<path d="M269.4,165.8c0.4-0.6,0.9-0.9,1.4-0.9c0.5,0,0.9,0.2,1.2,0.6s0.5,0.9,0.5,1.6c0,0.8-0.3,1.4-0.8,1.9
			c-0.5,0.4-1,0.6-1.5,0.6c-0.3,0-0.5,0-0.8-0.1s-0.5-0.2-0.8-0.4v-4.6c0-0.5,0-0.8,0-0.9c0-0.1-0.1-0.2-0.1-0.2
			c-0.1,0-0.1-0.1-0.2-0.1c-0.1,0-0.2,0-0.3,0.1l-0.1-0.2l1.3-0.5h0.2V165.8z M269.4,166.1v2.7c0.2,0.2,0.3,0.3,0.5,0.4
			s0.4,0.1,0.5,0.1c0.3,0,0.6-0.2,0.8-0.5c0.3-0.3,0.4-0.8,0.4-1.4c0-0.6-0.1-1-0.4-1.3c-0.3-0.3-0.5-0.5-0.9-0.5
			c-0.2,0-0.3,0-0.5,0.1C269.8,165.7,269.6,165.9,269.4,166.1z"/>
		<path d="M274.5,164.9v1c0.4-0.7,0.8-1,1.1-1c0.2,0,0.3,0.1,0.4,0.2c0.1,0.1,0.2,0.2,0.2,0.4c0,0.1,0,0.2-0.1,0.3
			c-0.1,0.1-0.2,0.1-0.3,0.1c-0.1,0-0.2-0.1-0.4-0.2s-0.2-0.2-0.3-0.2c-0.1,0-0.1,0-0.2,0.1c-0.1,0.1-0.3,0.4-0.5,0.7v2.1
			c0,0.2,0,0.4,0.1,0.6c0,0.1,0.1,0.2,0.2,0.2c0.1,0.1,0.3,0.1,0.5,0.1v0.2H273v-0.2c0.2,0,0.4,0,0.5-0.1c0.1-0.1,0.1-0.1,0.2-0.2
			c0-0.1,0-0.2,0-0.5v-1.7c0-0.5,0-0.8,0-0.9c0-0.1-0.1-0.2-0.1-0.2c-0.1,0-0.1-0.1-0.2-0.1c-0.1,0-0.2,0-0.3,0.1l0-0.2l1.3-0.5
			H274.5z"/>
		<path d="M279,168.8c-0.5,0.4-0.7,0.6-0.9,0.6c-0.2,0.1-0.4,0.1-0.6,0.1c-0.3,0-0.6-0.1-0.8-0.3s-0.3-0.5-0.3-0.8
			c0-0.2,0-0.4,0.1-0.6c0.1-0.2,0.4-0.4,0.7-0.6s0.9-0.4,1.6-0.7v-0.2c0-0.4-0.1-0.7-0.2-0.9c-0.1-0.2-0.3-0.2-0.6-0.2
			c-0.2,0-0.4,0.1-0.5,0.2c-0.1,0.1-0.2,0.2-0.2,0.4l0,0.3c0,0.1,0,0.3-0.1,0.3s-0.2,0.1-0.3,0.1c-0.1,0-0.2,0-0.3-0.1
			s-0.1-0.2-0.1-0.3c0-0.3,0.1-0.5,0.4-0.8s0.7-0.3,1.2-0.3c0.4,0,0.7,0.1,1,0.2c0.2,0.1,0.3,0.3,0.4,0.5c0.1,0.1,0.1,0.4,0.1,0.9
			v1.5c0,0.4,0,0.7,0,0.8s0,0.2,0.1,0.2c0,0,0.1,0,0.1,0c0.1,0,0.1,0,0.1,0c0.1,0,0.2-0.2,0.4-0.4v0.3c-0.4,0.5-0.7,0.7-1,0.7
			c-0.2,0-0.3-0.1-0.4-0.2C279.1,169.3,279,169.1,279,168.8z M279,168.5v-1.7c-0.5,0.2-0.8,0.3-0.9,0.4c-0.3,0.1-0.4,0.3-0.5,0.4
			c-0.1,0.2-0.2,0.3-0.2,0.5c0,0.2,0.1,0.4,0.2,0.6c0.1,0.2,0.3,0.2,0.5,0.2C278.3,169,278.6,168.8,279,168.5z"/>
		<path d="M282.2,165.8c0.5-0.6,1-0.9,1.5-0.9c0.2,0,0.5,0.1,0.6,0.2c0.2,0.1,0.3,0.3,0.4,0.6c0.1,0.2,0.1,0.5,0.1,0.9v1.9
			c0,0.3,0,0.5,0.1,0.6c0,0.1,0.1,0.1,0.2,0.2c0.1,0,0.2,0.1,0.4,0.1v0.2h-2.2v-0.2h0.1c0.2,0,0.4,0,0.4-0.1
			c0.1-0.1,0.1-0.2,0.2-0.3c0,0,0-0.2,0-0.5v-1.8c0-0.4-0.1-0.7-0.2-0.9c-0.1-0.2-0.3-0.3-0.5-0.3c-0.4,0-0.8,0.2-1.2,0.6v2.3
			c0,0.3,0,0.5,0.1,0.6c0,0.1,0.1,0.2,0.2,0.2c0.1,0,0.2,0.1,0.5,0.1v0.2h-2.2v-0.2h0.1c0.2,0,0.4-0.1,0.5-0.2
			c0.1-0.1,0.1-0.3,0.1-0.7v-1.7c0-0.5,0-0.9,0-1c0-0.1-0.1-0.2-0.1-0.2c-0.1,0-0.1-0.1-0.2-0.1c-0.1,0-0.2,0-0.3,0.1l-0.1-0.2
			l1.3-0.5h0.2V165.8z"/>
		<path d="M287.2,165.8c0.5-0.6,1-0.9,1.5-0.9c0.2,0,0.5,0.1,0.6,0.2c0.2,0.1,0.3,0.3,0.4,0.6c0.1,0.2,0.1,0.5,0.1,0.9v1.9
			c0,0.3,0,0.5,0.1,0.6c0,0.1,0.1,0.1,0.2,0.2c0.1,0,0.2,0.1,0.4,0.1v0.2h-2.2v-0.2h0.1c0.2,0,0.4,0,0.4-0.1
			c0.1-0.1,0.1-0.2,0.2-0.3c0,0,0-0.2,0-0.5v-1.8c0-0.4-0.1-0.7-0.2-0.9c-0.1-0.2-0.3-0.3-0.5-0.3c-0.4,0-0.8,0.2-1.2,0.6v2.3
			c0,0.3,0,0.5,0.1,0.6c0,0.1,0.1,0.2,0.2,0.2c0.1,0,0.2,0.1,0.5,0.1v0.2h-2.2v-0.2h0.1c0.2,0,0.4-0.1,0.5-0.2
			c0.1-0.1,0.1-0.3,0.1-0.7v-1.7c0-0.5,0-0.9,0-1c0-0.1-0.1-0.2-0.1-0.2c-0.1,0-0.1-0.1-0.2-0.1c-0.1,0-0.2,0-0.3,0.1l-0.1-0.2
			l1.3-0.5h0.2V165.8z"/>
		<path d="M292.4,164.9v3.6c0,0.3,0,0.5,0.1,0.6c0,0.1,0.1,0.2,0.2,0.2c0.1,0,0.2,0.1,0.4,0.1v0.2h-2.2v-0.2c0.2,0,0.4,0,0.4-0.1
			c0.1,0,0.1-0.1,0.2-0.2c0-0.1,0.1-0.3,0.1-0.6v-1.7c0-0.5,0-0.8,0-0.9c0-0.1-0.1-0.2-0.1-0.2c0,0-0.1-0.1-0.2-0.1
			c-0.1,0-0.2,0-0.3,0.1l-0.1-0.2l1.3-0.5H292.4z M292,162.5c0.1,0,0.3,0,0.3,0.1s0.1,0.2,0.1,0.3c0,0.1,0,0.3-0.1,0.4
			s-0.2,0.1-0.3,0.1c-0.1,0-0.3,0-0.3-0.1c-0.1-0.1-0.1-0.2-0.1-0.4c0-0.1,0-0.3,0.1-0.3S291.9,162.5,292,162.5z"/>
		<path d="M294.9,165.8c0.5-0.6,1-0.9,1.5-0.9c0.2,0,0.5,0.1,0.6,0.2c0.2,0.1,0.3,0.3,0.4,0.6c0.1,0.2,0.1,0.5,0.1,0.9v1.9
			c0,0.3,0,0.5,0.1,0.6c0,0.1,0.1,0.1,0.2,0.2c0.1,0,0.2,0.1,0.4,0.1v0.2h-2.2v-0.2h0.1c0.2,0,0.4,0,0.4-0.1
			c0.1-0.1,0.1-0.2,0.2-0.3c0,0,0-0.2,0-0.5v-1.8c0-0.4-0.1-0.7-0.2-0.9c-0.1-0.2-0.3-0.3-0.5-0.3c-0.4,0-0.8,0.2-1.2,0.6v2.3
			c0,0.3,0,0.5,0.1,0.6c0,0.1,0.1,0.2,0.2,0.2c0.1,0,0.2,0.1,0.5,0.1v0.2h-2.2v-0.2h0.1c0.2,0,0.4-0.1,0.5-0.2
			c0.1-0.1,0.1-0.3,0.1-0.7v-1.7c0-0.5,0-0.9,0-1c0-0.1-0.1-0.2-0.1-0.2c-0.1,0-0.1-0.1-0.2-0.1c-0.1,0-0.2,0-0.3,0.1l-0.1-0.2
			l1.3-0.5h0.2V165.8z"/>
		<path d="M299.8,167.8c-0.3-0.1-0.5-0.3-0.6-0.6c-0.1-0.2-0.2-0.5-0.2-0.8c0-0.4,0.2-0.8,0.5-1.1c0.3-0.3,0.8-0.5,1.3-0.5
			c0.4,0,0.8,0.1,1.1,0.3h0.9c0.1,0,0.2,0,0.2,0c0,0,0,0,0,0c0,0,0,0.1,0,0.2c0,0.1,0,0.1,0,0.2c0,0,0,0-0.1,0s-0.1,0-0.2,0h-0.6
			c0.2,0.2,0.3,0.5,0.3,0.9c0,0.4-0.2,0.8-0.5,1.1c-0.3,0.3-0.7,0.4-1.3,0.4c-0.2,0-0.4,0-0.7-0.1c-0.1,0.1-0.2,0.2-0.3,0.3
			c-0.1,0.1-0.1,0.2-0.1,0.2c0,0.1,0,0.1,0.1,0.2c0.1,0.1,0.2,0.1,0.3,0.1c0.1,0,0.3,0,0.7,0c0.7,0,1.1,0,1.3,0.1
			c0.3,0,0.5,0.2,0.7,0.3s0.3,0.4,0.3,0.7c0,0.4-0.2,0.7-0.5,1c-0.5,0.5-1.2,0.7-2,0.7c-0.6,0-1.2-0.1-1.6-0.4
			c-0.2-0.2-0.4-0.3-0.4-0.5c0-0.1,0-0.2,0.1-0.2c0.1-0.1,0.2-0.3,0.3-0.5c0,0,0.2-0.2,0.5-0.5c-0.2-0.1-0.3-0.2-0.4-0.3
			c-0.1-0.1-0.1-0.2-0.1-0.3c0-0.1,0-0.2,0.1-0.4S299.5,168.1,299.8,167.8z M299.8,169.4c-0.2,0.2-0.3,0.3-0.3,0.5
			c-0.1,0.1-0.1,0.3-0.1,0.4c0,0.2,0.1,0.3,0.3,0.4c0.3,0.2,0.8,0.3,1.4,0.3c0.6,0,1-0.1,1.3-0.3s0.4-0.4,0.4-0.7
			c0-0.2-0.1-0.3-0.2-0.4c-0.2-0.1-0.5-0.1-1-0.1C300.7,169.5,300.2,169.5,299.8,169.4z M300.7,165.1c-0.2,0-0.4,0.1-0.6,0.3
			s-0.2,0.5-0.2,0.9c0,0.5,0.1,0.9,0.3,1.2c0.2,0.2,0.4,0.3,0.6,0.3c0.2,0,0.4-0.1,0.6-0.3c0.2-0.2,0.2-0.5,0.2-0.9
			c0-0.5-0.1-0.9-0.3-1.2C301.1,165.2,300.9,165.1,300.7,165.1z"/>
	</g>
	<line class="st1" x1="351.7" y1="149.8" x2="351.7" y2="17.2"/>
	<path class="st0" d="M351.7,182.9v-33.1 M56.3,216h348v-33.1h-348V216z"/>
	<line class="st1" x1="86.9" y1="149.8" x2="86.9" y2="17.2"/>
	<line class="st0" x1="86.9" y1="216" x2="86.9" y2="182.9"/>
	<g>
		<path d="M94.9,198.9c0.3-0.3,0.5-0.5,0.6-0.6c0.1-0.1,0.3-0.2,0.5-0.3c0.2-0.1,0.3-0.1,0.5-0.1c0.3,0,0.5,0.1,0.7,0.2
			s0.3,0.4,0.4,0.7c0.3-0.4,0.6-0.6,0.8-0.8c0.2-0.1,0.5-0.2,0.7-0.2c0.2,0,0.4,0.1,0.6,0.2c0.2,0.1,0.3,0.3,0.4,0.6
			c0.1,0.2,0.1,0.5,0.1,0.9v1.9c0,0.3,0,0.5,0.1,0.6c0,0.1,0.1,0.1,0.2,0.2c0.1,0,0.2,0.1,0.4,0.1v0.2h-2.2v-0.2h0.1
			c0.2,0,0.3,0,0.4-0.1c0.1-0.1,0.1-0.1,0.2-0.2c0-0.1,0-0.2,0-0.5v-1.9c0-0.4,0-0.6-0.1-0.8c-0.1-0.2-0.3-0.3-0.6-0.3
			c-0.2,0-0.3,0-0.5,0.1c-0.2,0.1-0.4,0.2-0.6,0.5l0,0.1l0,0.2v2.1c0,0.3,0,0.5,0.1,0.6c0,0.1,0.1,0.1,0.2,0.2
			c0.1,0,0.3,0.1,0.5,0.1v0.2h-2.3v-0.2c0.2,0,0.4,0,0.5-0.1c0.1-0.1,0.2-0.1,0.2-0.3c0-0.1,0-0.2,0-0.5v-1.9c0-0.4-0.1-0.6-0.2-0.8
			c-0.1-0.2-0.3-0.3-0.6-0.3c-0.2,0-0.3,0-0.5,0.1c-0.3,0.1-0.5,0.3-0.6,0.5v2.4c0,0.3,0,0.5,0.1,0.6c0,0.1,0.1,0.2,0.2,0.2
			c0.1,0,0.2,0.1,0.5,0.1v0.2h-2.2v-0.2c0.2,0,0.3,0,0.4-0.1c0.1,0,0.1-0.1,0.2-0.2c0-0.1,0.1-0.3,0.1-0.6v-1.7c0-0.5,0-0.8,0-0.9
			c0-0.1-0.1-0.2-0.1-0.2c0,0-0.1-0.1-0.2-0.1c-0.1,0-0.2,0-0.3,0.1l-0.1-0.2l1.3-0.5h0.2V198.9z"/>
	</g>
	<line class="st1" x1="107.6" y1="149.8" x2="107.6" y2="17.2"/>
	<line class="st0" x1="107.6" y1="216" x2="107.6" y2="182.9"/>
	<g>
		<path d="M113.6,202.1l-1.4,0.6H112V202c-0.4,0.4-0.9,0.7-1.4,0.7c-0.5,0-1-0.2-1.3-0.7s-0.6-1-0.6-1.6c0-0.7,0.2-1.3,0.6-1.8
			c0.4-0.6,1-0.9,1.7-0.9c0.4,0,0.7,0.1,1,0.4l0.7-0.4h0.2v2.9c0,0.5,0,0.8,0,1c0,0.1,0.1,0.2,0.1,0.3c0.1,0.1,0.3,0.1,0.6,0
			L113.6,202.1z M112,201.7v-2.4c0-0.3-0.1-0.5-0.3-0.8c-0.2-0.3-0.5-0.4-0.8-0.4c-0.4,0-0.6,0.2-0.9,0.5c-0.2,0.4-0.4,0.8-0.4,1.4
			c0,0.7,0.2,1.2,0.5,1.6c0.3,0.3,0.6,0.5,1,0.5C111.4,202.1,111.7,202,112,201.7z"/>
	</g>
	<line class="st1" x1="114.6" y1="149.8" x2="114.6" y2="17.2"/>
	<line class="st0" x1="114.6" y1="216" x2="114.6" y2="182.9"/>
	<g>
		<path d="M132.1,202.6H130v-0.2h0.1c0.3,0,0.5-0.1,0.5-0.3c0-0.1-0.1-0.3-0.2-0.5l-1.1-2.3l-1,2.6c-0.1,0.2-0.1,0.4-0.1,0.5
			c0.1,0.1,0.2,0.1,0.4,0.1v0.2h-1.5v-0.2c0.2,0,0.3-0.1,0.4-0.1c0.1-0.1,0.2-0.3,0.3-0.6l1.9-4.6c0.2-0.4,0.4-0.8,0.7-1
			c0.3-0.2,0.6-0.4,0.9-0.4c0.2,0,0.4,0.1,0.5,0.2c0.1,0.1,0.2,0.2,0.2,0.4c0,0.3-0.2,0.5-0.5,0.5c-0.1,0-0.2,0-0.4-0.1
			c-0.2-0.1-0.3-0.1-0.3-0.1c-0.3,0-0.5,0.3-0.7,0.8l-0.3,0.8l1.7,3.5c0.1,0.2,0.2,0.4,0.3,0.5c0.2,0.2,0.3,0.3,0.6,0.3V202.6z"/>
	</g>
	<line class="st1" x1="144.9" y1="149.8" x2="144.9" y2="17.2"/>
	<line class="st0" x1="144.9" y1="216" x2="144.9" y2="182.9"/>
	<g>
		<path d="M151,198v3.6c0,0.3,0,0.5,0.1,0.6c0,0.1,0.1,0.2,0.2,0.2c0.1,0,0.2,0.1,0.4,0.1v0.2h-2.2v-0.2c0.2,0,0.4,0,0.4-0.1
			c0.1,0,0.1-0.1,0.2-0.2c0-0.1,0.1-0.3,0.1-0.6v-1.7c0-0.5,0-0.8,0-0.9c0-0.1-0.1-0.2-0.1-0.2c0,0-0.1-0.1-0.2-0.1
			c-0.1,0-0.2,0-0.3,0.1l-0.1-0.2l1.3-0.5H151z M150.6,195.6c0.1,0,0.3,0,0.3,0.1s0.1,0.2,0.1,0.3c0,0.1,0,0.3-0.1,0.4
			s-0.2,0.1-0.3,0.1s-0.3,0-0.4-0.1s-0.1-0.2-0.1-0.4c0-0.1,0-0.3,0.1-0.3S150.5,195.6,150.6,195.6z"/>
	</g>
	<line class="st1" x1="156.5" y1="149.8" x2="156.5" y2="17.2"/>
	<line class="st0" x1="156.5" y1="216" x2="156.5" y2="182.9"/>
	<g>
		<path d="M165.5,201.2l-0.1,1.4h-3.9v-0.2l3-3.9H163c-0.3,0-0.5,0-0.6,0.1c-0.1,0-0.2,0.1-0.2,0.2c-0.1,0.2-0.1,0.4-0.2,0.6h-0.2
			l0-1.2h3.7v0.2l-3,3.9h1.6c0.3,0,0.6,0,0.7-0.1s0.2-0.2,0.3-0.3c0.1-0.1,0.1-0.3,0.1-0.7H165.5z"/>
	</g>
	<line class="st1" x1="170.8" y1="149.8" x2="170.8" y2="17.2"/>
	<line class="st0" x1="170.8" y1="216" x2="170.8" y2="182.9"/>
	<g>
		<path d="M176.8,198.4v2.9c0,0.4,0,0.7,0.1,0.8c0.1,0.1,0.3,0.2,0.5,0.2h0.4v0.2h-2.7v-0.2h0.2c0.1,0,0.2,0,0.4-0.1
			c0.1-0.1,0.2-0.2,0.2-0.3s0.1-0.3,0.1-0.6v-2.9h-0.9v-0.4h0.9v-0.3c0-0.4,0.1-0.8,0.2-1.1c0.1-0.3,0.4-0.6,0.7-0.7
			c0.3-0.2,0.6-0.3,1-0.3c0.3,0,0.7,0.1,0.9,0.3c0.2,0.1,0.3,0.3,0.3,0.5c0,0.1,0,0.2-0.1,0.3c-0.1,0.1-0.2,0.1-0.3,0.1
			c-0.1,0-0.2,0-0.2-0.1c-0.1-0.1-0.2-0.2-0.3-0.3s-0.2-0.3-0.3-0.4s-0.2-0.1-0.3-0.1c-0.1,0-0.3,0-0.4,0.1
			c-0.1,0.1-0.2,0.2-0.2,0.4c0,0.2-0.1,0.6-0.1,1.3v0.3h1.1v0.4H176.8z"/>
	</g>
	<line class="st1" x1="182.2" y1="149.8" x2="182.2" y2="17.2"/>
	<line class="st0" x1="182.2" y1="216" x2="182.2" y2="182.9"/>
	<g>
		<path d="M187.4,202.1l-1.4,0.6h-0.2v-1c-0.4,0.7-0.8,1-1.2,1c-0.2,0-0.3-0.1-0.5-0.2c-0.1-0.1-0.2-0.2-0.2-0.4
			c0-0.1,0-0.2,0.1-0.3c0.1-0.1,0.2-0.1,0.3-0.1c0.1,0,0.3,0.1,0.4,0.2c0.1,0.1,0.2,0.2,0.3,0.2c0.2,0,0.4-0.3,0.7-0.8V199
			c0-0.3-0.1-0.5-0.2-0.7c-0.1-0.2-0.3-0.2-0.7-0.2v-0.2h2.4v0.2c-0.3,0-0.5,0-0.6,0.1c-0.1,0.1-0.1,0.3-0.1,0.7v1.8
			c0,0.7,0,1.1,0.1,1.2c0.2,0.1,0.4,0.1,0.6,0L187.4,202.1z"/>
	</g>
	<line class="st1" x1="189.2" y1="149.8" x2="189.2" y2="17.2"/>
	<line class="st0" x1="189.2" y1="216" x2="189.2" y2="182.9"/>
	<g>
		<path d="M196.8,199c0,0.4-0.2,0.7-0.5,1c-0.4,0.3-1.1,0.7-2.1,1v0.2c0,0.4,0.1,0.7,0.2,0.9s0.4,0.3,0.7,0.3c0.2,0,0.4-0.1,0.5-0.2
			c0.1-0.1,0.2-0.2,0.2-0.4v-0.3c0-0.3,0.1-0.5,0.4-0.5c0.3,0,0.4,0.2,0.4,0.5c0,0.4-0.2,0.6-0.5,0.8c-0.3,0.2-0.7,0.3-1.2,0.3
			c-0.6,0-1.1-0.1-1.3-0.4c-0.2-0.2-0.3-0.6-0.3-1.1v-1.6c0-0.4,0-0.7,0-0.8c0-0.2-0.1-0.2-0.2-0.2c-0.1,0-0.3,0.1-0.5,0.4v-0.3
			c0.4-0.5,0.7-0.8,1.1-0.8c0.4,0,0.5,0.3,0.5,0.8c0.4-0.3,0.7-0.5,0.9-0.6c0.2-0.1,0.4-0.1,0.6-0.1c0.3,0,0.6,0.1,0.8,0.3
			S196.8,198.6,196.8,199z M195.9,199.2c0-0.2-0.1-0.4-0.2-0.6c-0.1-0.2-0.3-0.2-0.5-0.2c-0.3,0-0.6,0.2-1,0.5v1.8
			c0.7-0.3,1.2-0.5,1.5-0.8C195.8,199.7,195.9,199.5,195.9,199.2z"/>
	</g>
	<line class="st1" x1="200.8" y1="149.8" x2="200.8" y2="17.2"/>
	<line class="st0" x1="200.8" y1="216" x2="200.8" y2="182.9"/>
	<g>
		<path d="M207.8,198.9c0.3-0.3,0.5-0.5,0.6-0.6c0.1-0.1,0.3-0.2,0.5-0.3c0.2-0.1,0.3-0.1,0.5-0.1c0.3,0,0.5,0.1,0.7,0.2
			s0.3,0.4,0.4,0.7c0.3-0.4,0.6-0.6,0.8-0.8c0.2-0.1,0.5-0.2,0.7-0.2c0.2,0,0.4,0.1,0.6,0.2c0.2,0.1,0.3,0.3,0.4,0.6
			c0.1,0.2,0.1,0.5,0.1,0.9v1.9c0,0.3,0,0.5,0.1,0.6c0,0.1,0.1,0.1,0.2,0.2c0.1,0,0.2,0.1,0.4,0.1v0.2h-2.2v-0.2h0.1
			c0.2,0,0.3,0,0.4-0.1c0.1-0.1,0.1-0.1,0.2-0.2c0-0.1,0-0.2,0-0.5v-1.9c0-0.4,0-0.6-0.1-0.8c-0.1-0.2-0.3-0.3-0.6-0.3
			c-0.2,0-0.3,0-0.5,0.1c-0.2,0.1-0.4,0.2-0.6,0.5l0,0.1l0,0.2v2.1c0,0.3,0,0.5,0.1,0.6c0,0.1,0.1,0.1,0.2,0.2
			c0.1,0,0.3,0.1,0.5,0.1v0.2H209v-0.2c0.2,0,0.4,0,0.5-0.1c0.1-0.1,0.2-0.1,0.2-0.3c0-0.1,0-0.2,0-0.5v-1.9c0-0.4-0.1-0.6-0.2-0.8
			c-0.1-0.2-0.3-0.3-0.6-0.3c-0.2,0-0.3,0-0.5,0.1c-0.3,0.1-0.5,0.3-0.6,0.5v2.4c0,0.3,0,0.5,0.1,0.6c0,0.1,0.1,0.2,0.2,0.2
			c0.1,0,0.2,0.1,0.5,0.1v0.2h-2.2v-0.2c0.2,0,0.3,0,0.4-0.1c0.1,0,0.1-0.1,0.2-0.2c0-0.1,0.1-0.3,0.1-0.6v-1.7c0-0.5,0-0.8,0-0.9
			c0-0.1-0.1-0.2-0.1-0.2c0,0-0.1-0.1-0.2-0.1c-0.1,0-0.2,0-0.3,0.1l-0.1-0.2l1.3-0.5h0.2V198.9z"/>
	</g>
	<line class="st1" x1="219.7" y1="149.8" x2="219.7" y2="17.2"/>
	<line class="st0" x1="219.7" y1="216" x2="219.7" y2="182.9"/>
	<g>
		<path d="M223.8,198.9c0.4-0.6,0.9-0.9,1.4-0.9c0.5,0,0.9,0.2,1.2,0.6s0.5,0.9,0.5,1.6c0,0.8-0.3,1.4-0.8,1.9
			c-0.5,0.4-1,0.6-1.5,0.6c-0.3,0-0.5,0-0.8-0.1s-0.5-0.2-0.8-0.4v-4.6c0-0.5,0-0.8,0-0.9c0-0.1-0.1-0.2-0.1-0.2
			c-0.1,0-0.1-0.1-0.2-0.1c-0.1,0-0.2,0-0.3,0.1l-0.1-0.2l1.3-0.5h0.2V198.9z M223.8,199.2v2.7c0.2,0.2,0.3,0.3,0.5,0.4
			s0.4,0.1,0.5,0.1c0.3,0,0.6-0.2,0.8-0.5c0.3-0.3,0.4-0.8,0.4-1.4c0-0.6-0.1-1-0.4-1.3c-0.3-0.3-0.5-0.5-0.9-0.5
			c-0.2,0-0.3,0-0.5,0.1C224.2,198.9,224,199,223.8,199.2z"/>
	</g>
	<line class="st1" x1="230.1" y1="149.8" x2="230.1" y2="17.2"/>
	<line class="st0" x1="230.1" y1="216" x2="230.1" y2="182.9"/>
	<g>
		<path d="M240.4,202.1l-1.4,0.6h-0.2v-1c-0.4,0.7-0.8,1-1.2,1c-0.2,0-0.3-0.1-0.5-0.2c-0.1-0.1-0.2-0.2-0.2-0.4
			c0-0.1,0-0.2,0.1-0.3c0.1-0.1,0.2-0.1,0.3-0.1s0.3,0.1,0.4,0.2c0.1,0.1,0.2,0.2,0.3,0.2c0.2,0,0.4-0.3,0.7-0.8V199
			c0-0.3-0.1-0.5-0.2-0.7c-0.1-0.2-0.3-0.2-0.7-0.2v-0.2h2.4v0.2c-0.3,0-0.5,0-0.6,0.1c-0.1,0.1-0.1,0.3-0.1,0.7v1.8
			c0,0.7,0,1.1,0.1,1.2c0.2,0.1,0.4,0.1,0.6,0L240.4,202.1z"/>
	</g>
	<line class="st1" x1="247.5" y1="149.8" x2="247.5" y2="17.2"/>
	<line class="st0" x1="247.5" y1="216" x2="247.5" y2="182.9"/>
	<g>
		<path d="M270,199.8c0,0.2,0,0.3,0,0.4c0,0.7,0.1,1.1,0.4,1.4s0.5,0.4,0.9,0.4c0.3,0,0.6-0.1,0.9-0.3c0.2-0.1,0.3-0.4,0.5-0.8
			l0.2,0.1c-0.1,0.5-0.4,1-0.8,1.3c-0.3,0.3-0.6,0.4-1,0.4c-0.3,0-0.6-0.1-0.9-0.2c-0.1-0.1-0.3-0.3-0.5-0.5c0,0-0.1,0.1-0.3,0.2
			c-0.2,0.2-0.3,0.2-0.4,0.3c-0.2,0.1-0.3,0.2-0.5,0.2s-0.3,0.1-0.5,0.1c-0.3,0-0.6-0.1-0.8-0.3c-0.2-0.2-0.3-0.5-0.3-0.8
			c0-0.3,0.1-0.5,0.2-0.7c0.1-0.2,0.4-0.4,0.8-0.6c0.5-0.3,1-0.5,1.3-0.6v-0.4c0-0.4-0.1-0.6-0.2-0.7c-0.1-0.1-0.3-0.2-0.5-0.2
			c-0.2,0-0.4,0.1-0.5,0.2c-0.1,0.1-0.2,0.2-0.2,0.4c0,0.3,0,0.4,0,0.5s-0.1,0.1-0.1,0.2s-0.1,0.1-0.2,0.1c-0.1,0-0.2,0-0.3-0.1
			c-0.1-0.1-0.1-0.2-0.1-0.4c0-0.2,0.1-0.3,0.2-0.5c0.1-0.2,0.3-0.3,0.6-0.4c0.3-0.1,0.6-0.2,0.9-0.2c0.4,0,0.7,0.1,0.9,0.2
			c0.2,0.1,0.3,0.3,0.4,0.4c0.2-0.2,0.3-0.3,0.5-0.4c0.2-0.1,0.5-0.2,0.8-0.2c0.5,0,0.8,0.2,1.1,0.5c0.3,0.3,0.4,0.8,0.4,1.4H270z
			 M269.4,201.7c-0.1-0.1-0.1-0.3-0.2-0.6c0-0.2-0.1-0.5-0.1-0.7V200c-0.4,0.1-0.8,0.3-1.2,0.6c-0.2,0.2-0.4,0.4-0.4,0.7
			c0,0.3,0.1,0.5,0.2,0.6c0.2,0.2,0.3,0.2,0.6,0.2c0.1,0,0.3,0,0.4-0.1C268.9,202,269.1,201.9,269.4,201.7z M270,199.5h1.8
			c0-0.4-0.1-0.7-0.3-0.9s-0.4-0.3-0.6-0.3c-0.3,0-0.5,0.1-0.7,0.3C270.1,198.8,270,199.1,270,199.5z"/>
	</g>
	<line class="st1" x1="292.2" y1="149.8" x2="292.2" y2="17.2"/>
	<line class="st0" x1="292.2" y1="216" x2="292.2" y2="182.9"/>
	<g>
		<path d="M294.8,198.9c0.5-0.6,1-0.9,1.5-0.9c0.2,0,0.5,0.1,0.6,0.2c0.2,0.1,0.3,0.3,0.4,0.6c0.1,0.2,0.1,0.5,0.1,0.9v1.9
			c0,0.3,0,0.5,0.1,0.6c0,0.1,0.1,0.1,0.2,0.2c0.1,0,0.2,0.1,0.4,0.1v0.2h-2.2v-0.2h0.1c0.2,0,0.4,0,0.4-0.1
			c0.1-0.1,0.1-0.2,0.2-0.3c0,0,0-0.2,0-0.5v-1.8c0-0.4-0.1-0.7-0.2-0.9c-0.1-0.2-0.3-0.3-0.5-0.3c-0.4,0-0.8,0.2-1.2,0.6v2.3
			c0,0.3,0,0.5,0.1,0.6c0,0.1,0.1,0.2,0.2,0.2c0.1,0,0.2,0.1,0.5,0.1v0.2h-2.2v-0.2h0.1c0.2,0,0.4-0.1,0.5-0.2
			c0.1-0.1,0.1-0.3,0.1-0.7v-1.7c0-0.5,0-0.9,0-1c0-0.1-0.1-0.2-0.1-0.2c-0.1,0-0.1-0.1-0.2-0.1c-0.1,0-0.2,0-0.3,0.1l-0.1-0.2
			l1.3-0.5h0.2V198.9z"/>
	</g>
	<line class="st1" x1="299.4" y1="149.8" x2="299.4" y2="17.2"/>
	<line class="st0" x1="299.4" y1="216" x2="299.4" y2="182.9"/>
	<g>
		<path d="M313,202.6h-2.3v-0.2c0.3,0,0.5-0.1,0.6-0.2c0.1-0.1,0.1-0.3,0.1-0.7V199c0-0.4,0-0.6-0.1-0.7c-0.1-0.1-0.3-0.2-0.6-0.2
			v-0.2h2.3v0.2c-0.3,0-0.5,0.1-0.6,0.2c-0.1,0.1-0.1,0.4-0.1,0.7v2.5c0,0.4,0,0.6,0.1,0.7c0.1,0.1,0.3,0.2,0.6,0.2V202.6z"/>
	</g>
	<line class="st1" x1="324.3" y1="149.8" x2="324.3" y2="17.2"/>
	<line class="st0" x1="324.3" y1="216" x2="324.3" y2="182.9"/>
	<g>
		<path d="M339.9,202.4c0,0.8-0.2,1.4-0.5,1.8c-0.3,0.4-0.8,0.6-1.3,0.6c-0.3,0-0.5-0.1-0.7-0.2c-0.1-0.1-0.2-0.2-0.2-0.3
			c0-0.1,0-0.2,0.1-0.3c0.1-0.1,0.2-0.1,0.3-0.1c0.2,0,0.4,0.1,0.6,0.3c0.1,0.1,0.3,0.2,0.4,0.2c0.2,0,0.4-0.1,0.4-0.4
			c0-0.2,0.1-0.5,0.1-0.9v-3.4c0-0.4-0.1-0.7-0.2-0.9c-0.1-0.2-0.3-0.3-0.6-0.3c-0.4,0-0.8,0.2-1.2,0.7v2.4c0,0.3,0,0.6,0.1,0.7
			c0.1,0.1,0.3,0.2,0.7,0.2v0.2h-2.3v-0.2c0.3,0,0.5-0.1,0.6-0.2s0.1-0.3,0.1-0.7v-1.7c0-0.8,0-1.2-0.1-1.3c-0.1-0.1-0.3-0.1-0.5,0
			l-0.1-0.2l1.4-0.6h0.2v1c0.5-0.6,1.1-1,1.6-1c0.8,0,1.2,0.6,1.2,1.7V202.4z"/>
	</g>
	<line class="st1" x1="351.7" y1="149.8" x2="351.7" y2="17.2"/>
	<path class="st0" d="M351.7,216v-33.1 M56.3,249.2h348V216h-348V249.2z"/>
	<line class="st1" x1="219.7" y1="149.8" x2="219.7" y2="17.2"/>
	<line class="st0" x1="219.7" y1="249.2" x2="219.7" y2="216"/>
	<g>
		<path d="M254.5,229.7l1.6-0.8h0.2v5.6c0,0.4,0,0.6,0,0.7c0,0.1,0.1,0.2,0.2,0.2s0.3,0.1,0.6,0.1v0.2h-2.5v-0.2
			c0.3,0,0.5,0,0.6-0.1c0.1,0,0.2-0.1,0.2-0.2c0-0.1,0.1-0.3,0.1-0.7v-3.6c0-0.5,0-0.8,0-0.9c0-0.1-0.1-0.2-0.1-0.2
			c-0.1,0-0.1-0.1-0.2-0.1c-0.1,0-0.3,0.1-0.5,0.2L254.5,229.7z"/>
	</g>
	<line class="st1" x1="292.2" y1="149.8" x2="292.2" y2="17.2"/>
	<line class="st0" x1="292.2" y1="249.2" x2="292.2" y2="216"/>
	<g>
		<path d="M323.9,234.4l-0.5,1.3h-3.9v-0.2c1.1-1,2-1.9,2.4-2.6c0.5-0.7,0.7-1.3,0.7-1.8c0-0.4-0.1-0.8-0.4-1s-0.6-0.4-0.9-0.4
			c-0.3,0-0.6,0.1-0.9,0.3s-0.4,0.5-0.6,0.8h-0.2c0.1-0.6,0.3-1.1,0.6-1.4c0.3-0.3,0.8-0.5,1.3-0.5c0.5,0,1,0.2,1.3,0.5
			c0.4,0.3,0.5,0.7,0.5,1.2c0,0.3-0.1,0.7-0.2,1c-0.2,0.5-0.6,1.1-1.2,1.7c-0.8,0.9-1.3,1.4-1.5,1.6h1.7c0.3,0,0.6,0,0.7,0
			c0.1,0,0.3-0.1,0.4-0.2c0.1-0.1,0.2-0.2,0.3-0.3H323.9z"/>
	</g>
	<line class="st1" x1="351.7" y1="149.8" x2="351.7" y2="17.2"/>
	<line class="st0" x1="351.7" y1="249.2" x2="351.7" y2="216"/>
	<rect x="56.3" y="17.2" class="st2" width="348" height="232"/>
	<g>
		<path d="M47.4,150.4v0.7h-0.9v1.7h-0.8v-1.7h-2.8v-0.6l3.1-4.4h0.5v4.3H47.4z M45.7,150.4v-3.3l-2.3,3.3H45.7z"/>
		<path d="M48.1,149.6c0-0.8,0.1-1.4,0.3-1.9s0.5-0.9,0.9-1.2c0.3-0.2,0.6-0.3,0.9-0.3c0.5,0,1,0.3,1.4,0.8c0.5,0.6,0.8,1.5,0.8,2.6
			c0,0.8-0.1,1.4-0.3,2c-0.2,0.5-0.5,0.9-0.8,1.2c-0.3,0.2-0.7,0.4-1,0.4c-0.6,0-1.2-0.4-1.6-1.1C48.3,151.3,48.1,150.5,48.1,149.6z
			 M49.1,149.7c0,0.9,0.1,1.6,0.3,2.2c0.2,0.5,0.5,0.7,0.8,0.7c0.2,0,0.4-0.1,0.5-0.2s0.3-0.4,0.4-0.8c0.1-0.6,0.2-1.3,0.2-2.4
			c0-0.8-0.1-1.4-0.2-1.9c-0.1-0.4-0.3-0.6-0.5-0.8c-0.1-0.1-0.3-0.2-0.5-0.2c-0.2,0-0.4,0.1-0.6,0.3c-0.2,0.3-0.4,0.7-0.5,1.3
			S49.1,149.2,49.1,149.7z"/>
	</g>
	<line class="st2" x1="53.8" y1="149.8" x2="56.3" y2="149.8"/>
	<g>
		<path d="M42.4,19l-0.5,1.3h-3.9v-0.2c1.1-1,2-1.9,2.4-2.6c0.5-0.7,0.7-1.3,0.7-1.8c0-0.4-0.1-0.8-0.4-1c-0.3-0.3-0.6-0.4-0.9-0.4
			c-0.3,0-0.6,0.1-0.9,0.3c-0.3,0.2-0.4,0.5-0.6,0.8h-0.2c0.1-0.6,0.3-1.1,0.6-1.4c0.3-0.3,0.8-0.5,1.3-0.5c0.5,0,1,0.2,1.3,0.5
			s0.5,0.7,0.5,1.2c0,0.3-0.1,0.7-0.2,1c-0.2,0.5-0.6,1.1-1.2,1.7c-0.8,0.9-1.3,1.4-1.5,1.6h1.7c0.4,0,0.6,0,0.7,0
			c0.1,0,0.3-0.1,0.4-0.2c0.1-0.1,0.2-0.2,0.3-0.3H42.4z"/>
		<path d="M43.2,17c0-0.8,0.1-1.4,0.3-1.9s0.5-0.9,0.9-1.2c0.3-0.2,0.6-0.3,0.9-0.3c0.5,0,1,0.3,1.4,0.8c0.5,0.6,0.8,1.5,0.8,2.6
			c0,0.8-0.1,1.4-0.3,2c-0.2,0.5-0.5,0.9-0.8,1.2c-0.3,0.2-0.7,0.4-1,0.4c-0.6,0-1.2-0.4-1.6-1.1C43.4,18.7,43.2,17.9,43.2,17z
			 M44.1,17.1c0,0.9,0.1,1.6,0.3,2.2c0.2,0.5,0.5,0.7,0.8,0.7c0.2,0,0.4-0.1,0.5-0.2c0.2-0.2,0.3-0.4,0.4-0.8
			c0.1-0.6,0.2-1.3,0.2-2.4c0-0.8-0.1-1.4-0.2-1.9c-0.1-0.4-0.3-0.6-0.5-0.8c-0.1-0.1-0.3-0.2-0.5-0.2c-0.2,0-0.4,0.1-0.6,0.3
			c-0.2,0.3-0.4,0.7-0.5,1.3S44.1,16.6,44.1,17.1z"/>
		<path d="M48.2,17c0-0.8,0.1-1.4,0.3-1.9s0.5-0.9,0.9-1.2c0.3-0.2,0.6-0.3,0.9-0.3c0.5,0,1,0.3,1.4,0.8c0.5,0.6,0.8,1.5,0.8,2.6
			c0,0.8-0.1,1.4-0.3,2c-0.2,0.5-0.5,0.9-0.8,1.2c-0.3,0.2-0.7,0.4-1,0.4c-0.6,0-1.2-0.4-1.6-1.1C48.3,18.7,48.2,17.9,48.2,17z
			 M49.1,17.1c0,0.9,0.1,1.6,0.3,2.2c0.2,0.5,0.5,0.7,0.8,0.7c0.2,0,0.4-0.1,0.5-0.2c0.2-0.2,0.3-0.4,0.4-0.8
			c0.1-0.6,0.2-1.3,0.2-2.4c0-0.8-0.1-1.4-0.2-1.9c-0.1-0.4-0.3-0.6-0.5-0.8c-0.1-0.1-0.3-0.2-0.5-0.2c-0.2,0-0.4,0.1-0.6,0.3
			c-0.2,0.3-0.4,0.7-0.5,1.3S49.1,16.6,49.1,17.1z"/>
	</g>
	<line class="st2" x1="53.8" y1="17.2" x2="56.3" y2="17.2"/>
	<g>
		<path d="M39,97.1l1.6-0.8h0.2v5.6c0,0.4,0,0.6,0,0.7c0,0.1,0.1,0.2,0.2,0.2c0.1,0,0.3,0.1,0.6,0.1v0.2h-2.5v-0.2
			c0.3,0,0.5,0,0.6-0.1c0.1,0,0.2-0.1,0.2-0.2c0-0.1,0.1-0.3,0.1-0.7v-3.6c0-0.5,0-0.8,0-0.9c0-0.1-0.1-0.2-0.1-0.2
			c-0.1,0-0.1-0.1-0.2-0.1c-0.1,0-0.3,0.1-0.5,0.2L39,97.1z"/>
		<path d="M43.2,99.8c0-0.8,0.1-1.4,0.3-1.9s0.5-0.9,0.9-1.2c0.3-0.2,0.6-0.3,0.9-0.3c0.5,0,1,0.3,1.4,0.8c0.5,0.6,0.8,1.5,0.8,2.6
			c0,0.8-0.1,1.4-0.3,2c-0.2,0.5-0.5,0.9-0.8,1.2c-0.3,0.2-0.7,0.4-1,0.4c-0.6,0-1.2-0.4-1.6-1.1C43.4,101.4,43.2,100.7,43.2,99.8z
			 M44.1,99.9c0,0.9,0.1,1.6,0.3,2.2c0.2,0.5,0.5,0.7,0.8,0.7c0.2,0,0.4-0.1,0.5-0.2c0.2-0.2,0.3-0.4,0.4-0.8
			c0.1-0.6,0.2-1.3,0.2-2.4c0-0.8-0.1-1.4-0.2-1.9c-0.1-0.4-0.3-0.6-0.5-0.8c-0.1-0.1-0.3-0.2-0.5-0.2c-0.2,0-0.4,0.1-0.6,0.3
			c-0.2,0.3-0.4,0.7-0.5,1.3S44.1,99.4,44.1,99.9z"/>
		<path d="M48.2,99.8c0-0.8,0.1-1.4,0.3-1.9s0.5-0.9,0.9-1.2c0.3-0.2,0.6-0.3,0.9-0.3c0.5,0,1,0.3,1.4,0.8c0.5,0.6,0.8,1.5,0.8,2.6
			c0,0.8-0.1,1.4-0.3,2c-0.2,0.5-0.5,0.9-0.8,1.2c-0.3,0.2-0.7,0.4-1,0.4c-0.6,0-1.2-0.4-1.6-1.1C48.3,101.4,48.2,100.7,48.2,99.8z
			 M49.1,99.9c0,0.9,0.1,1.6,0.3,2.2c0.2,0.5,0.5,0.7,0.8,0.7c0.2,0,0.4-0.1,0.5-0.2c0.2-0.2,0.3-0.4,0.4-0.8
			c0.1-0.6,0.2-1.3,0.2-2.4c0-0.8-0.1-1.4-0.2-1.9c-0.1-0.4-0.3-0.6-0.5-0.8c-0.1-0.1-0.3-0.2-0.5-0.2c-0.2,0-0.4,0.1-0.6,0.3
			c-0.2,0.3-0.4,0.7-0.5,1.3S49.1,99.4,49.1,99.9z"/>
	</g>
	<line class="st2" x1="53.8" y1="100" x2="56.3" y2="100"/>
	<g>
		<path d="M39,55.7l1.6-0.8h0.2v5.6c0,0.4,0,0.6,0,0.7c0,0.1,0.1,0.2,0.2,0.2c0.1,0,0.3,0.1,0.6,0.1v0.2h-2.5v-0.2
			c0.3,0,0.5,0,0.6-0.1c0.1,0,0.2-0.1,0.2-0.2c0-0.1,0.1-0.3,0.1-0.7V57c0-0.5,0-0.8,0-0.9c0-0.1-0.1-0.2-0.1-0.2
			c-0.1,0-0.1-0.1-0.2-0.1c-0.1,0-0.3,0.1-0.5,0.2L39,55.7z"/>
		<path d="M47.1,55.1l-0.4,0.8h-2l-0.4,0.9c0.9,0.1,1.5,0.4,2,1c0.4,0.4,0.6,1,0.6,1.6c0,0.3-0.1,0.7-0.2,1
			c-0.1,0.3-0.3,0.5-0.5,0.8c-0.2,0.2-0.5,0.4-0.7,0.5c-0.4,0.2-0.8,0.3-1.1,0.3c-0.4,0-0.7-0.1-0.9-0.2c-0.2-0.1-0.3-0.3-0.3-0.4
			c0-0.1,0-0.2,0.1-0.2c0.1-0.1,0.2-0.1,0.3-0.1c0.1,0,0.2,0,0.2,0c0.1,0,0.2,0.1,0.3,0.2c0.2,0.2,0.5,0.3,0.7,0.3
			c0.4,0,0.7-0.1,1-0.4c0.3-0.3,0.4-0.6,0.4-1c0-0.4-0.1-0.8-0.4-1.1c-0.3-0.3-0.6-0.6-1.1-0.8c-0.4-0.1-0.8-0.2-1.4-0.3l1.3-2.6
			H47.1z"/>
		<path d="M48.2,58.4c0-0.8,0.1-1.4,0.3-1.9s0.5-0.9,0.9-1.2c0.3-0.2,0.6-0.3,0.9-0.3c0.5,0,1,0.3,1.4,0.8c0.5,0.6,0.8,1.5,0.8,2.6
			c0,0.8-0.1,1.4-0.3,2c-0.2,0.5-0.5,0.9-0.8,1.2c-0.3,0.2-0.7,0.4-1,0.4c-0.6,0-1.2-0.4-1.6-1.1C48.3,60.1,48.2,59.3,48.2,58.4z
			 M49.1,58.5c0,0.9,0.1,1.6,0.3,2.2c0.2,0.5,0.5,0.7,0.8,0.7c0.2,0,0.4-0.1,0.5-0.2c0.2-0.2,0.3-0.4,0.4-0.8
			c0.1-0.6,0.2-1.3,0.2-2.4c0-0.8-0.1-1.4-0.2-1.9c-0.1-0.4-0.3-0.6-0.5-0.8c-0.1-0.1-0.3-0.2-0.5-0.2c-0.2,0-0.4,0.1-0.6,0.3
			c-0.2,0.3-0.4,0.7-0.5,1.3S49.1,58,49.1,58.5z"/>
	</g>
	<line class="st2" x1="53.8" y1="58.6" x2="56.3" y2="58.6"/>
	<g>
		<path d="M21.2,151.8h1.9c0.4,0,0.7,0,0.8-0.1c0.1-0.1,0.2-0.3,0.2-0.6v-0.3h0.2v2.8h-0.2v-0.2c0-0.3-0.1-0.5-0.3-0.6
			c-0.1-0.1-0.3-0.1-0.7-0.1h-4.3c-0.4,0-0.7,0-0.8,0.1c-0.1,0.1-0.2,0.3-0.2,0.6v0.2h-0.2v-2.4c0-0.6,0.1-1.1,0.2-1.4
			c0.1-0.3,0.3-0.6,0.6-0.9s0.6-0.4,1-0.4c0.5,0,1,0.2,1.3,0.5c0.3,0.4,0.5,0.9,0.5,1.5c0,0.2,0,0.3,0,0.5
			C21.3,151.4,21.2,151.6,21.2,151.8z M20.9,151.8c0-0.2,0.1-0.3,0.1-0.5s0-0.2,0-0.3c0-0.3-0.1-0.6-0.4-0.9c-0.3-0.2-0.6-0.4-1-0.4
			c-0.3,0-0.6,0.1-0.8,0.2c-0.2,0.1-0.4,0.3-0.5,0.5s-0.2,0.5-0.2,0.7c0,0.2,0,0.4,0.1,0.6H20.9z"/>
		<path d="M17.4,146.8c0-0.1,0-0.3,0.1-0.3s0.2-0.1,0.3-0.1s0.3,0,0.4,0.1s0.1,0.2,0.1,0.3c0,0.1,0,0.3-0.1,0.3
			c-0.1,0.1-0.2,0.1-0.4,0.1s-0.3,0-0.3-0.1S17.4,147,17.4,146.8z M19.7,146.4h3.6c0.3,0,0.5,0,0.6-0.1c0.1,0,0.2-0.1,0.2-0.2
			s0.1-0.2,0.1-0.4h0.2v2.2h-0.2c0-0.2,0-0.4-0.1-0.4c0-0.1-0.1-0.1-0.2-0.2c-0.1,0-0.3-0.1-0.6-0.1h-1.7c-0.5,0-0.8,0-0.9,0
			c-0.1,0-0.2,0.1-0.2,0.1c0,0-0.1,0.1-0.1,0.2c0,0.1,0,0.2,0.1,0.3l-0.2,0.1l-0.5-1.3V146.4z"/>
		<path d="M18.4,143.9h1.5v-1h0.3v1h2.9c0.3,0,0.5,0,0.6-0.1c0.1-0.1,0.2-0.2,0.2-0.3c0-0.1,0-0.2-0.1-0.3s-0.2-0.2-0.3-0.2v-0.2
			c0.3,0.1,0.6,0.3,0.7,0.5c0.2,0.2,0.2,0.4,0.2,0.6c0,0.1,0,0.3-0.1,0.4c-0.1,0.1-0.2,0.2-0.4,0.3c-0.2,0.1-0.4,0.1-0.7,0.1h-3v0.7
			H20c-0.1-0.2-0.2-0.4-0.4-0.5c-0.2-0.2-0.4-0.4-0.6-0.5c-0.1-0.1-0.3-0.2-0.7-0.3V143.9z"/>
		<path d="M22.6,138.7c0.6,0.1,1,0.4,1.4,0.7c0.3,0.3,0.5,0.7,0.5,1.2c0,0.5-0.2,0.9-0.6,1.3s-1,0.6-1.7,0.6c-0.7,0-1.3-0.2-1.7-0.6
			c-0.4-0.4-0.7-0.9-0.7-1.5c0-0.4,0.1-0.8,0.3-1.1c0.2-0.3,0.5-0.4,0.7-0.4c0.1,0,0.2,0,0.3,0.1c0.1,0.1,0.1,0.2,0.1,0.3
			c0,0.2-0.1,0.3-0.2,0.4c-0.1,0.1-0.2,0.1-0.4,0.1c-0.2,0-0.3,0.1-0.4,0.2c-0.1,0.1-0.1,0.3-0.1,0.5c0,0.3,0.1,0.6,0.4,0.8
			c0.3,0.3,0.7,0.4,1.3,0.4c0.5,0,1-0.1,1.4-0.4c0.4-0.3,0.6-0.6,0.6-1.1c0-0.3-0.1-0.6-0.3-0.9c-0.1-0.2-0.4-0.4-0.8-0.5
			L22.6,138.7z"/>
		<path d="M17.4,136.7h3.3c-0.4-0.4-0.6-0.6-0.8-0.9s-0.2-0.4-0.2-0.6c0-0.3,0.1-0.5,0.2-0.7c0.1-0.2,0.4-0.3,0.7-0.4
			c0.2-0.1,0.6-0.1,1.1-0.1h1.6c0.3,0,0.5,0,0.6-0.1c0.1,0,0.1-0.1,0.2-0.2c0-0.1,0.1-0.2,0.1-0.4h0.2v2.2h-0.2v-0.1
			c0-0.2,0-0.4-0.1-0.4c-0.1-0.1-0.2-0.1-0.3-0.2c-0.1,0-0.2,0-0.5,0h-1.6c-0.5,0-0.8,0-1,0.1c-0.2,0.1-0.3,0.1-0.3,0.2
			s-0.1,0.2-0.1,0.4c0,0.2,0,0.3,0.1,0.5s0.3,0.4,0.5,0.6h2.4c0.3,0,0.5,0,0.6-0.1c0.1,0,0.1-0.1,0.2-0.2c0.1-0.1,0.1-0.3,0.1-0.5
			h0.2v2.2h-0.2c0-0.2,0-0.4-0.1-0.5c0-0.1-0.1-0.1-0.2-0.2s-0.3-0.1-0.6-0.1h-4c-0.5,0-0.8,0-0.9,0s-0.2,0.1-0.2,0.1
			c0,0.1-0.1,0.1-0.1,0.2c0,0.1,0,0.2,0.1,0.3l-0.2,0.1l-0.5-1.3V136.7z"/>
		<path d="M26.2,127.8h0.2c-0.2,0.5-0.5,0.9-0.9,1.2c-0.5,0.5-1,0.8-1.7,1.1c-0.6,0.3-1.3,0.4-2,0.4c-1,0-1.9-0.2-2.8-0.7
			c-0.8-0.5-1.4-1.1-1.8-1.9h0.2c0.2,0.4,0.5,0.7,0.9,1c0.4,0.3,0.9,0.4,1.5,0.6s1.2,0.2,1.8,0.2c0.7,0,1.3-0.1,1.9-0.2
			c0.4-0.1,0.8-0.2,1.1-0.3c0.3-0.1,0.5-0.3,0.8-0.5C25.8,128.4,26,128.1,26.2,127.8z"/>
		<path d="M20.7,125.5v-3.1h-1.9c-0.3,0-0.6,0-0.7,0.1c-0.1,0-0.2,0.1-0.2,0.2c-0.1,0.1-0.1,0.3-0.1,0.4v0.2h-0.2v-2.8h0.2v0.2
			c0,0.2,0,0.3,0.1,0.4c0.1,0.1,0.1,0.2,0.2,0.2c0.1,0,0.3,0.1,0.6,0.1h4.3c0.3,0,0.6,0,0.7-0.1c0.1,0,0.2-0.1,0.2-0.2
			c0.1-0.1,0.1-0.3,0.1-0.4v-0.2h0.2v2.8h-0.2v-0.2c0-0.3-0.1-0.5-0.2-0.6c-0.1-0.1-0.4-0.1-0.7-0.1h-2v3.1h2c0.3,0,0.6,0,0.7-0.1
			c0.1,0,0.2-0.1,0.2-0.2c0.1-0.1,0.1-0.3,0.1-0.4v-0.2h0.2v2.8h-0.2v-0.2c0-0.3-0.1-0.5-0.2-0.6c-0.1-0.1-0.4-0.1-0.7-0.1h-4.3
			c-0.3,0-0.6,0-0.7,0.1c-0.1,0-0.2,0.1-0.2,0.2c-0.1,0.1-0.1,0.3-0.1,0.4v0.2h-0.2v-2.8h0.2v0.2c0,0.2,0,0.3,0.1,0.4
			c0.1,0.1,0.1,0.2,0.2,0.2c0.1,0,0.3,0.1,0.6,0.1H20.7z"/>
		<path d="M22.9,116.2l1.4,0.1v3.9h-0.2l-3.9-3v1.5c0,0.3,0,0.5,0.1,0.6s0.1,0.2,0.2,0.2c0.2,0.1,0.4,0.1,0.6,0.2v0.2l-1.2,0v-3.7
			H20l3.9,3v-1.6c0-0.3,0-0.6-0.1-0.7c-0.1-0.1-0.2-0.2-0.3-0.3c-0.1-0.1-0.3-0.1-0.7-0.1V116.2z"/>
		<path d="M17.6,115.7h-0.2c0.2-0.5,0.5-0.9,0.9-1.2c0.5-0.5,1-0.8,1.7-1.1s1.3-0.4,2-0.4c1,0,1.9,0.2,2.8,0.7
			c0.8,0.5,1.4,1.1,1.8,1.9h-0.2c-0.2-0.4-0.5-0.7-0.9-1c-0.4-0.3-0.9-0.4-1.5-0.6c-0.6-0.1-1.2-0.2-1.8-0.2c-0.7,0-1.3,0.1-1.9,0.2
			c-0.4,0.1-0.8,0.2-1.1,0.3s-0.5,0.3-0.8,0.5C18,115.1,17.8,115.4,17.6,115.7z"/>
	</g>
	<g>
		<path d="M219,266.6l0.1,1.5h-0.2c0-0.3-0.1-0.5-0.1-0.6c-0.1-0.2-0.2-0.3-0.4-0.4c-0.2-0.1-0.4-0.1-0.7-0.1h-0.9v5
			c0,0.4,0,0.7,0.1,0.8c0.1,0.1,0.3,0.2,0.6,0.2h0.2v0.2h-2.8V273h0.2c0.3,0,0.5-0.1,0.6-0.3c0.1-0.1,0.1-0.3,0.1-0.7v-5h-0.8
			c-0.3,0-0.5,0-0.7,0.1c-0.2,0.1-0.3,0.2-0.4,0.4c-0.1,0.2-0.2,0.4-0.2,0.7h-0.2l0.1-1.5H219z"/>
		<path d="M221.2,268.6v3.6c0,0.3,0,0.5,0.1,0.6c0,0.1,0.1,0.2,0.2,0.2c0.1,0,0.2,0.1,0.4,0.1v0.2h-2.2V273c0.2,0,0.4,0,0.4-0.1
			c0.1,0,0.1-0.1,0.2-0.2c0-0.1,0.1-0.3,0.1-0.6v-1.7c0-0.5,0-0.8,0-0.9c0-0.1-0.1-0.2-0.1-0.2c0,0-0.1-0.1-0.2-0.1
			c-0.1,0-0.2,0-0.3,0.1l-0.1-0.2l1.3-0.5H221.2z M220.8,266.3c0.1,0,0.3,0,0.3,0.1s0.1,0.2,0.1,0.3c0,0.1,0,0.3-0.1,0.4
			s-0.2,0.1-0.3,0.1s-0.3,0-0.4-0.1c-0.1-0.1-0.1-0.2-0.1-0.4c0-0.1,0-0.3,0.1-0.3S220.7,266.3,220.8,266.3z"/>
		<path d="M223.8,269.6c0.3-0.3,0.5-0.5,0.6-0.6c0.1-0.1,0.3-0.2,0.5-0.3c0.2-0.1,0.3-0.1,0.5-0.1c0.3,0,0.5,0.1,0.7,0.2
			s0.3,0.4,0.4,0.7c0.3-0.4,0.6-0.6,0.8-0.8c0.2-0.1,0.5-0.2,0.7-0.2c0.2,0,0.4,0.1,0.6,0.2c0.2,0.1,0.3,0.3,0.4,0.6
			c0.1,0.2,0.1,0.5,0.1,0.9v1.9c0,0.3,0,0.5,0.1,0.6c0,0.1,0.1,0.1,0.2,0.2c0.1,0,0.2,0.1,0.4,0.1v0.2h-2.2V273h0.1
			c0.2,0,0.3,0,0.4-0.1c0.1-0.1,0.1-0.1,0.2-0.2c0-0.1,0-0.2,0-0.5v-1.9c0-0.4,0-0.6-0.1-0.8c-0.1-0.2-0.3-0.3-0.6-0.3
			c-0.2,0-0.3,0-0.5,0.1c-0.2,0.1-0.4,0.2-0.6,0.5l0,0.1l0,0.2v2.1c0,0.3,0,0.5,0.1,0.6c0,0.1,0.1,0.1,0.2,0.2
			c0.1,0,0.3,0.1,0.5,0.1v0.2h-2.3V273c0.2,0,0.4,0,0.5-0.1c0.1-0.1,0.2-0.1,0.2-0.3c0-0.1,0-0.2,0-0.5v-1.9c0-0.4-0.1-0.6-0.2-0.8
			c-0.1-0.2-0.3-0.3-0.6-0.3c-0.2,0-0.3,0-0.5,0.1c-0.3,0.1-0.5,0.3-0.6,0.5v2.4c0,0.3,0,0.5,0.1,0.6c0,0.1,0.1,0.2,0.2,0.2
			c0.1,0,0.2,0.1,0.5,0.1v0.2h-2.2V273c0.2,0,0.3,0,0.4-0.1c0.1,0,0.1-0.1,0.2-0.2c0-0.1,0.1-0.3,0.1-0.6v-1.7c0-0.5,0-0.8,0-0.9
			c0-0.1-0.1-0.2-0.1-0.2c0,0-0.1-0.1-0.2-0.1c-0.1,0-0.2,0-0.3,0.1l-0.1-0.2l1.3-0.5h0.2V269.6z"/>
		<path d="M230.9,270.4c0,0.7,0.2,1.2,0.5,1.6s0.7,0.6,1.1,0.6c0.3,0,0.5-0.1,0.8-0.2c0.2-0.2,0.4-0.4,0.5-0.8l0.2,0.1
			c-0.1,0.4-0.3,0.8-0.6,1.2c-0.3,0.4-0.7,0.5-1.2,0.5c-0.5,0-1-0.2-1.4-0.6c-0.4-0.4-0.6-1-0.6-1.7c0-0.8,0.2-1.4,0.6-1.8
			c0.4-0.4,0.9-0.6,1.5-0.6c0.5,0,0.9,0.2,1.2,0.5c0.3,0.3,0.5,0.8,0.5,1.3H230.9z M230.9,270.2h2.1c0-0.3-0.1-0.5-0.1-0.6
			c-0.1-0.2-0.2-0.3-0.4-0.4s-0.3-0.2-0.5-0.2c-0.3,0-0.5,0.1-0.7,0.3C231.1,269.5,231,269.8,230.9,270.2z"/>
		<path d="M239.9,275.2v0.2c-0.5-0.2-0.9-0.5-1.2-0.9c-0.5-0.5-0.8-1-1.1-1.7s-0.4-1.3-0.4-2c0-1,0.2-1.9,0.7-2.8
			c0.5-0.8,1.1-1.4,1.9-1.8v0.2c-0.4,0.2-0.7,0.5-1,0.9c-0.3,0.4-0.4,0.9-0.6,1.5c-0.1,0.6-0.2,1.2-0.2,1.8c0,0.7,0.1,1.3,0.2,1.9
			c0.1,0.4,0.2,0.8,0.3,1.1c0.1,0.3,0.3,0.5,0.5,0.8S239.6,274.9,239.9,275.2z"/>
		<path d="M243.3,268.6v1.5h-0.2c-0.1-0.5-0.3-0.8-0.5-1c-0.2-0.2-0.4-0.3-0.7-0.3c-0.2,0-0.4,0.1-0.5,0.2c-0.1,0.1-0.2,0.3-0.2,0.4
			c0,0.2,0.1,0.3,0.2,0.5c0.1,0.1,0.3,0.3,0.6,0.4l0.7,0.3c0.7,0.3,1,0.7,1,1.3c0,0.4-0.2,0.7-0.5,1s-0.6,0.4-1,0.4
			c-0.3,0-0.6,0-0.9-0.1c-0.1,0-0.2,0-0.3,0c-0.1,0-0.1,0-0.2,0.1h-0.2v-1.6h0.2c0.1,0.5,0.3,0.8,0.5,1s0.5,0.3,0.9,0.3
			c0.2,0,0.4-0.1,0.5-0.2c0.1-0.1,0.2-0.3,0.2-0.5c0-0.2-0.1-0.4-0.2-0.6s-0.5-0.3-0.9-0.6c-0.5-0.2-0.8-0.4-0.9-0.6
			c-0.1-0.2-0.2-0.4-0.2-0.7c0-0.4,0.1-0.7,0.4-0.9c0.3-0.2,0.6-0.4,1-0.4c0.2,0,0.4,0,0.6,0.1c0.2,0,0.3,0.1,0.3,0.1
			c0.1,0,0.1,0,0.1,0c0,0,0.1-0.1,0.1-0.2H243.3z"/>
		<path d="M244.2,266.5v-0.2c0.5,0.2,0.9,0.5,1.2,0.9c0.5,0.5,0.8,1,1.1,1.7c0.3,0.6,0.4,1.3,0.4,2c0,1-0.2,1.9-0.7,2.8
			c-0.5,0.8-1.1,1.4-1.9,1.8v-0.2c0.4-0.2,0.7-0.5,1-0.9c0.3-0.4,0.4-0.9,0.6-1.5c0.1-0.6,0.2-1.2,0.2-1.8c0-0.7-0.1-1.3-0.2-1.9
			c-0.1-0.4-0.2-0.8-0.3-1.1c-0.1-0.3-0.3-0.5-0.5-0.8C244.8,267,244.5,266.7,244.2,266.5z"/>
	</g>
	<g>
		<path d="M54.2,258.6c0-0.8,0.1-1.4,0.3-1.9s0.5-0.9,0.9-1.2c0.3-0.2,0.6-0.3,0.9-0.3c0.5,0,1,0.3,1.4,0.8c0.5,0.6,0.8,1.5,0.8,2.6
			c0,0.8-0.1,1.4-0.3,2c-0.2,0.5-0.5,0.9-0.8,1.2c-0.3,0.2-0.7,0.4-1,0.4c-0.6,0-1.2-0.4-1.6-1.1C54.3,260.2,54.2,259.5,54.2,258.6z
			 M55.1,258.7c0,0.9,0.1,1.6,0.3,2.2c0.2,0.5,0.5,0.7,0.8,0.7c0.2,0,0.4-0.1,0.5-0.2s0.3-0.4,0.4-0.8c0.1-0.6,0.2-1.3,0.2-2.4
			c0-0.8-0.1-1.4-0.2-1.9c-0.1-0.4-0.3-0.6-0.5-0.8c-0.1-0.1-0.3-0.2-0.5-0.2c-0.2,0-0.4,0.1-0.6,0.3c-0.2,0.3-0.4,0.7-0.5,1.3
			S55.1,258.1,55.1,258.7z"/>
	</g>
	<line class="st2" x1="56.3" y1="251.7" x2="56.3" y2="249.2"/>
	<g>
		<path d="M394.2,255.9l1.6-0.8h0.2v5.6c0,0.4,0,0.6,0,0.7c0,0.1,0.1,0.2,0.2,0.2s0.3,0.1,0.6,0.1v0.2h-2.5v-0.2
			c0.3,0,0.5,0,0.6-0.1c0.1,0,0.2-0.1,0.2-0.2c0-0.1,0.1-0.3,0.1-0.7v-3.6c0-0.5,0-0.8,0-0.9c0-0.1-0.1-0.2-0.1-0.2
			c-0.1,0-0.1-0.1-0.2-0.1c-0.1,0-0.3,0.1-0.5,0.2L394.2,255.9z"/>
		<path d="M399.3,260.9c0.2,0,0.3,0.1,0.4,0.2c0.1,0.1,0.2,0.2,0.2,0.4c0,0.1-0.1,0.3-0.2,0.4c-0.1,0.1-0.2,0.2-0.4,0.2
			s-0.3-0.1-0.4-0.2c-0.1-0.1-0.2-0.2-0.2-0.4c0-0.2,0.1-0.3,0.2-0.4C399,260.9,399.1,260.9,399.3,260.9z"/>
		<path d="M405.1,259.4v0.7h-0.9v1.7h-0.8v-1.7h-2.8v-0.6l3.1-4.4h0.5v4.3H405.1z M403.5,259.4v-3.3l-2.3,3.3H403.5z"/>
		<path d="M406,262v-0.2c0.4,0,0.8-0.1,1.2-0.3s0.7-0.5,1.1-1c0.3-0.5,0.6-1,0.7-1.6c-0.5,0.3-1,0.5-1.4,0.5c-0.5,0-0.9-0.2-1.2-0.5
			c-0.3-0.4-0.5-0.8-0.5-1.4c0-0.6,0.2-1.1,0.5-1.5c0.4-0.5,0.9-0.8,1.6-0.8c0.5,0,1,0.2,1.4,0.7c0.5,0.6,0.7,1.2,0.7,2.1
			c0,0.7-0.2,1.4-0.5,2.1c-0.4,0.6-0.9,1.2-1.5,1.6c-0.5,0.3-1.1,0.5-1.7,0.5H406z M409,258.6c0.1-0.4,0.1-0.8,0.1-1
			c0-0.3-0.1-0.7-0.2-1c-0.1-0.4-0.3-0.6-0.5-0.8s-0.4-0.3-0.7-0.3c-0.3,0-0.5,0.1-0.8,0.4c-0.2,0.3-0.3,0.6-0.3,1.2
			c0,0.7,0.1,1.2,0.4,1.6c0.2,0.3,0.5,0.4,0.8,0.4c0.1,0,0.3,0,0.5-0.1S408.9,258.7,409,258.6z"/>
	</g>
	<g>
		<path d="M411,256.5c0.2-0.4,0.4-0.8,0.7-1c0.3-0.2,0.6-0.4,1.1-0.4c0.5,0,0.9,0.2,1.2,0.5c0.2,0.3,0.3,0.5,0.3,0.8
			c0,0.5-0.3,1-0.9,1.5c0.4,0.2,0.7,0.4,0.9,0.7c0.2,0.3,0.3,0.6,0.3,1c0,0.6-0.2,1.1-0.5,1.5c-0.5,0.5-1.2,0.8-2.1,0.8
			c-0.4,0-0.7-0.1-0.9-0.2s-0.2-0.2-0.2-0.4c0-0.1,0-0.2,0.1-0.2s0.2-0.1,0.3-0.1c0.1,0,0.2,0,0.2,0c0.1,0,0.2,0.1,0.4,0.2
			c0.2,0.1,0.3,0.2,0.4,0.2c0.1,0,0.2,0.1,0.4,0.1c0.3,0,0.6-0.1,0.9-0.4s0.4-0.6,0.4-0.9c0-0.3-0.1-0.5-0.2-0.7
			c-0.1-0.2-0.2-0.3-0.3-0.4c-0.1-0.1-0.3-0.2-0.6-0.4s-0.5-0.2-0.7-0.2H412v-0.1c0.3,0,0.5-0.1,0.8-0.3s0.4-0.3,0.6-0.5
			c0.1-0.2,0.2-0.4,0.2-0.7c0-0.3-0.1-0.6-0.3-0.8c-0.2-0.2-0.5-0.3-0.8-0.3c-0.5,0-0.9,0.3-1.3,0.8L411,256.5z"/>
	</g>
	<line class="st2" x1="404.3" y1="251.7" x2="404.3" y2="249.2"/>
</g>
<polyline class="st0" points="90.8,108.5 93,108.5 97.4,108.4 101.7,108.4 106.1,108.4 110.5,108.3 114.9,108.3 119.2,108.4 
	123.6,108.6 128,109.4 132.3,110.1 136.7,110.8 141.1,111.4 145.5,112.3 149.8,113 154.2,113.8 158.6,113.9 160.8,113.9 "/>
<polyline class="st0" points="187,119.8 189.2,119.8 193.5,120.4 197.9,121.1 202.3,122 206.6,122.7 211,123.3 215.4,123.6 
	217.6,123.6 "/>
<polyline class="st0" points="235.1,114.9 237.2,114.9 241.6,110.7 246,105.4 250.4,100.6 254.7,97.7 259.1,92.7 263.5,89.3 
	267.8,86.5 272.2,84.7 276.6,83.8 280.9,84.4 285.3,86.2 289.7,87.5 294.1,90.2 298.4,92.2 302.8,94 307.2,96.1 311.5,97.6 
	315.9,100 320.3,102.1 324.7,103.6 329,105.6 333.4,107.5 337.8,109.3 342.1,111 346.5,113 350.9,114.4 353.1,114.4 "/>
<polyline class="st0" points="90.8,108.5 93,108.5 97.4,108.4 101.7,108.4 106.1,108.4 110.5,108.3 114.9,108.3 119.2,108.4 
	123.6,108.6 128,109.4 132.3,110.1 136.7,110.8 141.1,111.4 145.5,112.3 149.8,113 154.2,113.8 158.6,113.9 160.8,113.9 "/>
<polyline class="st0" points="187,119.8 189.2,119.8 193.5,120.4 197.9,121.1 202.3,122 206.6,122.7 211,123.3 215.4,123.6 
	217.6,123.6 "/>
<polyline class="st0" points="235.1,114.9 237.2,114.9 241.6,110.7 246,105.4 250.4,100.6 254.7,97.7 259.1,92.7 263.5,89.3 
	267.8,86.5 272.2,84.7 276.6,83.8 280.9,83.9 285.3,84.8 289.7,85.3 294.1,86.6 298.4,87.7 302.8,88.3 307.2,89.1 311.5,90.4 
	315.9,91.1 320.3,91.9 324.7,92.7 329,93.8 333.4,94.7 337.8,95.6 342.1,96.6 346.5,98 350.9,97.4 353.1,97.4 "/>
<polyline class="st0" points="90.8,108.5 93,108.5 97.4,108.4 101.7,108.4 106.1,108.4 110.5,108.3 114.9,108.3 119.2,108.4 
	123.6,108.6 128,109.4 132.3,110.1 136.7,110.8 141.1,111.4 145.5,112.3 149.8,113 154.2,113.8 158.6,113.9 160.8,113.9 "/>
<polyline class="st0" points="187,119.8 189.2,119.8 193.5,120.4 197.9,121.1 202.3,122 206.6,122.7 211,123.3 215.4,123.6 
	217.6,123.6 "/>
<polyline class="st0" points="235.1,114.9 237.2,114.9 241.6,110.7 246,105.4 250.4,100.6 254.7,97.7 259.1,92.7 263.5,89.3 
	267.8,86.5 272.2,84.7 276.6,83.7 280.9,83.4 285.3,83.3 289.7,83 294.1,82.9 298.4,82.8 302.8,82.4 307.2,82 311.5,82 315.9,81.8 
	320.3,81.6 324.7,81.4 329,81.2 333.4,81 337.8,80.8 342.1,81.2 346.5,81.5 350.9,80.1 353.1,80.1 "/>
<polyline class="st0" points="90.8,108.5 93,108.5 97.4,108.4 101.7,108.4 106.1,108.4 110.5,108.3 114.9,108.3 119.2,108.4 
	123.6,108.6 128,109.4 132.3,110.1 136.7,110.8 141.1,111.4 145.5,112.3 149.8,113 154.2,113.8 158.6,113.9 160.8,113.9 "/>
<polyline class="st0" points="187,119.8 189.2,119.8 193.5,120.4 197.9,121.1 202.3,122 206.6,122.7 211,123.3 215.4,123.6 
	217.6,123.6 "/>
<polyline class="st0" points="235.1,114.9 237.2,114.9 241.6,110.7 246,105.4 250.4,100.6 254.7,97.7 259.1,92.7 263.5,89.3 
	267.8,86.5 272.2,84.7 276.6,83.7 280.9,82.8 285.3,81.7 289.7,80.5 294.1,78.9 298.4,77.6 302.8,75.9 307.2,74.6 311.5,73.7 
	315.9,72.2 320.3,70.9 324.7,69.7 329,68 333.4,66.7 337.8,65.4 342.1,64.5 346.5,64.1 350.9,59.2 353.1,59.2 "/>
<polyline class="st0" points="90.8,108.5 93,108.5 97.4,108.4 101.7,108.4 106.1,108.4 110.5,108.3 114.9,108.3 119.2,108.4 
	123.6,108.6 128,109.2 132.3,109.9 136.7,110.6 141.1,111.2 145.5,111.9 149.8,112.6 154.2,113.3 158.6,113.3 160.8,113.3 "/>
<polyline class="st0" points="187,118.8 189.2,118.8 193.5,119.3 197.9,120.1 202.3,120.9 206.6,121.5 211,122.1 215.4,122.6 
	217.6,122.6 "/>
<polyline class="st0" points="230.7,124 232.9,124 237.2,122.4 241.6,119.9 246,117.4 250.4,112 254.7,108.6 259.1,103.5 263.5,99 
	267.8,94.4 272.2,90.2 276.6,86.5 280.9,84.4 285.3,84.2 289.7,85.5 294.1,90.2 298.4,93.5 302.8,96.2 307.2,99.1 311.5,102.8 
	315.9,106.3 320.3,109.5 324.7,111.9 329,115.4 333.4,118.6 337.8,121.7 342.1,124.1 346.5,125.4 348.7,125.4 "/>
<polyline class="st0" points="90.8,108.5 93,108.5 97.4,108.4 101.7,108.4 106.1,108.4 110.5,108.3 114.9,108.3 119.2,108.4 
	123.6,108.6 128,109.2 132.3,109.9 136.7,110.6 141.1,111.2 145.5,111.9 149.8,112.6 154.2,113.3 158.6,113.3 160.8,113.3 "/>
<polyline class="st0" points="187,118.8 189.2,118.8 193.5,119.3 197.9,120.1 202.3,120.9 206.6,121.5 211,122.1 215.4,122.6 
	217.6,122.6 "/>
<polyline class="st0" points="230.7,124 232.9,124 237.2,122.4 241.6,119.9 246,117.4 250.4,112 254.7,108.6 259.1,103.5 263.5,99 
	267.8,94.4 272.2,90.2 276.6,86.5 280.9,84.4 285.3,84 289.7,84.8 294.1,87.9 298.4,90.1 302.8,92 307.2,93.7 311.5,96.5 
	315.9,98.5 320.3,100.6 324.7,102.5 329,104.7 333.4,106.7 337.8,108.8 342.1,110.6 346.5,112.7 350.9,113 353.1,113 "/>
<polyline class="st0" points="90.8,108.5 93,108.5 97.4,108.4 101.7,108.4 106.1,108.4 110.5,108.3 114.9,108.3 119.2,108.4 
	123.6,108.6 128,109.2 132.3,109.9 136.7,110.6 141.1,111.2 145.5,111.9 149.8,112.6 154.2,113.3 158.6,113.3 160.8,113.3 "/>
<polyline class="st0" points="187,118.8 189.2,118.8 193.5,119.3 197.9,120.1 202.3,120.9 206.6,121.5 211,122.1 215.4,122.6 
	217.6,122.6 "/>
<polyline class="st0" points="230.7,124 232.9,124 237.2,122.4 241.6,119.9 246,117.4 250.4,112 254.7,108.6 259.1,103.5 263.5,99 
	267.8,94.4 272.2,90.2 276.6,86.5 280.9,84.4 285.3,83.8 289.7,84 294.1,85.5 298.4,86.6 302.8,87.5 307.2,88.5 311.5,89.2 
	315.9,90.3 320.3,91.4 324.7,92.1 329,93.4 333.4,94.3 337.8,95.3 342.1,96.4 346.5,97.8 350.9,97.1 353.1,97.1 "/>
<polyline class="st0" points="90.8,108.5 93,108.5 97.4,108.4 101.7,108.4 106.1,108.4 110.5,108.3 114.9,108.3 119.2,108.4 
	123.6,108.6 128,109.2 132.3,109.9 136.7,110.6 141.1,111.2 145.5,111.9 149.8,112.6 154.2,113.3 158.6,113.3 160.8,113.3 "/>
<polyline class="st0" points="187,118.8 189.2,118.8 193.5,119.3 197.9,120.1 202.3,120.9 206.6,121.5 211,122.1 215.4,122.6 
	217.6,122.6 "/>
<polyline class="st0" points="230.7,124 232.9,124 237.2,122.4 241.6,119.9 246,117.4 250.4,112 254.7,108.6 259.1,103.5 263.5,99 
	267.8,94.4 272.2,90.2 276.6,86.5 280.9,84.4 285.3,83.6 289.7,83.3 294.1,83.1 298.4,83 302.8,82.5 307.2,82.4 311.5,82.2 
	315.9,82 320.3,81.7 324.7,81.5 329,81.3 333.4,81.1 337.8,80.9 342.1,81 346.5,81.5 350.9,82 353.1,82 "/>
<polyline class="st0" points="90.8,108.5 93,108.5 97.4,108.4 101.7,108.4 106.1,108.4 110.5,108.3 114.9,108.3 119.2,108.4 
	123.6,108.6 128,109.2 132.3,109.9 136.7,110.6 141.1,111.2 145.5,111.9 149.8,112.6 154.2,113.3 158.6,113.3 160.8,113.3 "/>
<polyline class="st0" points="187,118.8 189.2,118.8 193.5,119.3 197.9,120.1 202.3,120.9 206.6,121.5 211,122.1 215.4,122.6 
	217.6,122.6 "/>
<polyline class="st0" points="230.7,124 232.9,124 237.2,122.4 241.6,119.9 246,117.4 250.4,112 254.7,108.6 259.1,103.5 263.5,99 
	267.8,94.4 272.2,90.2 276.6,86.5 280.9,84.4 285.3,83.4 289.7,82.4 294.1,80.6 298.4,79.1 302.8,77.3 307.2,76.3 311.5,74.7 
	315.9,73.3 320.3,71.8 324.7,70.5 329,68.7 333.4,67.3 337.8,65.8 342.1,64.8 346.5,64.3 350.9,59.4 353.1,59.4 "/>
<polyline class="st0" points="90.8,108.5 93,108.5 97.4,108.4 101.7,108.4 106.1,108.4 110.5,108.3 114.9,108.3 119.2,108.4 
	123.6,108.6 128,109.2 132.3,109.8 136.7,110.4 141.1,110.9 145.5,111.7 149.8,112.2 154.2,112.8 158.6,112.9 160.8,112.9 "/>
<polyline class="st0" points="182.6,117.7 184.8,117.7 189.2,118 193.5,118.4 197.9,119.2 202.3,119.9 206.6,120.5 211,121 
	215.4,121.2 217.6,121.2 "/>
<polyline class="st0" points="230.7,124.3 232.9,124.3 237.2,124.6 241.6,124.3 246,123.1 250.4,120.6 254.7,118.1 259.1,114.1 
	263.5,110.6 267.8,105.7 272.2,100.9 276.6,95.3 280.9,90.1 285.3,86.2 289.7,84.2 294.1,85.6 298.4,89.2 302.8,92.8 307.2,95.8 
	311.5,100.2 315.9,103.9 320.3,106.5 324.7,109.8 329,113.7 333.4,117.2 337.8,120.6 342.1,123.3 346.5,124.7 348.7,124.7 "/>
<polyline class="st0" points="90.8,108.5 93,108.5 97.4,108.4 101.7,108.4 106.1,108.4 110.5,108.3 114.9,108.3 119.2,108.4 
	123.6,108.6 128,109.2 132.3,109.8 136.7,110.4 141.1,110.9 145.5,111.7 149.8,112.2 154.2,112.8 158.6,112.9 160.8,112.9 "/>
<polyline class="st0" points="182.6,117.7 184.8,117.7 189.2,118 193.5,118.4 197.9,119.2 202.3,119.9 206.6,120.5 211,121 
	215.4,121.2 217.6,121.2 "/>
<polyline class="st0" points="230.7,124.3 232.9,124.3 237.2,124.6 241.6,124.3 246,123.1 250.4,120.6 254.7,118.1 259.1,114.1 
	263.5,110.6 267.8,105.7 272.2,100.9 276.6,95.3 280.9,90.1 285.3,86.2 289.7,84.1 294.1,84.9 298.4,87.3 302.8,89.6 307.2,91.5 
	311.5,93.8 315.9,96.5 320.3,99.1 324.7,100.9 329,103.6 333.4,105.8 337.8,107.9 342.1,110.3 346.5,112.4 350.9,113.8 353.1,113.8 
	"/>
<polyline class="st0" points="90.8,108.5 93,108.5 97.4,108.4 101.7,108.4 106.1,108.4 110.5,108.3 114.9,108.3 119.2,108.4 
	123.6,108.6 128,109.2 132.3,109.8 136.7,110.4 141.1,110.9 145.5,111.7 149.8,112.2 154.2,112.8 158.6,112.9 160.8,112.9 "/>
<polyline class="st0" points="182.6,117.7 184.8,117.7 189.2,118 193.5,118.4 197.9,119.2 202.3,119.9 206.6,120.5 211,121 
	215.4,121.2 217.6,121.2 "/>
<polyline class="st0" points="230.7,124.3 232.9,124.3 237.2,124.6 241.6,124.3 246,123.1 250.4,120.6 254.7,118.1 259.1,114.1 
	263.5,110.6 267.8,105.7 272.2,100.9 276.6,95.3 280.9,90.1 285.3,86.2 289.7,84.1 294.1,84.2 298.4,85.4 302.8,86.3 307.2,87.5 
	311.5,88.5 315.9,89.6 320.3,90.6 324.7,91.8 329,92.9 333.4,93.9 337.8,94.9 342.1,96.2 346.5,97.7 350.9,100.7 353.1,100.7 "/>
<polyline class="st0" points="90.8,108.5 93,108.5 97.4,108.4 101.7,108.4 106.1,108.4 110.5,108.3 114.9,108.3 119.2,108.4 
	123.6,108.6 128,109.2 132.3,109.8 136.7,110.4 141.1,110.9 145.5,111.7 149.8,112.2 154.2,112.8 158.6,112.9 160.8,112.9 "/>
<polyline class="st0" points="182.6,117.7 184.8,117.7 189.2,118 193.5,118.4 197.9,119.2 202.3,119.9 206.6,120.5 211,121 
	215.4,121.2 217.6,121.2 "/>
<polyline class="st0" points="230.7,124.3 232.9,124.3 237.2,124.6 241.6,124.3 246,123.1 250.4,120.6 254.7,118.1 259.1,114.1 
	263.5,110.6 267.8,105.7 272.2,100.9 276.6,95.3 280.9,90.1 285.3,86.2 289.7,84.1 294.1,83.6 298.4,83.2 302.8,82.7 307.2,82.5 
	311.5,82.4 315.9,82.2 320.3,81.9 324.7,81.7 329,81.4 333.4,81.2 337.8,81 342.1,81 346.5,81.6 350.9,84 353.1,84 "/>
<polyline class="st0" points="90.8,108.5 93,108.5 97.4,108.4 101.7,108.4 106.1,108.4 110.5,108.3 114.9,108.3 119.2,108.4 
	123.6,108.6 128,109.2 132.3,109.8 136.7,110.4 141.1,110.9 145.5,111.7 149.8,112.2 154.2,112.8 158.6,112.9 160.8,112.9 "/>
<polyline class="st0" points="182.6,117.7 184.8,117.7 189.2,118 193.5,118.4 197.9,119.2 202.3,119.9 206.6,120.5 211,121 
	215.4,121.2 217.6,121.2 "/>
<polyline class="st0" points="230.7,124.3 232.9,124.3 237.2,124.6 241.6,124.3 246,123.1 250.4,120.6 254.7,118.1 259.1,114.1 
	263.5,110.6 267.8,105.7 272.2,100.9 276.6,95.3 280.9,90.1 285.3,86.2 289.7,84.1 294.1,82.8 298.4,81 302.8,79.1 307.2,77.6 
	311.5,76.6 315.9,74.4 320.3,73 324.7,71.5 329,69.5 333.4,67.9 337.8,66.3 342.1,65.1 346.5,64.6 350.9,60.1 353.1,60.1 "/>
<polyline class="st0" points="90.8,108.5 93,108.5 97.4,108.4 101.7,108.4 106.1,108.4 110.5,108.3 114.9,108.3 119.2,108.4 
	123.6,108.6 128,109.1 132.3,109.7 136.7,110.2 141.1,110.8 145.5,111.4 149.8,112 154.2,112.4 158.6,113.2 160.8,113.2 "/>
<polyline class="st0" points="182.6,117 184.8,117 189.2,117.3 193.5,117.7 197.9,118.4 202.3,119 206.6,119.6 211,120 215.4,120.9 
	217.6,120.9 "/>
<polyline class="st0" points="235.1,123.7 237.2,123.7 241.6,124.3 246,124.6 250.4,124.6 254.7,123.9 259.1,121.9 263.5,119.6 
	267.8,116.4 272.2,112.8 276.6,107.8 280.9,102 285.3,95.7 289.7,90.3 294.1,85.4 298.4,85.2 302.8,88 307.2,91.8 311.5,96.7 
	315.9,100 320.3,103.8 324.7,107.3 329,111.5 333.4,115.5 337.8,119.3 342.1,122.2 346.5,123.8 348.7,123.8 "/>
<polyline class="st0" points="90.8,108.5 93,108.5 97.4,108.4 101.7,108.4 106.1,108.4 110.5,108.3 114.9,108.3 119.2,108.4 
	123.6,108.6 128,109.1 132.3,109.7 136.7,110.2 141.1,110.8 145.5,111.4 149.8,112 154.2,112.4 158.6,113.2 160.8,113.2 "/>
<polyline class="st0" points="182.6,117 184.8,117 189.2,117.3 193.5,117.7 197.9,118.4 202.3,119 206.6,119.6 211,120 215.4,120.9 
	217.6,120.9 "/>
<polyline class="st0" points="235.1,123.7 237.2,123.7 241.6,124.3 246,124.6 250.4,124.6 254.7,123.9 259.1,121.9 263.5,119.6 
	267.8,116.4 272.2,112.8 276.6,107.8 280.9,102 285.3,95.7 289.7,90.3 294.1,85.4 298.4,84.7 302.8,86.5 307.2,88.8 311.5,92.3 
	315.9,94.4 320.3,97 324.7,99.4 329,102.2 333.4,104.7 337.8,107 342.1,109.5 346.5,112 348.7,112 "/>
<polyline class="st0" points="90.8,108.5 93,108.5 97.4,108.4 101.7,108.4 106.1,108.4 110.5,108.3 114.9,108.3 119.2,108.4 
	123.6,108.6 128,109.1 132.3,109.7 136.7,110.2 141.1,110.8 145.5,111.4 149.8,112 154.2,112.4 158.6,113.2 160.8,113.2 "/>
<polyline class="st0" points="182.6,117 184.8,117 189.2,117.3 193.5,117.7 197.9,118.4 202.3,119 206.6,119.6 211,120 215.4,120.9 
	217.6,120.9 "/>
<polyline class="st0" points="235.1,123.7 237.2,123.7 241.6,124.3 246,124.6 250.4,124.6 254.7,123.9 259.1,121.9 263.5,119.6 
	267.8,116.4 272.2,112.8 276.6,107.8 280.9,102 285.3,95.7 289.7,90.3 294.1,85.4 298.4,84.3 302.8,84.9 307.2,86.1 311.5,87.5 
	315.9,88.7 320.3,89.8 324.7,90.6 329,92.2 333.4,93.3 337.8,94.6 342.1,95.9 346.5,97.5 350.9,96.9 353.1,96.9 "/>
<polyline class="st0" points="90.8,108.5 93,108.5 97.4,108.4 101.7,108.4 106.1,108.4 110.5,108.3 114.9,108.3 119.2,108.4 
	123.6,108.6 128,109.1 132.3,109.7 136.7,110.2 141.1,110.8 145.5,111.4 149.8,112 154.2,112.4 158.6,113.2 160.8,113.2 "/>
<polyline class="st0" points="182.6,117 184.8,117 189.2,117.3 193.5,117.7 197.9,118.4 202.3,119 206.6,119.6 211,120 215.4,120.9 
	217.6,120.9 "/>
<polyline class="st0" points="235.1,123.7 237.2,123.7 241.6,124.3 246,124.6 250.4,124.6 254.7,123.9 259.1,121.9 263.5,119.6 
	267.8,116.4 272.2,112.8 276.6,107.8 280.9,102 285.3,95.7 289.7,90.3 294.1,85.3 298.4,83.8 302.8,83.1 307.2,82.9 311.5,82.8 
	315.9,82.3 320.3,82.1 324.7,81.9 329,81.7 333.4,81.3 337.8,81.1 342.1,81.2 346.5,81.8 350.9,79.6 353.1,79.6 "/>
<polyline class="st0" points="90.8,108.5 93,108.5 97.4,108.4 101.7,108.4 106.1,108.4 110.5,108.3 114.9,108.3 119.2,108.4 
	123.6,108.6 128,109.1 132.3,109.7 136.7,110.2 141.1,110.8 145.5,111.4 149.8,112 154.2,112.4 158.6,113.2 160.8,113.2 "/>
<polyline class="st0" points="182.6,117 184.8,117 189.2,117.3 193.5,117.7 197.9,118.4 202.3,119 206.6,119.6 211,120 215.4,120.9 
	217.6,120.9 "/>
<polyline class="st0" points="235.1,123.7 237.2,123.7 241.6,124.3 246,124.6 250.4,124.6 254.7,123.9 259.1,121.9 263.5,119.6 
	267.8,116.4 272.2,112.8 276.6,107.8 280.9,102 285.3,95.7 289.7,90.3 294.1,85.3 298.4,83.2 302.8,81.1 307.2,79.6 311.5,78.3 
	315.9,76 320.3,74.3 324.7,72.7 329,70.4 333.4,68.7 337.8,67 342.1,65.5 346.5,64.8 350.9,60.6 353.1,60.6 "/>
<polyline class="st0" points="90.8,108.5 93,108.5 97.4,108.4 101.7,108.4 106.1,108.4 110.5,108.3 114.9,108.3 119.2,108.4 
	123.6,108.6 128,109 132.3,109.6 136.7,110.1 141.1,110.6 145.5,111.2 149.8,111.7 154.2,112.1 158.6,112 160.8,112 "/>
<polyline class="st0" points="187,116.8 189.2,116.8 193.5,117 197.9,117.7 202.3,118.3 206.6,118.8 211,119.2 215.4,119.5 
	217.6,119.5 "/>
<polyline class="st0" points="230.7,122.2 232.9,122.2 237.2,122.6 241.6,123.2 246,123.6 250.4,124 254.7,124.7 259.1,124.7 
	263.5,124.2 267.8,123.1 272.2,121.5 276.6,118.5 280.9,115.1 285.3,110 289.7,103.9 294.1,94.6 298.4,87.8 302.8,84.6 307.2,86.6 
	311.5,91.3 315.9,95.8 320.3,100.3 324.7,104.1 329,108.9 333.4,113.4 337.8,117.6 342.1,121.4 346.5,125 348.7,125 "/>
<polyline class="st0" points="90.8,108.5 93,108.5 97.4,108.4 101.7,108.4 106.1,108.4 110.5,108.3 114.9,108.3 119.2,108.4 
	123.6,108.6 128,109 132.3,109.6 136.7,110.1 141.1,110.6 145.5,111.2 149.8,111.7 154.2,112.1 158.6,112 160.8,112 "/>
<polyline class="st0" points="187,116.8 189.2,116.8 193.5,117 197.9,117.7 202.3,118.3 206.6,118.8 211,119.2 215.4,119.5 
	217.6,119.5 "/>
<polyline class="st0" points="230.7,122.2 232.9,122.2 237.2,122.6 241.6,123.2 246,123.6 250.4,124 254.7,124.7 259.1,124.7 
	263.5,124.2 267.8,123.1 272.2,121.5 276.6,118.5 280.9,115.1 285.3,110 289.7,103.9 294.1,94.6 298.4,87.8 302.8,84.4 307.2,86 
	311.5,88.2 315.9,91.4 320.3,94.5 324.7,97.4 329,100.4 333.4,103.3 337.8,106 342.1,108.7 346.5,111.6 348.7,111.6 "/>
<polyline class="st0" points="90.8,108.5 93,108.5 97.4,108.4 101.7,108.4 106.1,108.4 110.5,108.3 114.9,108.3 119.2,108.4 
	123.6,108.6 128,109 132.3,109.6 136.7,110.1 141.1,110.6 145.5,111.2 149.8,111.7 154.2,112.1 158.6,112 160.8,112 "/>
<polyline class="st0" points="187,116.8 189.2,116.8 193.5,117 197.9,117.7 202.3,118.3 206.6,118.8 211,119.2 215.4,119.5 
	217.6,119.5 "/>
<polyline class="st0" points="230.7,122.2 232.9,122.2 237.2,122.6 241.6,123.2 246,123.6 250.4,124 254.7,124.7 259.1,124.7 
	263.5,124.2 267.8,123.1 272.2,121.5 276.6,118.5 280.9,115.1 285.3,110 289.7,103.9 294.1,94.6 298.4,87.8 302.8,84.2 307.2,84.8 
	311.5,85.7 315.9,87.2 320.3,88.5 324.7,90 329,91.4 333.4,92.7 337.8,94.1 342.1,95.6 346.5,97.3 350.9,96.8 353.1,96.8 "/>
<polyline class="st0" points="90.8,108.5 93,108.5 97.4,108.4 101.7,108.4 106.1,108.4 110.5,108.3 114.9,108.3 119.2,108.4 
	123.6,108.6 128,109 132.3,109.6 136.7,110.1 141.1,110.6 145.5,111.2 149.8,111.7 154.2,112.1 158.6,112 160.8,112 "/>
<polyline class="st0" points="187,116.8 189.2,116.8 193.5,117 197.9,117.7 202.3,118.3 206.6,118.8 211,119.2 215.4,119.5 
	217.6,119.5 "/>
<polyline class="st0" points="230.7,122.2 232.9,122.2 237.2,122.6 241.6,123.2 246,123.6 250.4,124 254.7,124.7 259.1,124.7 
	263.5,124.2 267.8,123.1 272.2,121.5 276.6,118.5 280.9,115.1 285.3,110 289.7,103.9 294.1,94.6 298.4,87.8 302.8,84 307.2,83.1 
	311.5,83 315.9,82.7 320.3,82.4 324.7,82.2 329,81.8 333.4,81.5 337.8,81.2 342.1,81.4 346.5,82.1 350.9,79.4 353.1,79.4 "/>
<polyline class="st0" points="90.8,108.5 93,108.5 97.4,108.4 101.7,108.4 106.1,108.4 110.5,108.3 114.9,108.3 119.2,108.4 
	123.6,108.6 128,109 132.3,109.6 136.7,110.1 141.1,110.6 145.5,111.2 149.8,111.7 154.2,112.1 158.6,112 160.8,112 "/>
<polyline class="st0" points="187,116.8 189.2,116.8 193.5,117 197.9,117.7 202.3,118.3 206.6,118.8 211,119.2 215.4,119.5 
	217.6,119.5 "/>
<polyline class="st0" points="230.7,122.2 232.9,122.2 237.2,122.6 241.6,123.2 246,123.6 250.4,124 254.7,124.7 259.1,124.7 
	263.5,124.2 267.8,123.1 272.2,121.5 276.6,118.5 280.9,115.1 285.3,110 289.7,103.9 294.1,94.6 298.4,87.8 302.8,83.9 307.2,81.7 
	311.5,80.2 315.9,77.6 320.3,76 324.7,74.1 329,71.7 333.4,69.7 337.8,67.7 342.1,66.1 346.5,65.3 350.9,64 353.1,64 "/>
</svg>
