<?xml version="1.0" encoding="utf-8"?>
<!-- Generator: Adobe Illustrator 22.0.1, SVG Export Plug-In . SVG Version: 6.00 Build 0)  -->
<svg version="1.1" id="Layer_1" xmlns="http://www.w3.org/2000/svg" xmlns:xlink="http://www.w3.org/1999/xlink" x="0px" y="0px"
	 viewBox="0 0 504 270" style="enable-background:new 0 0 504 270;" xml:space="preserve">
<style type="text/css">
	.st0{fill:none;stroke:#000000;stroke-width:0.375;stroke-linejoin:bevel;stroke-miterlimit:10;}
	.st1{fill:none;stroke:#000000;stroke-width:0.375;stroke-linejoin:bevel;stroke-miterlimit:10;stroke-dasharray:0.72,1.32;}
	.st2{font-family:'DoulosSIL';}
	.st3{font-size:9.96px;}
	.st4{fill:none;stroke:#000000;stroke-width:0.75;stroke-linejoin:bevel;stroke-miterlimit:10;}
</style>
<g>
	<path class="st0" d="M126.7,88.1h2.2l4.4-0.1l4.4,0.1l4.4,0l4.4,0l4.4,0l4.4,0l4.4,0.2l4.4,0.6l4.4,0.6l4.4,0.6l4.4,0.6l4.4,0.7
		l4.4,0.6l4.4,0.7l4.4,0.1h2.2 M222.9,98h2.2l4.4,0.5l4.4,0.6l4.4,0.8l4.4,0.6l4.4,0.5l4.4,0.4h2.2 M266.6,97.6h2.2l4.4-2l4.4-3
		l4.4-3.5l4.4-2.8l4.4-3.5l4.4-2.8l4.4-2.5l4.4-1.5l4.4-1.2l4.4-0.9l4.4,0.7l4.4,1.7l4.4,1.4l4.4,2.6l4.4,1.9l4.4,1.8l4.4,1.8
		l4.4,1.6l4.4,2.3l4.4,1.6l4.4,2.5l4.4,1.5l4.4,1.8l4.4,1.9l4.4,1.9l4.4,1.6l4.4,1.7l4.4,1.8l4.4,1h2.2 M92.3,153.2h348v-29h-348
		V153.2z"/>
	<line class="st1" x1="122.9" y1="124.2" x2="122.9" y2="8.2"/>
	<line class="st0" x1="122.9" y1="153.2" x2="122.9" y2="124.2"/>
	<text transform="matrix(1 0 0 1 145.9648 141.7148)" class="st2 st3">molly</text>
	<line class="st1" x1="192.5" y1="124.2" x2="192.5" y2="8.2"/>
	<line class="st0" x1="192.5" y1="153.2" x2="192.5" y2="124.2"/>
	<text transform="matrix(1 0 0 1 196.0117 141.7148)" class="st2 st3">’s</text>
	<line class="st1" x1="206.8" y1="124.2" x2="206.8" y2="8.2"/>
	<line class="st0" x1="206.8" y1="153.2" x2="206.8" y2="124.2"/>
	<text transform="matrix(1 0 0 1 221.4492 141.7148)" class="st2 st3">from</text>
	<line class="st1" x1="255.7" y1="124.2" x2="255.7" y2="8.2"/>
	<line class="st0" x1="255.7" y1="153.2" x2="255.7" y2="124.2"/>
	<text transform="matrix(1 0 0 1 308.0898 141.7148)" class="st2 st3">branning</text>
	<line class="st1" x1="396.2" y1="124.2" x2="396.2" y2="8.2"/>
	<path class="st0" d="M396.2,153.2v-29 M92.3,182.2h348v-29h-348V182.2z"/>
	<line class="st1" x1="122.9" y1="124.2" x2="122.9" y2="8.2"/>
	<line class="st0" x1="122.9" y1="182.2" x2="122.9" y2="153.2"/>
	<text transform="matrix(1 0 0 1 129.2852 170.7461)" class="st2 st3">m</text>
	<line class="st1" x1="143.6" y1="124.2" x2="143.6" y2="8.2"/>
	<line class="st0" x1="143.6" y1="182.2" x2="143.6" y2="153.2"/>
	<text transform="matrix(1 0 0 1 144.5273 170.7461)" class="st2 st3">A</text>
	<line class="st1" x1="150.6" y1="124.2" x2="150.6" y2="8.2"/>
	<line class="st0" x1="150.6" y1="182.2" x2="150.6" y2="153.2"/>
	<text transform="matrix(1 0 0 1 163.1289 170.7461)" class="st2 st3">L</text>
	<line class="st1" x1="180.9" y1="124.2" x2="180.9" y2="8.2"/>
	<line class="st0" x1="180.9" y1="182.2" x2="180.9" y2="153.2"/>
	<text transform="matrix(1 0 0 1 185.207 170.7461)" class="st2 st3">i</text>
	<line class="st1" x1="192.5" y1="124.2" x2="192.5" y2="8.2"/>
	<line class="st0" x1="192.5" y1="182.2" x2="192.5" y2="153.2"/>
	<text transform="matrix(1 0 0 1 197.3242 170.7461)" class="st2 st3">z</text>
	<line class="st1" x1="206.8" y1="124.2" x2="206.8" y2="8.2"/>
	<line class="st0" x1="206.8" y1="182.2" x2="206.8" y2="153.2"/>
	<text transform="matrix(1 0 0 1 210.7617 170.7461)" class="st2 st3">f</text>
	<line class="st1" x1="218.2" y1="124.2" x2="218.2" y2="8.2"/>
	<line class="st0" x1="218.2" y1="182.2" x2="218.2" y2="153.2"/>
	<text transform="matrix(1 0 0 1 220.0117 170.7461)" class="st2 st3">ô</text>
	<line class="st1" x1="225.2" y1="124.2" x2="225.2" y2="8.2"/>
	<line class="st0" x1="225.2" y1="182.2" x2="225.2" y2="153.2"/>
	<text transform="matrix(1 0 0 1 228.6445 170.7461)" class="st2 st3">5</text>
	<line class="st1" x1="236.8" y1="124.2" x2="236.8" y2="8.2"/>
	<line class="st0" x1="236.8" y1="182.2" x2="236.8" y2="153.2"/>
	<text transform="matrix(1 0 0 1 242.207 170.7461)" class="st2 st3">m</text>
	<line class="st1" x1="255.7" y1="124.2" x2="255.7" y2="8.2"/>
	<line class="st0" x1="255.7" y1="182.2" x2="255.7" y2="153.2"/>
	<text transform="matrix(1 0 0 1 258.2852 170.7461)" class="st2 st3">b</text>
	<line class="st1" x1="266.1" y1="124.2" x2="266.1" y2="8.2"/>
	<line class="st0" x1="266.1" y1="182.2" x2="266.1" y2="153.2"/>
	<text transform="matrix(1 0 0 1 273.043 170.7461)" class="st2 st3">ô</text>
	<line class="st1" x1="283.5" y1="124.2" x2="283.5" y2="8.2"/>
	<line class="st0" x1="283.5" y1="182.2" x2="283.5" y2="153.2"/>
	<text transform="matrix(1 0 0 1 302.4414 170.7461)" class="st2 st3">æ</text>
	<line class="st1" x1="328.3" y1="124.2" x2="328.3" y2="8.2"/>
	<line class="st0" x1="328.3" y1="182.2" x2="328.3" y2="153.2"/>
	<text transform="matrix(1 0 0 1 329.8086 170.7461)" class="st2 st3">n</text>
	<line class="st1" x1="336.4" y1="124.2" x2="336.4" y2="8.2"/>
	<line class="st0" x1="336.4" y1="182.2" x2="336.4" y2="153.2"/>
	<text transform="matrix(1 0 0 1 349.1211 170.7461)" class="st2 st3">I</text>
	<line class="st1" x1="364.9" y1="124.2" x2="364.9" y2="8.2"/>
	<line class="st0" x1="364.9" y1="182.2" x2="364.9" y2="153.2"/>
	<text transform="matrix(1 0 0 1 378.043 170.7461)" class="st2 st3">N</text>
	<line class="st1" x1="396.2" y1="124.2" x2="396.2" y2="8.2"/>
	<path class="st0" d="M396.2,182.2v-29 M92.3,211.2h348v-29h-348V211.2z"/>
	<line class="st1" x1="255.7" y1="124.2" x2="255.7" y2="8.2"/>
	<line class="st0" x1="255.7" y1="211.2" x2="255.7" y2="182.2"/>
	<text transform="matrix(1 0 0 1 308.0898 199.793)" class="st2 st3">branning</text>
	<line class="st1" x1="396.2" y1="124.2" x2="396.2" y2="8.2"/>
	<path class="st0" d="M396.2,211.2v-29 M92.3,240.2h348v-29h-348V240.2z"/>
	<line class="st1" x1="255.7" y1="124.2" x2="255.7" y2="8.2"/>
	<line class="st0" x1="255.7" y1="240.2" x2="255.7" y2="211.2"/>
	<text transform="matrix(1 0 0 1 289.3711 228.7148)" class="st2 st3">1</text>
	<line class="st1" x1="328.3" y1="124.2" x2="328.3" y2="8.2"/>
	<line class="st0" x1="328.3" y1="240.2" x2="328.3" y2="211.2"/>
	<text transform="matrix(1 0 0 1 359.6836 228.7148)" class="st2 st3">2</text>
	<line class="st1" x1="396.2" y1="124.2" x2="396.2" y2="8.2"/>
	<line class="st0" x1="396.2" y1="240.2" x2="396.2" y2="211.2"/>
	<rect x="92.3" y="8.2" class="st4" width="348" height="232"/>
	<text transform="matrix(1 0 0 1 78.7695 127.1914)" class="st2 st3">40</text>
	<line class="st4" x1="89.8" y1="124.2" x2="92.3" y2="124.2"/>
	<text transform="matrix(1 0 0 1 73.8477 11.2773)" class="st2 st3">200</text>
	<line class="st4" x1="89.8" y1="8.2" x2="92.3" y2="8.2"/>
	<text transform="matrix(1 0 0 1 73.8477 83.7539)" class="st2 st3">100</text>
	<line class="st4" x1="89.8" y1="80.7" x2="92.3" y2="80.7"/>
	<text transform="matrix(1 0 0 1 73.8477 47.5195)" class="st2 st3">150</text>
	<line class="st4" x1="89.8" y1="44.4" x2="92.3" y2="44.4"/>
	<text transform="matrix(0 -1 1 0 60.2773 144.832)" class="st2 st3">Pitch (Hz)</text>
	<text transform="matrix(1 0 0 1 249.2852 264.2383)" class="st2 st3">Time (s)</text>
	<text transform="matrix(1 0 0 1 89.8086 252.832)" class="st2 st3">0</text>
	<line class="st4" x1="92.3" y1="242.7" x2="92.3" y2="240.2"/>
	<text transform="matrix(1 0 0 1 429.043 252.832)" class="st2 st3">1.49</text>
	<text transform="matrix(1 0 0 1 446.4805 252.832)" class="st2 st3">3</text>
	<line class="st4" x1="440.3" y1="242.7" x2="440.3" y2="240.2"/>
</g>
<path class="st0" d="M126.7,88.1h2.2l4.4-0.1l4.4,0.1l4.4,0l4.4,0l4.4,0l4.4,0l4.4,0.2l4.4,0.5l4.4,0.6l4.4,0.6l4.4,0.5l4.4,0.7
	l4.4,0.6l4.4,0.6l4.4,0.1h2.2 M222.9,97.1h2.2l4.4,0.4l4.4,0.6l4.4,0.7l4.4,0.6l4.4,0.5l4.4,0.5l4.4,0.2h2.2 M266.6,101.2h2.2l4.4-1
	l4.4-1l4.4-2.2l4.4-3.6l4.4-2.7L295,87l4.4-4l4.4-3.3l4.4-2.7l4.4-1.6l4.4-1.2l4.4,0.4l4.4,1.4l4.4,2.7l4.4,2.1l4.4,1.8l4.4,2
	l4.4,1.6l4.4,2.3l4.4,2.8l4.4,1.4l4.4,1.7l4.4,2l4.4,2l4.4,1.9l4.4,1.6l4.4,1.9l4.4,1.9l4.4,2.8h2.2 M126.7,88.1h2.2l4.4-0.1
	l4.4,0.1l4.4,0l4.4,0l4.4,0l4.4,0l4.4,0.2l4.4,0.5l4.4,0.6l4.4,0.5l4.4,0.5l4.4,0.6l4.4,0.5l4.4,0.5l4.4,0.1h2.2 M222.9,96.4h2.2
	l4.4,0.4l4.4,0.6l4.4,0.6l4.4,0.6l4.4,0.4l4.4,0.5l4.4,0.2h2.2 M266.6,101.9h2.2l4.4,0.2l4.4-0.5l4.4-1l4.4-0.8l4.4-1.1l4.4-3.4
	l4.4-3l4.4-4.5l4.4-4.5l4.4-4.4l4.4-2.9l4.4-1.6l4.4-0.2l4.4,2.5l4.4,2.4l4.4,1.9l4.4,2.1l4.4,1.7l4.4,2.7l4.4,2.4l4.4,1.7l4.4,2.1
	l4.4,2l4.4,2.1l4.4,2.1l4.4,1.9l4.4,1.1l4.4,2.9h2.2 M126.7,88.1h2.2l4.4-0.1l4.4,0.1l4.4,0l4.4,0l4.4,0l4.4,0l4.4,0.2l4.4,0.4
	l4.4,0.5l4.4,0.4l4.4,0.5l4.4,0.5l4.4,0.5l4.4,0.4l4.4,0.6h2.2 M218.5,95.6h2.2l4.4,0.1l4.4,0.3l4.4,0.6l4.4,0.5l4.4,0.5l4.4,0.4
	l4.4,0.4h2.2 M266.6,101h2.2l4.4,0.4l4.4,0.4l4.4,0.3l4.4-0.2l4.4-0.9l4.4-1l4.4-1l4.4-2.4l4.4-2.8l4.4-4.6l4.4-5.4l4.4-5.3l4.4-3.1
	l4.4-0.5l4.4,2.1l4.4,2l4.4,2.1l4.4,1.8l4.4,2.9l4.4,2.6l4.4,1.7l4.4,2.2l4.4,2.3l4.4,2.2l4.4,2.3l4.4,2l4.4,1.9l4.4,2.1h2.2
	 M126.7,88.1h2.2l4.4-0.1l4.4,0.1l4.4,0l4.4,0l4.4,0l4.4,0l4.4,0.2l4.4,0.4l4.4,0.5l4.4,0.4l4.4,0.4l4.4,0.5l4.4,0.4l4.4,0.3
	l4.4-0.1h2.2 M222.9,95.4h2.2l4.4,0.2l4.4,0.6l4.4,0.5l4.4,0.4l4.4,0.3l4.4,0.4h2.2 M266.6,100.1h2.2l4.4,0.4l4.4,0.5l4.4,0.4
	l4.4,0.5l4.4,0.4l4.4-0.3l4.4-0.9l4.4-0.8l4.4-0.9l4.4-1.5l4.4-2.6l4.4-3.9l4.4-4.9l4.4-9.1l4.4-2l4.4,1.6l4.4,2.3l4.4,2.1l4.4,2.9
	l4.4,2.8l4.4,1.9l4.4,2.5l4.4,2.3l4.4,2.4l4.4,2.5l4.4,2.1l4.4,2l4.4,2.4l4.4,1.5h2.2"/>
</svg>
