<?xml version="1.0" encoding="utf-8"?>
<!-- Generator: Adobe Illustrator 22.0.1, SVG Export Plug-In . SVG Version: 6.00 Build 0)  -->
<svg version="1.1" id="Layer_1" xmlns="http://www.w3.org/2000/svg" xmlns:xlink="http://www.w3.org/1999/xlink" x="0px" y="0px"
	 viewBox="0 0 432 288" style="enable-background:new 0 0 432 288;" xml:space="preserve">
<style type="text/css">
	.st0{fill:none;stroke:#000000;stroke-width:0.375;stroke-linejoin:bevel;stroke-miterlimit:10;}
	.st1{fill:none;stroke:#000000;stroke-width:0.375;stroke-linejoin:bevel;stroke-miterlimit:10;stroke-dasharray:0.72,1.32;}
	.st2{fill:none;stroke:#000000;stroke-width:0.75;stroke-linejoin:bevel;stroke-miterlimit:10;}
</style>
<g>
	<path class="st0" d="M119.2,97.2h1.9l3.8-0.2l3.8,0.1l3.8-0.1l3.8,0l3.8,0l3.8,0l3.8,0l3.8,0.1l3.8,0l3.8,0l3.8,0l3.8-0.1L171,97
		l3.8,0.1l3.8-0.1h1.9 M195.9,96.9h1.9l3.8,0l3.8,0.1l3.8,0.3l3.8,0.9l3.8,1.3l3.8,1.3l3.8,1.4l3.8,1.5l3.8,2.3l3.8,0.8l3.8,1.1
		l3.8,1.6l3.8,0.9l3.8-5.6l3.8-7.3l3.8-13.3l3.8-0.3l3.8,1.1l3.8,1.3l3.8,1.4l3.8,1.3l3.8,1.3l3.8,0.9l3.8,2.1l3.8,1.2l3.8,1.6
		l3.8,1l3.8,1.4l3.8,1.5l3.8,1.2l3.8,1.2l3.8,1.3l3.8,1.4l3.8,1.4l3.8,1.5l3.8,1.2l3.8,1.2l3.8,1.4l3.8,1.3l3.8,1.4l3.8,1l3.8,1h1.9
		 M58.4,162.3h348v-29h-348V162.3z"/>
	<line class="st1" x1="107.5" y1="133.3" x2="107.5" y2="17.3"/>
	<line class="st0" x1="107.5" y1="162.3" x2="107.5" y2="133.3"/>
	<g>
		<path d="M134.6,150.8v-0.4l0.4,0c0.1,0,0.1,0,0.2-0.1s0.1-0.1,0.1-0.2v-2.5c0-0.2,0-0.3,0-0.4c0-0.1-0.1-0.2-0.1-0.3
			s-0.2-0.2-0.3-0.2c-0.1,0-0.3-0.1-0.4-0.1c-0.1,0-0.2,0-0.3,0c-0.1,0-0.2,0-0.3,0.1s-0.2,0.1-0.3,0.1c-0.1,0-0.2,0.1-0.3,0.1v3.3
			c0,0.1,0,0.1,0.1,0.2s0.1,0.1,0.2,0.1l0.4,0v0.4h-2.2v-0.4l0.4,0c0.1,0,0.1,0,0.2-0.1c0,0,0.1-0.1,0.1-0.2v-2.6c0-0.1,0-0.3,0-0.4
			s-0.1-0.2-0.2-0.3c-0.1-0.1-0.2-0.1-0.3-0.2s-0.2-0.1-0.4-0.1c-0.1,0-0.2,0-0.3,0c-0.1,0-0.2,0-0.3,0.1c-0.1,0-0.2,0.1-0.3,0.1
			c-0.1,0-0.2,0.1-0.2,0.1v3.3c0,0.1,0,0.1,0.1,0.2c0,0,0.1,0.1,0.2,0.1l0.4,0v0.4h-2.3v-0.4l0.5,0c0.1,0,0.1,0,0.2-0.1
			s0.1-0.1,0.1-0.2v-3.5h-0.7v-0.3l1.2-0.4h0.4v0.5c0.1-0.1,0.2-0.1,0.4-0.2c0.1-0.1,0.3-0.1,0.4-0.2c0.1-0.1,0.3-0.1,0.4-0.2
			c0.1,0,0.3-0.1,0.4-0.1c0.1,0,0.3,0,0.4,0.1c0.1,0,0.2,0.1,0.3,0.2c0.1,0.1,0.2,0.1,0.2,0.2c0.1,0.1,0.1,0.2,0.2,0.2
			c0.1-0.1,0.2-0.1,0.4-0.2c0.1-0.1,0.3-0.2,0.5-0.2c0.2-0.1,0.3-0.1,0.5-0.2s0.3-0.1,0.4-0.1c0.3,0,0.5,0,0.6,0.1s0.3,0.2,0.4,0.4
			c0.1,0.1,0.2,0.3,0.2,0.5s0.1,0.4,0.1,0.5v2.8c0,0.1,0,0.1,0.1,0.2s0.1,0.1,0.1,0.1l0.5,0v0.4H134.6z"/>
		<path d="M142.1,148.4c0,0.4-0.1,0.7-0.2,1s-0.3,0.6-0.5,0.8c-0.2,0.2-0.5,0.4-0.7,0.5s-0.6,0.2-1,0.2c-0.4,0-0.7-0.1-1-0.2
			c-0.3-0.1-0.5-0.3-0.7-0.5s-0.4-0.5-0.5-0.8c-0.1-0.3-0.2-0.6-0.2-1c0-0.4,0.1-0.7,0.2-1c0.1-0.3,0.3-0.6,0.5-0.8s0.5-0.4,0.8-0.5
			s0.6-0.2,1-0.2s0.7,0.1,1,0.2c0.3,0.1,0.5,0.3,0.7,0.5c0.2,0.2,0.4,0.5,0.5,0.8C142.1,147.7,142.1,148,142.1,148.4z M141.1,148.4
			c0-0.3,0-0.5-0.1-0.8c-0.1-0.3-0.1-0.5-0.2-0.7c-0.1-0.2-0.2-0.3-0.4-0.5c-0.2-0.1-0.4-0.2-0.6-0.2c-0.2,0-0.4,0.1-0.6,0.2
			c-0.2,0.1-0.3,0.3-0.4,0.5c-0.1,0.2-0.2,0.4-0.2,0.7s-0.1,0.5-0.1,0.8c0,0.3,0,0.5,0.1,0.8c0.1,0.2,0.1,0.5,0.2,0.7
			s0.2,0.3,0.4,0.5c0.2,0.1,0.4,0.2,0.6,0.2c0.2,0,0.4-0.1,0.6-0.2s0.3-0.3,0.4-0.5c0.1-0.2,0.2-0.4,0.2-0.7
			C141.1,148.9,141.1,148.6,141.1,148.4z"/>
		<path d="M142.7,150.8v-0.4l0.5,0c0,0,0.1,0,0.1-0.1s0.1-0.1,0.1-0.1v-6h-0.8v-0.3l1.3-0.4h0.4v6.7c0,0,0,0.1,0.1,0.1
			c0,0,0.1,0.1,0.1,0.1l0.5,0v0.4H142.7z"/>
		<path d="M145.7,150.8v-0.4l0.5,0c0,0,0.1,0,0.1-0.1s0.1-0.1,0.1-0.1v-6h-0.8v-0.3l1.3-0.4h0.4v6.7c0,0,0,0.1,0.1,0.1
			c0,0,0.1,0.1,0.1,0.1l0.5,0v0.4H145.7z"/>
		<path d="M153,146.4l-1.9,4.7c0,0.1-0.1,0.2-0.1,0.3c-0.1,0.1-0.1,0.3-0.2,0.4s-0.2,0.3-0.3,0.5c-0.1,0.1-0.2,0.3-0.3,0.4
			c-0.1,0.1-0.3,0.2-0.4,0.3s-0.3,0.1-0.5,0.1c-0.1,0-0.2,0-0.3,0c-0.1,0-0.2-0.1-0.2-0.1c-0.1-0.1-0.1-0.1-0.1-0.2
			c0-0.1,0-0.1,0-0.2c0-0.1,0-0.2,0.1-0.3s0.1-0.2,0.2-0.3l0.9,0.4c0.1-0.1,0.2-0.2,0.2-0.3c0.1-0.1,0.2-0.3,0.2-0.4
			c0.1-0.1,0.1-0.3,0.2-0.4s0.1-0.3,0.1-0.4l-1.7-4.3l-0.5-0.1V146h2.2v0.4l-0.5,0c-0.1,0-0.1,0-0.1,0.1c0,0,0,0.1,0,0.1l1.2,2.9
			l1.2-2.9c0-0.1,0-0.1,0-0.1c0,0-0.1-0.1-0.1-0.1l-0.5,0V146h1.8v0.4L153,146.4z"/>
	</g>
	<line class="st1" x1="173" y1="133.3" x2="173" y2="17.3"/>
	<line class="st0" x1="173" y1="162.3" x2="173" y2="133.3"/>
	<g>
		<path d="M177.6,144.6c0,0.2,0,0.5-0.1,0.7c-0.1,0.2-0.2,0.4-0.3,0.5c-0.1,0.2-0.2,0.3-0.4,0.4c-0.1,0.1-0.2,0.2-0.3,0.3l-0.4-0.1
			c0.1-0.1,0.2-0.2,0.3-0.3c0.1-0.1,0.2-0.2,0.3-0.4c0.1-0.1,0.1-0.3,0.2-0.4c0-0.1,0.1-0.3,0.1-0.4c0,0,0-0.1,0-0.1
			c0,0,0-0.1,0-0.1h-0.6c0,0-0.1-0.1-0.1-0.1c0,0,0-0.1-0.1-0.1c0,0,0-0.1,0-0.2c0-0.2,0.1-0.3,0.2-0.4c0.1-0.1,0.3-0.2,0.4-0.2
			c0.2,0,0.4,0.1,0.6,0.2C177.5,144.1,177.6,144.3,177.6,144.6z"/>
		<path d="M181.6,149.3c0,0.2,0,0.5-0.1,0.7c-0.1,0.2-0.2,0.4-0.4,0.5s-0.4,0.2-0.6,0.3c-0.2,0.1-0.5,0.1-0.8,0.1
			c-0.2,0-0.3,0-0.4,0c-0.1,0-0.3,0-0.4-0.1s-0.2-0.1-0.3-0.1c-0.1,0-0.2-0.1-0.2-0.1v-1.3h0.5l0.1,0.8c0.1,0.1,0.2,0.1,0.4,0.2
			s0.3,0.1,0.5,0.1c0.1,0,0.3,0,0.4-0.1c0.1,0,0.2-0.1,0.3-0.2c0.1-0.1,0.1-0.2,0.2-0.2s0.1-0.2,0.1-0.3c0-0.1,0-0.3-0.1-0.4
			s-0.1-0.2-0.2-0.3c-0.1-0.1-0.2-0.2-0.4-0.2s-0.3-0.2-0.5-0.3c-0.2-0.1-0.3-0.2-0.5-0.3c-0.1-0.1-0.3-0.2-0.4-0.3
			c-0.1-0.1-0.2-0.2-0.2-0.3c0-0.1-0.1-0.3-0.1-0.4c0-0.2,0-0.4,0.1-0.6c0.1-0.2,0.2-0.3,0.3-0.5s0.3-0.2,0.6-0.3s0.5-0.1,0.8-0.1
			c0.1,0,0.3,0,0.4,0c0.1,0,0.3,0,0.4,0.1c0.1,0,0.2,0,0.3,0.1s0.2,0.1,0.2,0.1v1.2h-0.5l-0.1-0.7c-0.1-0.1-0.2-0.1-0.3-0.2
			c-0.1,0-0.3-0.1-0.4-0.1c-0.3,0-0.5,0.1-0.6,0.2s-0.2,0.3-0.2,0.5c0,0.1,0,0.2,0.1,0.3c0,0.1,0.1,0.2,0.2,0.2s0.2,0.2,0.3,0.2
			c0.1,0.1,0.3,0.2,0.5,0.3c0.2,0.1,0.3,0.2,0.5,0.2c0.1,0.1,0.3,0.2,0.4,0.3s0.2,0.2,0.3,0.3S181.6,149.2,181.6,149.3z"/>
	</g>
	<line class="st1" x1="185.3" y1="133.3" x2="185.3" y2="17.3"/>
	<line class="st0" x1="185.3" y1="162.3" x2="185.3" y2="133.3"/>
	<g>
		<path d="M196.8,144c0,0.1,0,0.2-0.1,0.3s-0.1,0.1-0.1,0.2c-0.1,0-0.1,0.1-0.2,0.1s-0.1,0-0.1,0c0,0,0,0-0.1-0.1
			c0,0-0.1-0.1-0.2-0.1c-0.1,0-0.1-0.1-0.2-0.2c-0.1-0.1-0.1-0.1-0.2-0.1c-0.1,0-0.1-0.1-0.2-0.1c0,0-0.1,0-0.1-0.1
			c-0.1,0-0.1,0.1-0.2,0.2c-0.1,0.1-0.1,0.2-0.2,0.3c-0.1,0.1-0.1,0.3-0.1,0.4c0,0.2-0.1,0.4-0.1,0.6v0.6h1.2v0.5h-1.2v3.6
			c0,0.1,0,0.1,0.1,0.2s0.1,0.1,0.1,0.1l0.6,0v0.4h-2.4v-0.4l0.5,0c0.1,0,0.1,0,0.1-0.1s0.1-0.1,0.1-0.2v-3.6h-0.6v-0.3l0.6-0.2
			c0-0.2,0-0.3,0-0.4c0-0.1,0-0.3,0.1-0.4c0-0.1,0.1-0.2,0.1-0.3c0-0.1,0.1-0.2,0.2-0.3c0.1-0.2,0.2-0.4,0.3-0.5
			c0.1-0.1,0.3-0.3,0.4-0.3s0.3-0.2,0.5-0.2c0.2,0,0.3-0.1,0.5-0.1c0.1,0,0.3,0,0.4,0s0.2,0.1,0.3,0.1c0.1,0.1,0.1,0.1,0.2,0.2
			C196.7,143.9,196.8,143.9,196.8,144z"/>
		<path d="M199.5,147c-0.1-0.1-0.1-0.1-0.2-0.2c-0.1-0.1-0.2-0.1-0.3-0.1c-0.2,0-0.3,0.1-0.5,0.2c-0.2,0.1-0.3,0.3-0.5,0.5v2.8
			c0,0.1,0,0.1,0.1,0.2s0.1,0.1,0.2,0.1l0.7,0v0.4h-2.5v-0.4l0.5,0c0.1,0,0.1,0,0.1-0.1s0.1-0.1,0.1-0.2v-3.5h-0.7v-0.3l1.2-0.4h0.4
			v0.9c0.1-0.1,0.2-0.2,0.3-0.3c0.1-0.1,0.2-0.2,0.3-0.3s0.2-0.2,0.4-0.3c0.1-0.1,0.2-0.1,0.4-0.1c0.1,0,0.1,0,0.2,0
			c0.1,0,0.1,0,0.2,0c0.1,0,0.1,0,0.2,0c0,0,0.1,0,0.1,0.1v1H199.5z"/>
		<path d="M205.1,148.4c0,0.4-0.1,0.7-0.2,1s-0.3,0.6-0.5,0.8c-0.2,0.2-0.5,0.4-0.7,0.5s-0.6,0.2-1,0.2c-0.4,0-0.7-0.1-1-0.2
			c-0.3-0.1-0.5-0.3-0.7-0.5s-0.4-0.5-0.5-0.8c-0.1-0.3-0.2-0.6-0.2-1c0-0.4,0.1-0.7,0.2-1c0.1-0.3,0.3-0.6,0.5-0.8s0.5-0.4,0.8-0.5
			s0.6-0.2,1-0.2s0.7,0.1,1,0.2c0.3,0.1,0.5,0.3,0.7,0.5c0.2,0.2,0.4,0.5,0.5,0.8C205.1,147.7,205.1,148,205.1,148.4z M204.1,148.4
			c0-0.3,0-0.5-0.1-0.8c-0.1-0.3-0.1-0.5-0.2-0.7c-0.1-0.2-0.2-0.3-0.4-0.5c-0.2-0.1-0.4-0.2-0.6-0.2c-0.2,0-0.4,0.1-0.6,0.2
			c-0.2,0.1-0.3,0.3-0.4,0.5c-0.1,0.2-0.2,0.4-0.2,0.7s-0.1,0.5-0.1,0.8c0,0.3,0,0.5,0.1,0.8c0.1,0.2,0.1,0.5,0.2,0.7
			s0.2,0.3,0.4,0.5c0.2,0.1,0.4,0.2,0.6,0.2c0.2,0,0.4-0.1,0.6-0.2s0.3-0.3,0.4-0.5c0.1-0.2,0.2-0.4,0.2-0.7
			C204,148.9,204.1,148.6,204.1,148.4z"/>
		<path d="M211.5,150.8v-0.4l0.4,0c0.1,0,0.1,0,0.2-0.1s0.1-0.1,0.1-0.2v-2.5c0-0.2,0-0.3,0-0.4c0-0.1-0.1-0.2-0.1-0.3
			s-0.2-0.2-0.3-0.2c-0.1,0-0.3-0.1-0.4-0.1c-0.1,0-0.2,0-0.3,0c-0.1,0-0.2,0-0.3,0.1s-0.2,0.1-0.3,0.1c-0.1,0-0.2,0.1-0.3,0.1v3.3
			c0,0.1,0,0.1,0.1,0.2s0.1,0.1,0.2,0.1l0.4,0v0.4h-2.2v-0.4l0.4,0c0.1,0,0.1,0,0.2-0.1c0,0,0.1-0.1,0.1-0.2v-2.6c0-0.1,0-0.3,0-0.4
			s-0.1-0.2-0.2-0.3c-0.1-0.1-0.2-0.1-0.3-0.2s-0.2-0.1-0.4-0.1c-0.1,0-0.2,0-0.3,0c-0.1,0-0.2,0-0.3,0.1c-0.1,0-0.2,0.1-0.3,0.1
			c-0.1,0-0.2,0.1-0.2,0.1v3.3c0,0.1,0,0.1,0.1,0.2c0,0,0.1,0.1,0.2,0.1l0.4,0v0.4h-2.3v-0.4l0.5,0c0.1,0,0.1,0,0.2-0.1
			s0.1-0.1,0.1-0.2v-3.5h-0.7v-0.3l1.2-0.4h0.4v0.5c0.1-0.1,0.2-0.1,0.4-0.2c0.1-0.1,0.3-0.1,0.4-0.2c0.1-0.1,0.3-0.1,0.4-0.2
			c0.1,0,0.3-0.1,0.4-0.1c0.1,0,0.3,0,0.4,0.1c0.1,0,0.2,0.1,0.3,0.2c0.1,0.1,0.2,0.1,0.2,0.2c0.1,0.1,0.1,0.2,0.2,0.2
			c0.1-0.1,0.2-0.1,0.4-0.2c0.1-0.1,0.3-0.2,0.5-0.2c0.2-0.1,0.3-0.1,0.5-0.2s0.3-0.1,0.4-0.1c0.3,0,0.5,0,0.6,0.1s0.3,0.2,0.4,0.4
			c0.1,0.1,0.2,0.3,0.2,0.5s0.1,0.4,0.1,0.5v2.8c0,0.1,0,0.1,0.1,0.2s0.1,0.1,0.1,0.1l0.5,0v0.4H211.5z"/>
	</g>
	<line class="st1" x1="220.1" y1="133.3" x2="220.1" y2="17.3"/>
	<line class="st0" x1="220.1" y1="162.3" x2="220.1" y2="133.3"/>
	<g>
		<path d="M277.6,148.1c0,0.4-0.1,0.7-0.2,1c-0.1,0.3-0.3,0.6-0.5,0.8c-0.2,0.2-0.5,0.4-0.9,0.6s-0.8,0.2-1.3,0.2h-1.4v-6.6h-0.8
			v-0.3l1.3-0.4h0.4v2.8c0.1,0,0.1-0.1,0.2-0.1c0.1,0,0.2-0.1,0.3-0.1c0.1,0,0.3-0.1,0.4-0.1s0.3,0,0.4,0c0.3,0,0.6,0.1,0.9,0.2
			s0.5,0.3,0.6,0.5c0.2,0.2,0.3,0.5,0.4,0.7S277.6,147.8,277.6,148.1z M276.6,148.3c0-0.6-0.1-1.1-0.4-1.4c-0.3-0.3-0.6-0.5-1.1-0.5
			c-0.1,0-0.1,0-0.2,0c-0.1,0-0.2,0-0.2,0s-0.2,0-0.2,0.1c-0.1,0-0.1,0-0.2,0.1v3.7c0.1,0,0.1,0,0.2,0c0,0,0.1,0,0.2,0h0.2
			c0.3,0,0.6,0,0.8-0.1s0.4-0.2,0.6-0.3s0.3-0.4,0.4-0.6S276.6,148.7,276.6,148.3z"/>
		<path d="M281.4,147c-0.1-0.1-0.1-0.1-0.2-0.2c-0.1-0.1-0.2-0.1-0.3-0.1c-0.2,0-0.3,0.1-0.5,0.2s-0.3,0.3-0.5,0.5v2.8
			c0,0.1,0,0.1,0.1,0.2s0.1,0.1,0.2,0.1l0.7,0v0.4h-2.5v-0.4l0.5,0c0.1,0,0.1,0,0.1-0.1c0,0,0.1-0.1,0.1-0.2v-3.5h-0.7v-0.3l1.2-0.4
			h0.4v0.9c0.1-0.1,0.2-0.2,0.3-0.3s0.2-0.2,0.3-0.3s0.2-0.2,0.4-0.3c0.1-0.1,0.2-0.1,0.4-0.1c0.1,0,0.1,0,0.2,0s0.1,0,0.2,0
			c0.1,0,0.1,0,0.2,0c0,0,0.1,0,0.1,0.1v1H281.4z"/>
		<path d="M285.3,150.8l-0.1-0.6c-0.2,0.1-0.4,0.3-0.5,0.4c-0.1,0-0.2,0.1-0.3,0.1c-0.1,0-0.2,0.1-0.3,0.1c-0.1,0-0.2,0.1-0.3,0.1
			s-0.2,0-0.3,0c-0.2,0-0.3,0-0.5-0.1c-0.2-0.1-0.3-0.2-0.4-0.3c-0.1-0.1-0.2-0.3-0.3-0.4s-0.1-0.4-0.1-0.6c0-0.1,0-0.2,0-0.4
			c0-0.1,0.1-0.2,0.1-0.3c0.1-0.1,0.2-0.2,0.3-0.3s0.3-0.2,0.5-0.3s0.5-0.2,0.8-0.3c0.3-0.1,0.7-0.2,1.1-0.3v-0.4
			c0-0.3-0.1-0.6-0.2-0.7c-0.1-0.2-0.4-0.2-0.7-0.2c-0.2,0-0.3,0-0.4,0c-0.1,0-0.2,0.1-0.3,0.1v0.9h-0.7c0,0-0.1,0-0.1,0
			c0,0-0.1,0-0.1,0s-0.1-0.1-0.1-0.1s0-0.1,0-0.1c0-0.2,0.1-0.4,0.2-0.5c0.1-0.1,0.3-0.3,0.5-0.4c0.2-0.1,0.4-0.2,0.7-0.2
			c0.2,0,0.5-0.1,0.7-0.1c0.3,0,0.6,0,0.8,0.1c0.2,0.1,0.4,0.2,0.5,0.3c0.1,0.1,0.2,0.3,0.3,0.5s0.1,0.4,0.1,0.6v2.8
			c0,0.1,0,0.1,0.1,0.2s0.1,0.1,0.1,0.1l0.5,0v0.4H285.3z M285.2,148.1c-0.4,0.1-0.8,0.2-1.1,0.3c-0.3,0.1-0.5,0.2-0.6,0.3
			c-0.1,0.1-0.2,0.2-0.3,0.3s-0.1,0.2-0.1,0.4c0,0.1,0,0.2,0.1,0.3c0,0.1,0.1,0.2,0.1,0.3s0.1,0.1,0.2,0.2c0.1,0,0.2,0.1,0.3,0.1
			c0.1,0,0.3,0,0.4-0.1c0.1,0,0.3-0.1,0.4-0.2c0.1-0.1,0.3-0.1,0.4-0.2V148.1z"/>
		<path d="M290.2,150.8v-0.4l0.4,0c0.1,0,0.1,0,0.1-0.1c0,0,0.1-0.1,0.1-0.2v-2.6c0-0.3-0.1-0.6-0.2-0.7c-0.1-0.2-0.4-0.2-0.7-0.2
			c-0.2,0-0.4,0-0.6,0.1c-0.2,0.1-0.4,0.1-0.5,0.2v3.3c0,0.1,0,0.1,0.1,0.2s0.1,0.1,0.2,0.1l0.4,0v0.4h-2.3v-0.4l0.5,0
			c0.1,0,0.1,0,0.2-0.1c0,0,0.1-0.1,0.1-0.2v-3.5h-0.7v-0.3l1.2-0.4h0.4v0.5c0.1-0.1,0.3-0.2,0.4-0.2c0.1-0.1,0.3-0.1,0.4-0.2
			c0.1-0.1,0.3-0.1,0.4-0.1c0.1,0,0.3-0.1,0.4-0.1c0.4,0,0.8,0.1,1,0.4c0.2,0.3,0.3,0.6,0.3,1.1v2.7c0,0.1,0,0.1,0.1,0.2
			s0.1,0.1,0.1,0.1l0.4,0v0.4H290.2z"/>
		<path d="M295.8,150.8v-0.4l0.4,0c0.1,0,0.1,0,0.1-0.1c0,0,0.1-0.1,0.1-0.2v-2.6c0-0.3-0.1-0.6-0.2-0.7c-0.1-0.2-0.4-0.2-0.7-0.2
			c-0.2,0-0.4,0-0.6,0.1c-0.2,0.1-0.4,0.1-0.5,0.2v3.3c0,0.1,0,0.1,0.1,0.2s0.1,0.1,0.2,0.1l0.4,0v0.4h-2.3v-0.4l0.5,0
			c0.1,0,0.1,0,0.2-0.1c0,0,0.1-0.1,0.1-0.2v-3.5h-0.7v-0.3l1.2-0.4h0.4v0.5c0.1-0.1,0.3-0.2,0.4-0.2c0.1-0.1,0.3-0.1,0.4-0.2
			c0.1-0.1,0.3-0.1,0.4-0.1c0.1,0,0.3-0.1,0.4-0.1c0.4,0,0.8,0.1,1,0.4c0.2,0.3,0.3,0.6,0.3,1.1v2.7c0,0.1,0,0.1,0.1,0.2
			s0.1,0.1,0.1,0.1l0.4,0v0.4H295.8z"/>
		<path d="M298.6,150.8v-0.4l0.5,0c0.1,0,0.1,0,0.2-0.1s0.1-0.1,0.1-0.2v-3.6h-0.7v-0.3l1.2-0.4h0.4v4.3c0,0.1,0,0.1,0.1,0.2
			s0.1,0.1,0.1,0.1l0.5,0v0.4H298.6z M300.4,144.3c0,0.1,0,0.2,0,0.2s-0.1,0.1-0.1,0.2s-0.1,0.1-0.2,0.1c-0.1,0-0.2,0-0.2,0
			s-0.2,0-0.2,0c-0.1,0-0.1-0.1-0.2-0.1s-0.1-0.1-0.1-0.2c0-0.1,0-0.2,0-0.2s0-0.2,0-0.2c0-0.1,0.1-0.1,0.1-0.2
			c0.1-0.1,0.1-0.1,0.2-0.1c0.1,0,0.2,0,0.2,0s0.2,0,0.2,0c0.1,0,0.1,0.1,0.2,0.1c0.1,0.1,0.1,0.1,0.1,0.2S300.4,144.2,300.4,144.3z
			"/>
		<path d="M304.5,150.8v-0.4l0.4,0c0.1,0,0.1,0,0.1-0.1s0.1-0.1,0.1-0.2v-2.6c0-0.3-0.1-0.6-0.2-0.7c-0.1-0.2-0.4-0.2-0.7-0.2
			c-0.2,0-0.4,0-0.6,0.1s-0.4,0.1-0.5,0.2v3.3c0,0.1,0,0.1,0.1,0.2s0.1,0.1,0.2,0.1l0.4,0v0.4h-2.3v-0.4l0.5,0c0.1,0,0.1,0,0.2-0.1
			s0.1-0.1,0.1-0.2v-3.5h-0.7v-0.3l1.2-0.4h0.4v0.5c0.1-0.1,0.3-0.2,0.4-0.2c0.1-0.1,0.3-0.1,0.4-0.2c0.1-0.1,0.3-0.1,0.4-0.1
			c0.1,0,0.3-0.1,0.4-0.1c0.4,0,0.8,0.1,1,0.4s0.3,0.6,0.3,1.1v2.7c0,0.1,0,0.1,0.1,0.2c0,0,0.1,0.1,0.1,0.1l0.4,0v0.4H304.5z"/>
		<path d="M311,146.6c0.1,0.1,0.1,0.3,0.2,0.4s0.1,0.3,0.1,0.5c0,0.3-0.1,0.5-0.2,0.7c-0.1,0.2-0.3,0.4-0.5,0.5
			c-0.2,0.1-0.4,0.2-0.7,0.3s-0.5,0.1-0.8,0.1c0,0.1-0.1,0.1-0.1,0.2c0,0.1,0,0.1,0,0.2s0,0.1,0,0.2c0,0,0,0.1,0,0.1
			c0.1,0,0.3,0,0.5,0.1s0.4,0,0.6,0.1c0.2,0,0.4,0.1,0.6,0.1c0.2,0.1,0.4,0.1,0.5,0.2c0.2,0.1,0.3,0.2,0.4,0.4s0.1,0.3,0.1,0.5
			c0,0.2-0.1,0.5-0.2,0.7c-0.1,0.2-0.3,0.4-0.6,0.6c-0.2,0.2-0.5,0.3-0.8,0.4s-0.7,0.2-1,0.2c-0.3,0-0.6,0-0.8-0.1
			c-0.2-0.1-0.4-0.2-0.6-0.3c-0.2-0.1-0.3-0.3-0.4-0.4s-0.1-0.4-0.1-0.6c0-0.1,0-0.3,0.1-0.4c0-0.1,0.1-0.3,0.2-0.4
			c0.1-0.1,0.2-0.2,0.3-0.3c0.1-0.1,0.3-0.1,0.5-0.2c0-0.1,0-0.1,0-0.1s0-0.1,0-0.1s0-0.1,0-0.1c0,0,0-0.1,0-0.1
			c0-0.1,0-0.3,0.1-0.4c0.1-0.2,0.2-0.3,0.4-0.5c-0.2,0-0.3-0.1-0.5-0.2c-0.2-0.1-0.3-0.2-0.4-0.3c-0.1-0.1-0.2-0.3-0.3-0.4
			c-0.1-0.2-0.1-0.4-0.1-0.6c0-0.3,0-0.5,0.1-0.7c0.1-0.2,0.2-0.4,0.4-0.5c0.2-0.1,0.4-0.3,0.6-0.3s0.5-0.1,0.8-0.1
			c0.1,0,0.2,0,0.3,0c0.1,0,0.2,0,0.3,0.1c0.1,0,0.2,0.1,0.3,0.1s0.2,0.1,0.2,0.1h1.3v0.5H311z M310.8,151.4c0-0.1,0-0.3-0.1-0.3
			s-0.2-0.2-0.3-0.2c-0.1-0.1-0.2-0.1-0.4-0.1s-0.3-0.1-0.4-0.1c-0.1,0-0.3,0-0.4-0.1c-0.1,0-0.3,0-0.3-0.1
			c-0.1,0.1-0.3,0.1-0.4,0.2c-0.1,0.1-0.2,0.2-0.2,0.2s-0.1,0.2-0.1,0.3c0,0.1,0,0.2,0,0.3c0,0.1,0,0.2,0.1,0.4
			c0.1,0.1,0.1,0.3,0.2,0.4c0.1,0.1,0.2,0.2,0.4,0.3c0.2,0.1,0.4,0.1,0.6,0.1c0.2,0,0.4,0,0.6-0.1c0.2-0.1,0.3-0.2,0.4-0.3
			s0.2-0.2,0.3-0.4S310.8,151.6,310.8,151.4z M310.3,147.5c0-0.2,0-0.3-0.1-0.5c0-0.1-0.1-0.3-0.2-0.4s-0.2-0.2-0.3-0.3
			s-0.2-0.1-0.4-0.1c-0.1,0-0.3,0-0.4,0.1c-0.1,0.1-0.2,0.1-0.3,0.2c-0.1,0.1-0.1,0.2-0.2,0.4s-0.1,0.3-0.1,0.5c0,0.2,0,0.3,0.1,0.5
			c0,0.1,0.1,0.3,0.2,0.4c0.1,0.1,0.2,0.2,0.3,0.3c0.1,0.1,0.3,0.1,0.4,0.1c0.2,0,0.3,0,0.4-0.1s0.2-0.2,0.3-0.3
			c0.1-0.1,0.1-0.2,0.2-0.4S310.3,147.6,310.3,147.5z"/>
	</g>
	<line class="st1" x1="360.4" y1="133.3" x2="360.4" y2="17.3"/>
	<path class="st0" d="M360.4,162.3v-29 M58.4,191.3h348v-29h-348V191.3z"/>
	<line class="st1" x1="107.5" y1="133.3" x2="107.5" y2="17.3"/>
	<line class="st0" x1="107.5" y1="191.3" x2="107.5" y2="162.3"/>
	<g>
		<path d="M121.8,179.8v-0.4l0.4,0c0.1,0,0.1,0,0.2-0.1s0.1-0.1,0.1-0.2v-2.5c0-0.2,0-0.3,0-0.4c0-0.1-0.1-0.2-0.1-0.3
			s-0.2-0.2-0.3-0.2c-0.1,0-0.3-0.1-0.4-0.1c-0.1,0-0.2,0-0.3,0c-0.1,0-0.2,0-0.3,0.1s-0.2,0.1-0.3,0.1c-0.1,0-0.2,0.1-0.3,0.1v3.3
			c0,0.1,0,0.1,0.1,0.2s0.1,0.1,0.2,0.1l0.4,0v0.4h-2.2v-0.4l0.4,0c0.1,0,0.1,0,0.2-0.1c0,0,0.1-0.1,0.1-0.2v-2.6c0-0.1,0-0.3,0-0.4
			s-0.1-0.2-0.2-0.3c-0.1-0.1-0.2-0.1-0.3-0.2s-0.2-0.1-0.4-0.1c-0.1,0-0.2,0-0.3,0c-0.1,0-0.2,0-0.3,0.1c-0.1,0-0.2,0.1-0.3,0.1
			c-0.1,0-0.2,0.1-0.2,0.1v3.3c0,0.1,0,0.1,0.1,0.2c0,0,0.1,0.1,0.2,0.1l0.4,0v0.4h-2.3v-0.4l0.5,0c0.1,0,0.1,0,0.2-0.1
			s0.1-0.1,0.1-0.2v-3.5h-0.7v-0.3l1.2-0.4h0.4v0.5c0.1-0.1,0.2-0.1,0.4-0.2c0.1-0.1,0.3-0.1,0.4-0.2c0.1-0.1,0.3-0.1,0.4-0.2
			c0.1,0,0.3-0.1,0.4-0.1c0.1,0,0.3,0,0.4,0.1c0.1,0,0.2,0.1,0.3,0.2c0.1,0.1,0.2,0.1,0.2,0.2c0.1,0.1,0.1,0.2,0.2,0.2
			c0.1-0.1,0.2-0.1,0.4-0.2c0.1-0.1,0.3-0.2,0.5-0.2c0.2-0.1,0.3-0.1,0.5-0.2s0.3-0.1,0.4-0.1c0.3,0,0.5,0,0.6,0.1s0.3,0.2,0.4,0.4
			c0.1,0.1,0.2,0.3,0.2,0.5s0.1,0.4,0.1,0.5v2.8c0,0.1,0,0.1,0.1,0.2s0.1,0.1,0.1,0.1l0.5,0v0.4H121.8z"/>
	</g>
	<line class="st1" x1="132.1" y1="133.3" x2="132.1" y2="17.3"/>
	<line class="st0" x1="132.1" y1="191.3" x2="132.1" y2="162.3"/>
	<g>
		<path d="M139.7,179.4l-1.4,0.6H138v-0.7c-0.4,0.4-0.9,0.7-1.4,0.7c-0.5,0-1-0.2-1.3-0.7c-0.4-0.4-0.6-1-0.6-1.6
			c0-0.7,0.2-1.3,0.6-1.8c0.4-0.6,1-0.9,1.7-0.9c0.4,0,0.7,0.1,1,0.4l0.7-0.4h0.2v2.9c0,0.5,0,0.8,0,1c0,0.1,0.1,0.2,0.1,0.3
			c0.1,0.1,0.3,0.1,0.6,0L139.7,179.4z M138,178.9v-2.4c0-0.3-0.1-0.5-0.3-0.8c-0.2-0.3-0.5-0.4-0.8-0.4c-0.4,0-0.6,0.2-0.9,0.5
			c-0.2,0.4-0.4,0.8-0.4,1.4c0,0.7,0.2,1.2,0.5,1.6c0.3,0.3,0.6,0.5,1,0.5C137.5,179.4,137.8,179.2,138,178.9z"/>
	</g>
	<line class="st1" x1="142.3" y1="133.3" x2="142.3" y2="17.3"/>
	<line class="st0" x1="142.3" y1="191.3" x2="142.3" y2="162.3"/>
	<g>
		<path d="M157,179.8h-2.2v-0.2h0.1c0.3,0,0.5-0.1,0.5-0.3c0-0.1-0.1-0.3-0.2-0.5l-1.1-2.3l-1,2.6c-0.1,0.2-0.1,0.4-0.1,0.5
			c0.1,0.1,0.2,0.1,0.4,0.1v0.2h-1.5v-0.2c0.2,0,0.3-0.1,0.4-0.1c0.1-0.1,0.2-0.3,0.3-0.6l1.9-4.6c0.2-0.4,0.4-0.8,0.7-1
			c0.3-0.2,0.6-0.4,0.9-0.4c0.2,0,0.4,0.1,0.5,0.2c0.1,0.1,0.2,0.3,0.2,0.4c0,0.3-0.2,0.5-0.5,0.5c-0.1,0-0.2,0-0.4-0.1
			c-0.2-0.1-0.3-0.1-0.3-0.1c-0.3,0-0.5,0.3-0.7,0.8l-0.3,0.8l1.7,3.5c0.1,0.2,0.2,0.4,0.3,0.5c0.2,0.2,0.3,0.3,0.6,0.3V179.8z"/>
	</g>
	<line class="st1" x1="166.9" y1="133.3" x2="166.9" y2="17.3"/>
	<line class="st0" x1="166.9" y1="191.3" x2="166.9" y2="162.3"/>
	<g>
		<path d="M168.8,179.8v-0.4l0.5,0c0.1,0,0.1,0,0.2-0.1s0.1-0.1,0.1-0.2v-3.6h-0.7v-0.3l1.2-0.4h0.4v4.3c0,0.1,0,0.1,0.1,0.2
			s0.1,0.1,0.1,0.1l0.5,0v0.4H168.8z M170.6,173.4c0,0.1,0,0.2,0,0.2c0,0.1-0.1,0.1-0.1,0.2c-0.1,0.1-0.1,0.1-0.2,0.1
			c-0.1,0-0.2,0-0.2,0s-0.2,0-0.2,0c-0.1,0-0.1-0.1-0.2-0.1s-0.1-0.1-0.1-0.2c0-0.1,0-0.2,0-0.2s0-0.2,0-0.2c0-0.1,0.1-0.1,0.1-0.2
			c0.1-0.1,0.1-0.1,0.2-0.1c0.1,0,0.2,0,0.2,0s0.2,0,0.2,0c0.1,0,0.1,0.1,0.2,0.1c0.1,0.1,0.1,0.1,0.1,0.2
			C170.6,173.2,170.6,173.3,170.6,173.4z"/>
	</g>
	<line class="st1" x1="173" y1="133.3" x2="173" y2="17.3"/>
	<line class="st0" x1="173" y1="191.3" x2="173" y2="162.3"/>
	<g>
		<path d="M177.2,179.8v-0.5l2.6-3.8h-1.7c0,0-0.1,0-0.1,0.1c0,0-0.1,0.1-0.1,0.1l-0.1,0.7h-0.5V175h3.7v0.4l-2.7,3.9h2
			c0,0,0,0,0.1,0c0,0,0,0,0.1-0.1s0,0,0.1-0.1c0,0,0-0.1,0-0.1l0.1-0.8h0.5v1.5H177.2z"/>
	</g>
	<line class="st1" x1="185.3" y1="133.3" x2="185.3" y2="17.3"/>
	<line class="st0" x1="185.3" y1="191.3" x2="185.3" y2="162.3"/>
	<g>
		<path d="M192.6,173.1c0,0.1,0,0.2-0.1,0.3s-0.1,0.1-0.1,0.2c-0.1,0-0.1,0.1-0.2,0.1s-0.1,0-0.1,0c0,0,0,0-0.1-0.1
			c0,0-0.1-0.1-0.2-0.1c-0.1,0-0.1-0.1-0.2-0.2c-0.1-0.1-0.1-0.1-0.2-0.1c-0.1,0-0.1-0.1-0.2-0.1c0,0-0.1,0-0.1-0.1
			c-0.1,0-0.1,0.1-0.2,0.2c-0.1,0.1-0.1,0.2-0.2,0.3c-0.1,0.1-0.1,0.3-0.1,0.4c0,0.2-0.1,0.4-0.1,0.6v0.6h1.2v0.5h-1.2v3.6
			c0,0.1,0,0.1,0.1,0.2s0.1,0.1,0.1,0.1l0.6,0v0.4H189v-0.4l0.5,0c0.1,0,0.1,0,0.1-0.1s0.1-0.1,0.1-0.2v-3.6H189v-0.3l0.6-0.2
			c0-0.2,0-0.3,0-0.4c0-0.1,0-0.3,0.1-0.4c0-0.1,0.1-0.2,0.1-0.3c0-0.1,0.1-0.2,0.2-0.3c0.1-0.2,0.2-0.4,0.3-0.5
			c0.1-0.1,0.3-0.3,0.4-0.3c0.1-0.1,0.3-0.2,0.5-0.2c0.2,0,0.3-0.1,0.5-0.1c0.1,0,0.3,0,0.4,0c0.1,0,0.2,0.1,0.3,0.1
			s0.1,0.1,0.2,0.2C192.6,172.9,192.6,173,192.6,173.1z"/>
	</g>
	<line class="st1" x1="195.5" y1="133.3" x2="195.5" y2="17.3"/>
	<line class="st0" x1="195.5" y1="191.3" x2="195.5" y2="162.3"/>
	<g>
		<path d="M200.3,179.4l-1.4,0.6h-0.2v-1c-0.4,0.7-0.8,1-1.2,1c-0.2,0-0.3-0.1-0.5-0.2c-0.1-0.1-0.2-0.2-0.2-0.4
			c0-0.1,0-0.2,0.1-0.3c0.1-0.1,0.2-0.1,0.3-0.1c0.1,0,0.3,0.1,0.4,0.2s0.2,0.2,0.3,0.2c0.2,0,0.4-0.3,0.7-0.8v-2.2
			c0-0.3-0.1-0.5-0.2-0.7c-0.1-0.2-0.3-0.2-0.7-0.2v-0.2h2.4v0.2c-0.3,0-0.5,0-0.6,0.1c-0.1,0.1-0.1,0.3-0.1,0.7v1.8
			c0,0.7,0,1.1,0.1,1.2c0.2,0.1,0.4,0.1,0.6,0L200.3,179.4z"/>
	</g>
	<line class="st1" x1="201.7" y1="133.3" x2="201.7" y2="17.3"/>
	<line class="st0" x1="201.7" y1="191.3" x2="201.7" y2="162.3"/>
	<g>
		<path d="M207.6,176.3c0,0.4-0.2,0.7-0.5,1c-0.4,0.3-1.1,0.7-2.1,1v0.2c0,0.4,0.1,0.7,0.2,0.9s0.4,0.3,0.7,0.3
			c0.2,0,0.4-0.1,0.5-0.2s0.2-0.2,0.2-0.4v-0.3c0-0.3,0.1-0.5,0.4-0.5c0.3,0,0.4,0.2,0.4,0.5c0,0.4-0.2,0.6-0.5,0.8
			c-0.3,0.2-0.7,0.3-1.2,0.3c-0.6,0-1.1-0.1-1.3-0.4c-0.2-0.2-0.3-0.6-0.3-1.1v-1.6c0-0.4,0-0.7,0-0.8c0-0.2-0.1-0.3-0.2-0.3
			c-0.1,0-0.3,0.1-0.5,0.4v-0.3c0.4-0.5,0.7-0.8,1.1-0.8c0.4,0,0.5,0.3,0.5,0.8c0.4-0.3,0.7-0.5,0.9-0.6c0.2-0.1,0.4-0.1,0.6-0.1
			c0.3,0,0.6,0.1,0.8,0.3C207.5,175.6,207.6,175.9,207.6,176.3z M206.7,176.5c0-0.2-0.1-0.4-0.2-0.6c-0.1-0.2-0.3-0.2-0.5-0.2
			c-0.3,0-0.6,0.2-1,0.5v1.8c0.7-0.3,1.2-0.5,1.5-0.8C206.6,177,206.7,176.8,206.7,176.5z"/>
	</g>
	<line class="st1" x1="209.9" y1="133.3" x2="209.9" y2="17.3"/>
	<line class="st0" x1="209.9" y1="191.3" x2="209.9" y2="162.3"/>
	<g>
		<path d="M216.9,179.8v-0.4l0.4,0c0.1,0,0.1,0,0.2-0.1s0.1-0.1,0.1-0.2v-2.5c0-0.2,0-0.3,0-0.4s-0.1-0.2-0.1-0.3
			c-0.1-0.1-0.2-0.2-0.3-0.2c-0.1,0-0.3-0.1-0.4-0.1c-0.1,0-0.2,0-0.3,0c-0.1,0-0.2,0-0.3,0.1c-0.1,0-0.2,0.1-0.3,0.1
			c-0.1,0-0.2,0.1-0.3,0.1v3.3c0,0.1,0,0.1,0.1,0.2s0.1,0.1,0.2,0.1l0.4,0v0.4H214v-0.4l0.4,0c0.1,0,0.1,0,0.2-0.1
			c0,0,0.1-0.1,0.1-0.2v-2.6c0-0.1,0-0.3,0-0.4s-0.1-0.2-0.2-0.3c-0.1-0.1-0.2-0.1-0.3-0.2s-0.2-0.1-0.4-0.1c-0.1,0-0.2,0-0.3,0
			c-0.1,0-0.2,0-0.3,0.1c-0.1,0-0.2,0.1-0.3,0.1c-0.1,0-0.2,0.1-0.2,0.1v3.3c0,0.1,0,0.1,0.1,0.2c0,0,0.1,0.1,0.2,0.1l0.4,0v0.4
			h-2.3v-0.4l0.5,0c0.1,0,0.1,0,0.2-0.1s0.1-0.1,0.1-0.2v-3.5h-0.7v-0.3l1.2-0.4h0.4v0.5c0.1-0.1,0.2-0.1,0.4-0.2
			c0.1-0.1,0.3-0.1,0.4-0.2c0.1-0.1,0.3-0.1,0.4-0.2c0.1,0,0.3-0.1,0.4-0.1c0.1,0,0.3,0,0.4,0.1c0.1,0,0.2,0.1,0.3,0.2
			c0.1,0.1,0.2,0.1,0.2,0.2c0.1,0.1,0.1,0.2,0.2,0.2c0.1-0.1,0.2-0.1,0.4-0.2c0.1-0.1,0.3-0.2,0.5-0.2c0.2-0.1,0.3-0.1,0.5-0.2
			c0.2,0,0.3-0.1,0.4-0.1c0.3,0,0.5,0,0.6,0.1s0.3,0.2,0.4,0.4c0.1,0.1,0.2,0.3,0.2,0.5c0,0.2,0.1,0.4,0.1,0.5v2.8
			c0,0.1,0,0.1,0.1,0.2c0,0,0.1,0.1,0.1,0.1l0.5,0v0.4H216.9z"/>
	</g>
	<line class="st1" x1="220.1" y1="133.3" x2="220.1" y2="17.3"/>
	<line class="st0" x1="220.1" y1="191.3" x2="220.1" y2="162.3"/>
	<g>
		<path d="M227.7,177.2c0,0.4-0.1,0.7-0.2,1c-0.1,0.3-0.3,0.6-0.5,0.8c-0.2,0.2-0.5,0.4-0.9,0.6s-0.8,0.2-1.3,0.2h-1.4v-6.6h-0.8
			v-0.3l1.3-0.4h0.4v2.8c0.1,0,0.1-0.1,0.2-0.1c0.1,0,0.2-0.1,0.3-0.1s0.3-0.1,0.4-0.1c0.1,0,0.3,0,0.4,0c0.3,0,0.6,0.1,0.9,0.2
			s0.5,0.3,0.6,0.5c0.2,0.2,0.3,0.5,0.4,0.7C227.7,176.6,227.7,176.9,227.7,177.2z M226.7,177.4c0-0.6-0.1-1.1-0.4-1.4
			c-0.3-0.3-0.6-0.5-1.1-0.5c-0.1,0-0.1,0-0.2,0c-0.1,0-0.2,0-0.2,0s-0.2,0-0.2,0.1s-0.1,0-0.2,0.1v3.7c0.1,0,0.1,0,0.2,0
			c0,0,0.1,0,0.2,0h0.2c0.3,0,0.6,0,0.8-0.1c0.2-0.1,0.4-0.2,0.6-0.3c0.2-0.2,0.3-0.4,0.4-0.6S226.7,177.7,226.7,177.4z"/>
	</g>
	<line class="st1" x1="230.2" y1="133.3" x2="230.2" y2="17.3"/>
	<line class="st0" x1="230.2" y1="191.3" x2="230.2" y2="162.3"/>
	<g>
		<path d="M242,179.4l-1.4,0.6h-0.2v-1c-0.4,0.7-0.8,1-1.2,1c-0.2,0-0.3-0.1-0.5-0.2c-0.1-0.1-0.2-0.2-0.2-0.4c0-0.1,0-0.2,0.1-0.3
			s0.2-0.1,0.3-0.1c0.1,0,0.3,0.1,0.4,0.2s0.3,0.2,0.3,0.2c0.2,0,0.4-0.3,0.7-0.8v-2.2c0-0.3-0.1-0.5-0.2-0.7
			c-0.1-0.2-0.3-0.2-0.7-0.2v-0.2h2.4v0.2c-0.3,0-0.5,0-0.6,0.1c-0.1,0.1-0.1,0.3-0.1,0.7v1.8c0,0.7,0,1.1,0.1,1.2
			c0.2,0.1,0.4,0.1,0.6,0L242,179.4z"/>
	</g>
	<line class="st1" x1="250.4" y1="133.3" x2="250.4" y2="17.3"/>
	<line class="st0" x1="250.4" y1="191.3" x2="250.4" y2="162.3"/>
	<g>
		<path d="M271.5,179.3c-0.1,0.1-0.2,0.1-0.3,0.2c-0.1,0.1-0.2,0.1-0.4,0.2c-0.1,0.1-0.3,0.1-0.5,0.2c-0.2,0-0.4,0.1-0.6,0.1
			c-0.1,0-0.3,0-0.4,0c-0.1,0-0.3,0-0.4-0.1c-0.1,0-0.2-0.1-0.3-0.1c-0.1,0-0.2-0.1-0.3-0.1c-0.2-0.1-0.3-0.2-0.5-0.4
			c-0.2,0.1-0.4,0.3-0.5,0.4c-0.1,0-0.2,0.1-0.3,0.1c-0.1,0-0.2,0.1-0.3,0.1c-0.1,0-0.2,0.1-0.3,0.1s-0.2,0-0.3,0
			c-0.2,0-0.4,0-0.6-0.1c-0.2-0.1-0.3-0.2-0.4-0.3c-0.1-0.1-0.2-0.3-0.2-0.4s-0.1-0.3-0.1-0.5c0-0.3,0.1-0.5,0.2-0.7
			s0.3-0.3,0.5-0.5s0.5-0.3,0.9-0.4c0.4-0.1,0.8-0.2,1.3-0.4v-0.4c0-0.2,0-0.3,0-0.4s-0.1-0.2-0.1-0.3s-0.2-0.1-0.3-0.2
			c-0.1,0-0.3-0.1-0.4-0.1c-0.2,0-0.3,0-0.4,0c-0.1,0-0.2,0.1-0.2,0.1v0.9h-0.7c-0.1,0-0.2,0-0.3-0.1c-0.1,0-0.1-0.1-0.1-0.2
			c0-0.1,0-0.3,0.1-0.4s0.1-0.2,0.2-0.3c0.1-0.1,0.2-0.2,0.3-0.2c0.1-0.1,0.3-0.1,0.4-0.2c0.1,0,0.3-0.1,0.4-0.1s0.3,0,0.5,0
			c0.2,0,0.4,0,0.6,0.1c0.2,0,0.3,0.1,0.4,0.2c0.1,0.1,0.2,0.1,0.2,0.2c0.1,0.1,0.1,0.1,0.1,0.2c0,0,0.1-0.1,0.2-0.2
			c0.1-0.1,0.2-0.1,0.3-0.2c0.1-0.1,0.2-0.1,0.4-0.2c0.1,0,0.3-0.1,0.5-0.1c0.3,0,0.5,0.1,0.8,0.2c0.2,0.1,0.4,0.3,0.5,0.4
			c0.1,0.2,0.2,0.4,0.3,0.6c0.1,0.2,0.1,0.5,0.1,0.8c0,0,0,0.1,0,0.1c0,0,0,0.1,0,0.1c0,0,0,0.1,0,0.1h-2.8v1.3
			c0.1,0.1,0.2,0.1,0.2,0.2c0.1,0.1,0.2,0.2,0.3,0.2c0.1,0.1,0.3,0.1,0.4,0.2c0.1,0,0.3,0.1,0.5,0.1c0.2,0,0.3,0,0.4,0
			c0.1,0,0.2-0.1,0.3-0.1c0.1,0,0.2-0.1,0.3-0.2s0.2-0.1,0.3-0.2V179.3z M267.8,177.2c-0.4,0.1-0.7,0.2-0.9,0.3s-0.4,0.2-0.6,0.3
			s-0.2,0.2-0.3,0.3s-0.1,0.3-0.1,0.4c0,0.1,0,0.2,0,0.3c0,0.1,0.1,0.2,0.1,0.3c0.1,0.1,0.1,0.1,0.2,0.2c0.1,0,0.2,0.1,0.3,0.1
			c0.1,0,0.2,0,0.4-0.1s0.2-0.1,0.3-0.2c0.1-0.1,0.3-0.1,0.4-0.2V177.2z M270.5,176.5c0-0.1,0-0.3,0-0.4c0-0.1-0.1-0.3-0.2-0.4
			c-0.1-0.1-0.2-0.2-0.3-0.3s-0.2-0.1-0.4-0.1c-0.2,0-0.3,0-0.5,0.1c-0.1,0.1-0.2,0.2-0.3,0.3c-0.1,0.1-0.1,0.3-0.2,0.5
			c0,0.2,0,0.4,0,0.5h1.8V176.5z"/>
	</g>
	<line class="st1" x1="285.8" y1="133.3" x2="285.8" y2="17.3"/>
	<line class="st0" x1="285.8" y1="191.3" x2="285.8" y2="162.3"/>
	<g>
		<path d="M291.7,179.8v-0.4l0.4,0c0.1,0,0.1,0,0.1-0.1c0,0,0.1-0.1,0.1-0.2v-2.6c0-0.3-0.1-0.6-0.2-0.7c-0.1-0.2-0.4-0.2-0.7-0.2
			c-0.2,0-0.4,0-0.6,0.1c-0.2,0.1-0.4,0.1-0.5,0.2v3.3c0,0.1,0,0.1,0.1,0.2s0.1,0.1,0.2,0.1l0.4,0v0.4h-2.3v-0.4l0.5,0
			c0.1,0,0.1,0,0.2-0.1c0,0,0.1-0.1,0.1-0.2v-3.5h-0.7v-0.3l1.2-0.4h0.4v0.5c0.1-0.1,0.3-0.2,0.4-0.2c0.1-0.1,0.3-0.1,0.4-0.2
			c0.1-0.1,0.3-0.1,0.4-0.1c0.1,0,0.3-0.1,0.4-0.1c0.4,0,0.8,0.1,1,0.4c0.2,0.3,0.3,0.6,0.3,1.1v2.7c0,0.1,0,0.1,0.1,0.2
			s0.1,0.1,0.1,0.1l0.4,0v0.4H291.7z"/>
	</g>
	<line class="st1" x1="296.1" y1="133.3" x2="296.1" y2="17.3"/>
	<line class="st0" x1="296.1" y1="191.3" x2="296.1" y2="162.3"/>
	<g>
		<path d="M310.7,179.8h-2.3v-0.2c0.3,0,0.5-0.1,0.6-0.2c0.1-0.1,0.1-0.3,0.1-0.7v-2.5c0-0.4,0-0.6-0.1-0.7
			c-0.1-0.1-0.3-0.2-0.6-0.2v-0.2h2.3v0.2c-0.3,0-0.5,0.1-0.6,0.2c-0.1,0.1-0.1,0.4-0.1,0.7v2.5c0,0.4,0,0.6,0.1,0.7
			c0.1,0.1,0.3,0.2,0.6,0.2V179.8z"/>
	</g>
	<line class="st1" x1="323.1" y1="133.3" x2="323.1" y2="17.3"/>
	<line class="st0" x1="323.1" y1="191.3" x2="323.1" y2="162.3"/>
	<g>
		<path d="M343.6,179.7c0,0.8-0.2,1.4-0.5,1.8c-0.3,0.4-0.8,0.6-1.3,0.6c-0.3,0-0.5-0.1-0.7-0.2c-0.1-0.1-0.2-0.2-0.2-0.3
			c0-0.1,0-0.2,0.1-0.3c0.1-0.1,0.2-0.1,0.3-0.1c0.2,0,0.4,0.1,0.6,0.3c0.1,0.1,0.3,0.2,0.4,0.2c0.2,0,0.4-0.1,0.4-0.4
			c0-0.2,0.1-0.5,0.1-0.9v-3.4c0-0.4-0.1-0.7-0.2-0.9s-0.3-0.3-0.6-0.3c-0.4,0-0.8,0.2-1.2,0.7v2.4c0,0.3,0,0.6,0.1,0.7
			c0.1,0.1,0.3,0.2,0.7,0.2v0.2h-2.3v-0.2c0.3,0,0.5-0.1,0.6-0.2c0.1-0.1,0.1-0.3,0.1-0.7V177c0-0.8-0.1-1.2-0.2-1.3
			c-0.1-0.1-0.3-0.1-0.5,0l-0.1-0.2l1.4-0.6h0.2v1c0.5-0.6,1.1-1,1.6-1c0.8,0,1.2,0.6,1.2,1.7V179.7z"/>
	</g>
	<line class="st1" x1="360.4" y1="133.3" x2="360.4" y2="17.3"/>
	<path class="st0" d="M360.4,191.3v-29 M58.4,220.3h348v-29h-348V220.3z"/>
	<line class="st1" x1="220.1" y1="133.3" x2="220.1" y2="17.3"/>
	<line class="st0" x1="220.1" y1="220.3" x2="220.1" y2="191.3"/>
	<g>
		<path d="M277.6,206.2c0,0.4-0.1,0.7-0.2,1c-0.1,0.3-0.3,0.6-0.5,0.8c-0.2,0.2-0.5,0.4-0.9,0.6s-0.8,0.2-1.3,0.2h-1.4v-6.6h-0.8
			v-0.3l1.3-0.4h0.4v2.8c0.1,0,0.1-0.1,0.2-0.1c0.1,0,0.2-0.1,0.3-0.1c0.1,0,0.3-0.1,0.4-0.1s0.3,0,0.4,0c0.3,0,0.6,0.1,0.9,0.2
			s0.5,0.3,0.6,0.5c0.2,0.2,0.3,0.5,0.4,0.7S277.6,205.9,277.6,206.2z M276.6,206.4c0-0.6-0.1-1.1-0.4-1.4c-0.3-0.3-0.6-0.5-1.1-0.5
			c-0.1,0-0.1,0-0.2,0c-0.1,0-0.2,0-0.2,0s-0.2,0-0.2,0.1c-0.1,0-0.1,0-0.2,0.1v3.7c0.1,0,0.1,0,0.2,0c0,0,0.1,0,0.2,0h0.2
			c0.3,0,0.6,0,0.8-0.1s0.4-0.2,0.6-0.3s0.3-0.4,0.4-0.6S276.6,206.8,276.6,206.4z"/>
		<path d="M281.4,205.1c-0.1-0.1-0.1-0.1-0.2-0.2c-0.1-0.1-0.2-0.1-0.3-0.1c-0.2,0-0.3,0.1-0.5,0.2s-0.3,0.3-0.5,0.5v2.8
			c0,0.1,0,0.1,0.1,0.2s0.1,0.1,0.2,0.1l0.7,0v0.4h-2.5v-0.4l0.5,0c0.1,0,0.1,0,0.1-0.1c0,0,0.1-0.1,0.1-0.2v-3.5h-0.7v-0.3l1.2-0.4
			h0.4v0.9c0.1-0.1,0.2-0.2,0.3-0.3s0.2-0.2,0.3-0.3s0.2-0.2,0.4-0.3c0.1-0.1,0.2-0.1,0.4-0.1c0.1,0,0.1,0,0.2,0s0.1,0,0.2,0
			c0.1,0,0.1,0,0.2,0c0,0,0.1,0,0.1,0.1v1H281.4z"/>
		<path d="M285.3,208.9l-0.1-0.6c-0.2,0.1-0.4,0.3-0.5,0.4c-0.1,0-0.2,0.1-0.3,0.1c-0.1,0-0.2,0.1-0.3,0.1c-0.1,0-0.2,0.1-0.3,0.1
			s-0.2,0-0.3,0c-0.2,0-0.3,0-0.5-0.1c-0.2-0.1-0.3-0.2-0.4-0.3c-0.1-0.1-0.2-0.3-0.3-0.4s-0.1-0.4-0.1-0.6c0-0.1,0-0.2,0-0.4
			c0-0.1,0.1-0.2,0.1-0.3c0.1-0.1,0.2-0.2,0.3-0.3s0.3-0.2,0.5-0.3s0.5-0.2,0.8-0.3c0.3-0.1,0.7-0.2,1.1-0.3v-0.4
			c0-0.3-0.1-0.6-0.2-0.7c-0.1-0.2-0.4-0.2-0.7-0.2c-0.2,0-0.3,0-0.4,0c-0.1,0-0.2,0.1-0.3,0.1v0.9h-0.7c0,0-0.1,0-0.1,0
			c0,0-0.1,0-0.1,0s-0.1-0.1-0.1-0.1s0-0.1,0-0.1c0-0.2,0.1-0.4,0.2-0.5c0.1-0.1,0.3-0.3,0.5-0.4c0.2-0.1,0.4-0.2,0.7-0.2
			c0.2,0,0.5-0.1,0.7-0.1c0.3,0,0.6,0,0.8,0.1c0.2,0.1,0.4,0.2,0.5,0.3c0.1,0.1,0.2,0.3,0.3,0.5s0.1,0.4,0.1,0.6v2.8
			c0,0.1,0,0.1,0.1,0.2s0.1,0.1,0.1,0.1l0.5,0v0.4H285.3z M285.2,206.2c-0.4,0.1-0.8,0.2-1.1,0.3c-0.3,0.1-0.5,0.2-0.6,0.3
			c-0.1,0.1-0.2,0.2-0.3,0.3s-0.1,0.2-0.1,0.4c0,0.1,0,0.2,0.1,0.3c0,0.1,0.1,0.2,0.1,0.3s0.1,0.1,0.2,0.2c0.1,0,0.2,0.1,0.3,0.1
			c0.1,0,0.3,0,0.4-0.1c0.1,0,0.3-0.1,0.4-0.2c0.1-0.1,0.3-0.1,0.4-0.2V206.2z"/>
		<path d="M290.2,208.9v-0.4l0.4,0c0.1,0,0.1,0,0.1-0.1c0,0,0.1-0.1,0.1-0.2v-2.6c0-0.3-0.1-0.6-0.2-0.7c-0.1-0.2-0.4-0.2-0.7-0.2
			c-0.2,0-0.4,0-0.6,0.1c-0.2,0.1-0.4,0.1-0.5,0.2v3.3c0,0.1,0,0.1,0.1,0.2s0.1,0.1,0.2,0.1l0.4,0v0.4h-2.3v-0.4l0.5,0
			c0.1,0,0.1,0,0.2-0.1c0,0,0.1-0.1,0.1-0.2v-3.5h-0.7v-0.3l1.2-0.4h0.4v0.5c0.1-0.1,0.3-0.2,0.4-0.2c0.1-0.1,0.3-0.1,0.4-0.2
			c0.1-0.1,0.3-0.1,0.4-0.1c0.1,0,0.3-0.1,0.4-0.1c0.4,0,0.8,0.1,1,0.4c0.2,0.3,0.3,0.6,0.3,1.1v2.7c0,0.1,0,0.1,0.1,0.2
			s0.1,0.1,0.1,0.1l0.4,0v0.4H290.2z"/>
		<path d="M295.8,208.9v-0.4l0.4,0c0.1,0,0.1,0,0.1-0.1c0,0,0.1-0.1,0.1-0.2v-2.6c0-0.3-0.1-0.6-0.2-0.7c-0.1-0.2-0.4-0.2-0.7-0.2
			c-0.2,0-0.4,0-0.6,0.1c-0.2,0.1-0.4,0.1-0.5,0.2v3.3c0,0.1,0,0.1,0.1,0.2s0.1,0.1,0.2,0.1l0.4,0v0.4h-2.3v-0.4l0.5,0
			c0.1,0,0.1,0,0.2-0.1c0,0,0.1-0.1,0.1-0.2v-3.5h-0.7v-0.3l1.2-0.4h0.4v0.5c0.1-0.1,0.3-0.2,0.4-0.2c0.1-0.1,0.3-0.1,0.4-0.2
			c0.1-0.1,0.3-0.1,0.4-0.1c0.1,0,0.3-0.1,0.4-0.1c0.4,0,0.8,0.1,1,0.4c0.2,0.3,0.3,0.6,0.3,1.1v2.7c0,0.1,0,0.1,0.1,0.2
			s0.1,0.1,0.1,0.1l0.4,0v0.4H295.8z"/>
		<path d="M298.6,208.9v-0.4l0.5,0c0.1,0,0.1,0,0.2-0.1s0.1-0.1,0.1-0.2v-3.6h-0.7v-0.3l1.2-0.4h0.4v4.3c0,0.1,0,0.1,0.1,0.2
			s0.1,0.1,0.1,0.1l0.5,0v0.4H298.6z M300.4,202.4c0,0.1,0,0.2,0,0.2s-0.1,0.1-0.1,0.2s-0.1,0.1-0.2,0.1c-0.1,0-0.2,0-0.2,0
			s-0.2,0-0.2,0c-0.1,0-0.1-0.1-0.2-0.1s-0.1-0.1-0.1-0.2c0-0.1,0-0.2,0-0.2s0-0.2,0-0.2c0-0.1,0.1-0.1,0.1-0.2
			c0.1-0.1,0.1-0.1,0.2-0.1c0.1,0,0.2,0,0.2,0s0.2,0,0.2,0c0.1,0,0.1,0.1,0.2,0.1c0.1,0.1,0.1,0.1,0.1,0.2S300.4,202.3,300.4,202.4z
			"/>
		<path d="M304.5,208.9v-0.4l0.4,0c0.1,0,0.1,0,0.1-0.1s0.1-0.1,0.1-0.2v-2.6c0-0.3-0.1-0.6-0.2-0.7c-0.1-0.2-0.4-0.2-0.7-0.2
			c-0.2,0-0.4,0-0.6,0.1s-0.4,0.1-0.5,0.2v3.3c0,0.1,0,0.1,0.1,0.2s0.1,0.1,0.2,0.1l0.4,0v0.4h-2.3v-0.4l0.5,0c0.1,0,0.1,0,0.2-0.1
			s0.1-0.1,0.1-0.2v-3.5h-0.7v-0.3l1.2-0.4h0.4v0.5c0.1-0.1,0.3-0.2,0.4-0.2c0.1-0.1,0.3-0.1,0.4-0.2c0.1-0.1,0.3-0.1,0.4-0.1
			c0.1,0,0.3-0.1,0.4-0.1c0.4,0,0.8,0.1,1,0.4s0.3,0.6,0.3,1.1v2.7c0,0.1,0,0.1,0.1,0.2c0,0,0.1,0.1,0.1,0.1l0.4,0v0.4H304.5z"/>
		<path d="M311,204.7c0.1,0.1,0.1,0.3,0.2,0.4s0.1,0.3,0.1,0.5c0,0.3-0.1,0.5-0.2,0.7c-0.1,0.2-0.3,0.4-0.5,0.5
			c-0.2,0.1-0.4,0.2-0.7,0.3s-0.5,0.1-0.8,0.1c0,0.1-0.1,0.1-0.1,0.2c0,0.1,0,0.1,0,0.2s0,0.1,0,0.2c0,0,0,0.1,0,0.1
			c0.1,0,0.3,0,0.5,0.1s0.4,0,0.6,0.1c0.2,0,0.4,0.1,0.6,0.1c0.2,0.1,0.4,0.1,0.5,0.2c0.2,0.1,0.3,0.2,0.4,0.4s0.1,0.3,0.1,0.5
			c0,0.2-0.1,0.5-0.2,0.7c-0.1,0.2-0.3,0.4-0.6,0.6c-0.2,0.2-0.5,0.3-0.8,0.4s-0.7,0.2-1,0.2c-0.3,0-0.6,0-0.8-0.1
			c-0.2-0.1-0.4-0.2-0.6-0.3c-0.2-0.1-0.3-0.3-0.4-0.4s-0.1-0.4-0.1-0.6c0-0.1,0-0.3,0.1-0.4c0-0.1,0.1-0.3,0.2-0.4
			c0.1-0.1,0.2-0.2,0.3-0.3c0.1-0.1,0.3-0.1,0.5-0.2c0-0.1,0-0.1,0-0.1s0-0.1,0-0.1s0-0.1,0-0.1c0,0,0-0.1,0-0.1
			c0-0.1,0-0.3,0.1-0.4c0.1-0.2,0.2-0.3,0.4-0.5c-0.2,0-0.3-0.1-0.5-0.2c-0.2-0.1-0.3-0.2-0.4-0.3c-0.1-0.1-0.2-0.3-0.3-0.4
			c-0.1-0.2-0.1-0.4-0.1-0.6c0-0.3,0-0.5,0.1-0.7c0.1-0.2,0.2-0.4,0.4-0.5c0.2-0.1,0.4-0.3,0.6-0.3s0.5-0.1,0.8-0.1
			c0.1,0,0.2,0,0.3,0c0.1,0,0.2,0,0.3,0.1c0.1,0,0.2,0.1,0.3,0.1s0.2,0.1,0.2,0.1h1.3v0.5H311z M310.8,209.5c0-0.1,0-0.3-0.1-0.3
			s-0.2-0.2-0.3-0.2c-0.1-0.1-0.2-0.1-0.4-0.1s-0.3-0.1-0.4-0.1c-0.1,0-0.3,0-0.4-0.1c-0.1,0-0.3,0-0.3-0.1
			c-0.1,0.1-0.3,0.1-0.4,0.2c-0.1,0.1-0.2,0.2-0.2,0.2s-0.1,0.2-0.1,0.3c0,0.1,0,0.2,0,0.3c0,0.1,0,0.2,0.1,0.4
			c0.1,0.1,0.1,0.3,0.2,0.4c0.1,0.1,0.2,0.2,0.4,0.3c0.2,0.1,0.4,0.1,0.6,0.1c0.2,0,0.4,0,0.6-0.1c0.2-0.1,0.3-0.2,0.4-0.3
			s0.2-0.2,0.3-0.4S310.8,209.6,310.8,209.5z M310.3,205.6c0-0.2,0-0.3-0.1-0.5c0-0.1-0.1-0.3-0.2-0.4s-0.2-0.2-0.3-0.3
			s-0.2-0.1-0.4-0.1c-0.1,0-0.3,0-0.4,0.1c-0.1,0.1-0.2,0.1-0.3,0.2c-0.1,0.1-0.1,0.2-0.2,0.4s-0.1,0.3-0.1,0.5c0,0.2,0,0.3,0.1,0.5
			c0,0.1,0.1,0.3,0.2,0.4c0.1,0.1,0.2,0.2,0.3,0.3c0.1,0.1,0.3,0.1,0.4,0.1c0.2,0,0.3,0,0.4-0.1s0.2-0.2,0.3-0.3
			c0.1-0.1,0.1-0.2,0.2-0.4S310.3,205.7,310.3,205.6z"/>
	</g>
	<line class="st1" x1="360.4" y1="133.3" x2="360.4" y2="17.3"/>
	<path class="st0" d="M360.4,220.3v-29 M58.4,249.3h348v-29h-348V249.3z"/>
	<line class="st1" x1="220.1" y1="133.3" x2="220.1" y2="17.3"/>
	<line class="st0" x1="220.1" y1="249.3" x2="220.1" y2="220.3"/>
	<g>
		<path d="M251.5,237.8v-0.4l1,0c0.1,0,0.1,0,0.2-0.1c0,0,0.1-0.1,0.1-0.2v-5.3l-1.5,0.3v-0.4l2.1-0.7h0.4v6.1c0,0.1,0,0.1,0.1,0.2
			c0,0,0.1,0.1,0.2,0.1l0.9,0v0.4H251.5z"/>
	</g>
	<line class="st1" x1="285.8" y1="133.3" x2="285.8" y2="17.3"/>
	<line class="st0" x1="285.8" y1="249.3" x2="285.8" y2="220.3"/>
	<g>
		<path d="M320.9,237.8v-0.7c0.5-0.4,1-0.8,1.4-1.2c0.4-0.4,0.8-0.7,1.1-1c0.3-0.3,0.6-0.6,0.7-1s0.3-0.6,0.3-1c0-0.2,0-0.5-0.1-0.6
			c-0.1-0.2-0.2-0.3-0.3-0.5c-0.1-0.1-0.3-0.2-0.5-0.3c-0.2-0.1-0.4-0.1-0.6-0.1c-0.1,0-0.2,0-0.3,0s-0.2,0.1-0.3,0.1
			c-0.1,0-0.1,0.1-0.2,0.1c0,0-0.1,0-0.1,0v1.1c0,0-0.1,0.1-0.1,0.1c0,0-0.1,0-0.2,0.1c-0.1,0-0.1,0-0.2,0c-0.1,0-0.2,0-0.2,0
			c-0.1,0-0.1-0.1-0.2-0.1s-0.1-0.1-0.1-0.2c0-0.1,0-0.2,0-0.3c0-0.2,0.1-0.4,0.2-0.6c0.1-0.2,0.3-0.3,0.5-0.5s0.4-0.2,0.7-0.3
			s0.5-0.1,0.8-0.1c0.3,0,0.6,0,0.9,0.1c0.3,0.1,0.5,0.2,0.7,0.4s0.3,0.4,0.5,0.6c0.1,0.2,0.2,0.5,0.2,0.8c0,0.2,0,0.5-0.1,0.7
			c-0.1,0.2-0.2,0.5-0.4,0.7c-0.2,0.2-0.4,0.4-0.6,0.7s-0.5,0.4-0.7,0.7c-0.3,0.2-0.5,0.4-0.8,0.7c-0.3,0.2-0.6,0.5-0.9,0.7h3
			l0.2-0.9h0.5v1.7H320.9z"/>
	</g>
	<line class="st1" x1="360.4" y1="133.3" x2="360.4" y2="17.3"/>
	<line class="st0" x1="360.4" y1="249.3" x2="360.4" y2="220.3"/>
	<rect x="58.4" y="17.3" class="st2" width="348" height="232"/>
	<g>
		<path d="M49.2,134.3v2.1h-0.9v-2.1h-3v-0.7l3.3-4.2h0.7v4.2H50v0.7H49.2z M48.2,130.7l-2.2,2.9h2.2V130.7z"/>
		<path d="M55.6,132.9c0,0.5,0,0.9-0.1,1.4c-0.1,0.4-0.2,0.8-0.4,1.1c-0.2,0.3-0.5,0.6-0.8,0.8s-0.7,0.3-1.1,0.3s-0.8-0.1-1.1-0.3
			c-0.3-0.2-0.5-0.4-0.7-0.8c-0.2-0.3-0.3-0.7-0.4-1.1c-0.1-0.4-0.1-0.9-0.1-1.4c0-0.3,0-0.6,0.1-0.9c0-0.3,0.1-0.6,0.2-0.8
			c0.1-0.3,0.2-0.5,0.3-0.7c0.1-0.2,0.3-0.4,0.5-0.6c0.2-0.2,0.4-0.3,0.6-0.4s0.5-0.1,0.7-0.1s0.5,0,0.7,0.1
			c0.2,0.1,0.4,0.2,0.6,0.4c0.2,0.2,0.3,0.3,0.5,0.6c0.1,0.2,0.2,0.5,0.3,0.7c0.1,0.3,0.2,0.5,0.2,0.8
			C55.6,132.3,55.6,132.6,55.6,132.9z M54.6,132.9c0-0.2,0-0.5,0-0.7c0-0.2,0-0.5-0.1-0.7c0-0.2-0.1-0.4-0.2-0.6
			c-0.1-0.2-0.2-0.4-0.3-0.5c-0.1-0.1-0.2-0.2-0.4-0.3c-0.1-0.1-0.3-0.1-0.5-0.1s-0.3,0-0.5,0.1c-0.1,0.1-0.3,0.2-0.4,0.3
			c-0.1,0.1-0.2,0.3-0.3,0.5c-0.1,0.2-0.1,0.4-0.2,0.6s-0.1,0.5-0.1,0.7c0,0.2,0,0.5,0,0.7c0,0.2,0,0.5,0,0.7c0,0.2,0,0.5,0.1,0.7
			c0,0.2,0.1,0.4,0.2,0.6c0.1,0.2,0.2,0.4,0.3,0.5c0.1,0.1,0.2,0.2,0.4,0.3c0.1,0.1,0.3,0.1,0.5,0.1s0.3,0,0.5-0.1
			c0.1-0.1,0.3-0.2,0.4-0.3s0.2-0.3,0.3-0.5c0.1-0.2,0.1-0.4,0.2-0.6c0-0.2,0.1-0.5,0.1-0.7C54.6,133.4,54.6,133.2,54.6,132.9z"/>
	</g>
	<line class="st2" x1="55.9" y1="133.3" x2="58.4" y2="133.3"/>
	<g>
		<path d="M40.4,20.3v-0.7c0.5-0.4,1-0.8,1.4-1.2c0.4-0.4,0.8-0.7,1.1-1c0.3-0.3,0.6-0.6,0.7-1c0.2-0.3,0.3-0.6,0.3-1
			c0-0.2,0-0.5-0.1-0.6c-0.1-0.2-0.2-0.3-0.3-0.5c-0.1-0.1-0.3-0.2-0.5-0.3c-0.2-0.1-0.4-0.1-0.6-0.1c-0.1,0-0.2,0-0.3,0
			c-0.1,0-0.2,0.1-0.3,0.1s-0.1,0.1-0.2,0.1c0,0-0.1,0-0.1,0v1.1c0,0-0.1,0.1-0.1,0.1c0,0-0.1,0-0.2,0.1c-0.1,0-0.1,0-0.2,0
			c-0.1,0-0.2,0-0.2,0c-0.1,0-0.1-0.1-0.2-0.1c-0.1,0-0.1-0.1-0.1-0.2c0-0.1,0-0.2,0-0.3c0-0.2,0.1-0.4,0.2-0.6
			c0.1-0.2,0.3-0.3,0.5-0.5c0.2-0.1,0.4-0.2,0.7-0.3s0.5-0.1,0.8-0.1c0.3,0,0.6,0,0.9,0.1c0.3,0.1,0.5,0.2,0.7,0.4
			c0.2,0.2,0.3,0.4,0.5,0.6s0.2,0.5,0.2,0.8c0,0.2,0,0.5-0.1,0.7c-0.1,0.2-0.2,0.5-0.4,0.7s-0.4,0.4-0.6,0.7
			c-0.2,0.2-0.5,0.4-0.7,0.7c-0.3,0.2-0.5,0.4-0.8,0.7c-0.3,0.2-0.6,0.5-0.9,0.7h3l0.2-0.9H45v1.7H40.4z"/>
		<path d="M50.7,17c0,0.5,0,0.9-0.1,1.3c-0.1,0.4-0.2,0.8-0.4,1.1c-0.2,0.3-0.5,0.6-0.8,0.8s-0.7,0.3-1.1,0.3s-0.8-0.1-1.1-0.3
			c-0.3-0.2-0.5-0.4-0.7-0.8c-0.2-0.3-0.3-0.7-0.4-1.1c-0.1-0.4-0.1-0.9-0.1-1.3c0-0.3,0-0.6,0.1-0.9c0-0.3,0.1-0.6,0.2-0.8
			c0.1-0.3,0.2-0.5,0.3-0.7c0.1-0.2,0.3-0.4,0.5-0.6c0.2-0.2,0.4-0.3,0.6-0.4s0.5-0.1,0.7-0.1s0.5,0,0.7,0.1
			c0.2,0.1,0.4,0.2,0.6,0.4c0.2,0.2,0.3,0.3,0.5,0.6c0.1,0.2,0.2,0.5,0.3,0.7c0.1,0.3,0.2,0.5,0.2,0.8C50.7,16.4,50.7,16.7,50.7,17z
			 M49.7,17c0-0.2,0-0.5,0-0.7c0-0.2,0-0.5-0.1-0.7c0-0.2-0.1-0.4-0.2-0.6c-0.1-0.2-0.2-0.4-0.3-0.5c-0.1-0.1-0.2-0.2-0.4-0.3
			C48.6,14,48.5,14,48.3,14s-0.3,0-0.5,0.1c-0.1,0.1-0.3,0.2-0.4,0.3c-0.1,0.1-0.2,0.3-0.3,0.5c-0.1,0.2-0.1,0.4-0.2,0.6
			S47,16,47,16.3c0,0.2,0,0.5,0,0.7c0,0.2,0,0.5,0,0.7c0,0.2,0,0.5,0.1,0.7c0,0.2,0.1,0.4,0.2,0.6c0.1,0.2,0.2,0.4,0.3,0.5
			c0.1,0.1,0.2,0.2,0.4,0.3C48,20,48.1,20,48.3,20s0.3,0,0.5-0.1c0.1-0.1,0.3-0.2,0.4-0.3s0.2-0.3,0.3-0.5c0.1-0.2,0.1-0.4,0.2-0.6
			c0-0.2,0.1-0.5,0.1-0.7C49.7,17.5,49.7,17.2,49.7,17z"/>
		<path d="M56.3,17c0,0.5,0,0.9-0.1,1.3c-0.1,0.4-0.2,0.8-0.4,1.1c-0.2,0.3-0.5,0.6-0.8,0.8s-0.7,0.3-1.1,0.3s-0.8-0.1-1.1-0.3
			c-0.3-0.2-0.5-0.4-0.7-0.8c-0.2-0.3-0.3-0.7-0.4-1.1c-0.1-0.4-0.1-0.9-0.1-1.3c0-0.3,0-0.6,0.1-0.9c0-0.3,0.1-0.6,0.2-0.8
			c0.1-0.3,0.2-0.5,0.3-0.7c0.1-0.2,0.3-0.4,0.5-0.6c0.2-0.2,0.4-0.3,0.6-0.4s0.5-0.1,0.7-0.1s0.5,0,0.7,0.1
			c0.2,0.1,0.4,0.2,0.6,0.4c0.2,0.2,0.3,0.3,0.5,0.6c0.1,0.2,0.2,0.5,0.3,0.7c0.1,0.3,0.2,0.5,0.2,0.8C56.3,16.4,56.3,16.7,56.3,17z
			 M55.3,17c0-0.2,0-0.5,0-0.7c0-0.2,0-0.5-0.1-0.7c0-0.2-0.1-0.4-0.2-0.6c-0.1-0.2-0.2-0.4-0.3-0.5c-0.1-0.1-0.2-0.2-0.4-0.3
			C54.2,14,54.1,14,53.9,14s-0.3,0-0.5,0.1c-0.1,0.1-0.3,0.2-0.4,0.3c-0.1,0.1-0.2,0.3-0.3,0.5c-0.1,0.2-0.1,0.4-0.2,0.6
			s-0.1,0.5-0.1,0.7c0,0.2,0,0.5,0,0.7c0,0.2,0,0.5,0,0.7c0,0.2,0,0.5,0.1,0.7c0,0.2,0.1,0.4,0.2,0.6c0.1,0.2,0.2,0.4,0.3,0.5
			c0.1,0.1,0.2,0.2,0.4,0.3c0.1,0.1,0.3,0.1,0.5,0.1s0.3,0,0.5-0.1c0.1-0.1,0.3-0.2,0.4-0.3s0.2-0.3,0.3-0.5
			c0.1-0.2,0.1-0.4,0.2-0.6c0-0.2,0.1-0.5,0.1-0.7C55.3,17.5,55.3,17.2,55.3,17z"/>
	</g>
	<line class="st2" x1="55.9" y1="17.3" x2="58.4" y2="17.3"/>
	<g>
		<path d="M41,92.8v-0.4l1,0c0.1,0,0.1,0,0.2-0.1c0,0,0.1-0.1,0.1-0.2v-5.3l-1.5,0.3v-0.4l2.1-0.7h0.4v6.1c0,0.1,0,0.1,0.1,0.2
			c0,0,0.1,0.1,0.2,0.1l0.9,0v0.4H41z"/>
		<path d="M50.7,89.5c0,0.5,0,0.9-0.1,1.3c-0.1,0.4-0.2,0.8-0.4,1.1c-0.2,0.3-0.5,0.6-0.8,0.8S48.7,93,48.3,93s-0.8-0.1-1.1-0.3
			c-0.3-0.2-0.5-0.4-0.7-0.8c-0.2-0.3-0.3-0.7-0.4-1.1c-0.1-0.4-0.1-0.9-0.1-1.3c0-0.3,0-0.6,0.1-0.9c0-0.3,0.1-0.6,0.2-0.8
			c0.1-0.3,0.2-0.5,0.3-0.7c0.1-0.2,0.3-0.4,0.5-0.6c0.2-0.2,0.4-0.3,0.6-0.4S48,86,48.3,86s0.5,0,0.7,0.1c0.2,0.1,0.4,0.2,0.6,0.4
			c0.2,0.2,0.3,0.3,0.5,0.6c0.1,0.2,0.2,0.5,0.3,0.7c0.1,0.3,0.2,0.5,0.2,0.8C50.7,88.9,50.7,89.2,50.7,89.5z M49.7,89.5
			c0-0.2,0-0.5,0-0.7c0-0.2,0-0.5-0.1-0.7c0-0.2-0.1-0.4-0.2-0.6c-0.1-0.2-0.2-0.4-0.3-0.5c-0.1-0.1-0.2-0.2-0.4-0.3
			c-0.1-0.1-0.3-0.1-0.5-0.1s-0.3,0-0.5,0.1c-0.1,0.1-0.3,0.2-0.4,0.3c-0.1,0.1-0.2,0.3-0.3,0.5c-0.1,0.2-0.1,0.4-0.2,0.6
			S47,88.5,47,88.7c0,0.2,0,0.5,0,0.7c0,0.2,0,0.5,0,0.7c0,0.2,0,0.5,0.1,0.7c0,0.2,0.1,0.4,0.2,0.6c0.1,0.2,0.2,0.4,0.3,0.5
			c0.1,0.1,0.2,0.2,0.4,0.3c0.1,0.1,0.3,0.1,0.5,0.1s0.3,0,0.5-0.1c0.1-0.1,0.3-0.2,0.4-0.3s0.2-0.3,0.3-0.5
			c0.1-0.2,0.1-0.4,0.2-0.6c0-0.2,0.1-0.5,0.1-0.7C49.7,90,49.7,89.7,49.7,89.5z"/>
		<path d="M56.3,89.5c0,0.5,0,0.9-0.1,1.3c-0.1,0.4-0.2,0.8-0.4,1.1c-0.2,0.3-0.5,0.6-0.8,0.8S54.3,93,53.9,93s-0.8-0.1-1.1-0.3
			c-0.3-0.2-0.5-0.4-0.7-0.8c-0.2-0.3-0.3-0.7-0.4-1.1c-0.1-0.4-0.1-0.9-0.1-1.3c0-0.3,0-0.6,0.1-0.9c0-0.3,0.1-0.6,0.2-0.8
			c0.1-0.3,0.2-0.5,0.3-0.7c0.1-0.2,0.3-0.4,0.5-0.6c0.2-0.2,0.4-0.3,0.6-0.4s0.5-0.1,0.7-0.1s0.5,0,0.7,0.1
			c0.2,0.1,0.4,0.2,0.6,0.4c0.2,0.2,0.3,0.3,0.5,0.6c0.1,0.2,0.2,0.5,0.3,0.7c0.1,0.3,0.2,0.5,0.2,0.8
			C56.3,88.9,56.3,89.2,56.3,89.5z M55.3,89.5c0-0.2,0-0.5,0-0.7c0-0.2,0-0.5-0.1-0.7c0-0.2-0.1-0.4-0.2-0.6
			c-0.1-0.2-0.2-0.4-0.3-0.5c-0.1-0.1-0.2-0.2-0.4-0.3c-0.1-0.1-0.3-0.1-0.5-0.1s-0.3,0-0.5,0.1c-0.1,0.1-0.3,0.2-0.4,0.3
			c-0.1,0.1-0.2,0.3-0.3,0.5c-0.1,0.2-0.1,0.4-0.2,0.6s-0.1,0.5-0.1,0.7c0,0.2,0,0.5,0,0.7c0,0.2,0,0.5,0,0.7c0,0.2,0,0.5,0.1,0.7
			c0,0.2,0.1,0.4,0.2,0.6c0.1,0.2,0.2,0.4,0.3,0.5c0.1,0.1,0.2,0.2,0.4,0.3c0.1,0.1,0.3,0.1,0.5,0.1s0.3,0,0.5-0.1
			c0.1-0.1,0.3-0.2,0.4-0.3s0.2-0.3,0.3-0.5c0.1-0.2,0.1-0.4,0.2-0.6c0-0.2,0.1-0.5,0.1-0.7C55.3,90,55.3,89.7,55.3,89.5z"/>
	</g>
	<line class="st2" x1="55.9" y1="89.8" x2="58.4" y2="89.8"/>
	<g>
		<path d="M41,56.6v-0.4l1,0c0.1,0,0.1,0,0.2-0.1c0,0,0.1-0.1,0.1-0.2v-5.3l-1.5,0.3v-0.4l2.1-0.7h0.4v6.1c0,0.1,0,0.1,0.1,0.2
			c0,0,0.1,0.1,0.2,0.1l0.9,0v0.4H41z"/>
		<path d="M50.7,54.4c0,0.3-0.1,0.6-0.2,0.9s-0.3,0.5-0.5,0.7c-0.2,0.2-0.5,0.4-0.9,0.5s-0.8,0.2-1.2,0.2c-0.3,0-0.5,0-0.7-0.1
			c-0.2-0.1-0.4-0.2-0.6-0.3s-0.3-0.2-0.4-0.4C46,55.8,46,55.7,46,55.5c0-0.2,0.1-0.3,0.2-0.4c0.1-0.1,0.3-0.1,0.4-0.1
			c0.1,0,0.1,0,0.2,0s0.1,0,0.1,0l0.4,0.9c0,0,0.1,0.1,0.2,0.1c0.1,0,0.1,0.1,0.2,0.1c0.1,0,0.1,0,0.2,0.1s0.1,0,0.2,0
			c0.3,0,0.5,0,0.7-0.1c0.2-0.1,0.4-0.2,0.5-0.4c0.1-0.2,0.2-0.3,0.3-0.5s0.1-0.4,0.1-0.5c0-0.3,0-0.5-0.1-0.7s-0.2-0.4-0.4-0.5
			s-0.3-0.2-0.5-0.3C48.4,53,48.2,53,47.9,53c-0.2,0-0.3,0-0.5,0.1s-0.4,0.1-0.5,0.1c-0.2,0-0.4,0.1-0.5,0.2v-3.5h3.8v0.8h-3.1v1.9
			c0,0,0,0,0.1,0c0.1,0,0.2-0.1,0.3-0.1c0.1,0,0.3-0.1,0.4-0.1c0.2,0,0.3,0,0.5,0c0.3,0,0.7,0,0.9,0.1c0.3,0.1,0.5,0.2,0.7,0.4
			c0.2,0.2,0.3,0.4,0.4,0.6S50.7,54.1,50.7,54.4z"/>
		<path d="M56.3,53.2c0,0.5,0,0.9-0.1,1.3c-0.1,0.4-0.2,0.8-0.4,1.1c-0.2,0.3-0.5,0.6-0.8,0.8s-0.7,0.3-1.1,0.3s-0.8-0.1-1.1-0.3
			c-0.3-0.2-0.5-0.4-0.7-0.8c-0.2-0.3-0.3-0.7-0.4-1.1c-0.1-0.4-0.1-0.9-0.1-1.3c0-0.3,0-0.6,0.1-0.9c0-0.3,0.1-0.6,0.2-0.8
			c0.1-0.3,0.2-0.5,0.3-0.7c0.1-0.2,0.3-0.4,0.5-0.6c0.2-0.2,0.4-0.3,0.6-0.4s0.5-0.1,0.7-0.1s0.5,0,0.7,0.1
			c0.2,0.1,0.4,0.2,0.6,0.4c0.2,0.2,0.3,0.3,0.5,0.6c0.1,0.2,0.2,0.5,0.3,0.7c0.1,0.3,0.2,0.5,0.2,0.8
			C56.3,52.6,56.3,52.9,56.3,53.2z M55.3,53.2c0-0.2,0-0.5,0-0.7c0-0.2,0-0.5-0.1-0.7c0-0.2-0.1-0.4-0.2-0.6
			c-0.1-0.2-0.2-0.4-0.3-0.5c-0.1-0.1-0.2-0.2-0.4-0.3c-0.1-0.1-0.3-0.1-0.5-0.1s-0.3,0-0.5,0.1c-0.1,0.1-0.3,0.2-0.4,0.3
			c-0.1,0.1-0.2,0.3-0.3,0.5c-0.1,0.2-0.1,0.4-0.2,0.6s-0.1,0.5-0.1,0.7c0,0.2,0,0.5,0,0.7c0,0.2,0,0.5,0,0.7c0,0.2,0,0.5,0.1,0.7
			c0,0.2,0.1,0.4,0.2,0.6c0.1,0.2,0.2,0.4,0.3,0.5c0.1,0.1,0.2,0.2,0.4,0.3c0.1,0.1,0.3,0.1,0.5,0.1s0.3,0,0.5-0.1
			c0.1-0.1,0.3-0.2,0.4-0.3s0.2-0.3,0.3-0.5c0.1-0.2,0.1-0.4,0.2-0.6c0-0.2,0.1-0.5,0.1-0.7C55.3,53.7,55.3,53.5,55.3,53.2z"/>
	</g>
	<line class="st2" x1="55.9" y1="53.5" x2="58.4" y2="53.5"/>
	<g>
		<path d="M21.7,148.5c0.4,0,0.7,0.1,1,0.2s0.5,0.3,0.7,0.6c0.2,0.2,0.3,0.5,0.4,0.8c0.1,0.3,0.1,0.7,0.1,1c0,0.1,0,0.1,0,0.2
			c0,0.1,0,0.1,0,0.2s0,0.1,0,0.2c0,0.1,0,0.1,0,0.1h1.9c0,0,0.1,0,0.1-0.1c0,0,0.1-0.1,0.1-0.2l0-0.7h0.4v2.6h-0.4l0-0.5
			c0-0.1,0-0.1-0.1-0.2c0,0-0.1-0.1-0.1-0.1h-5.3c0,0-0.1,0-0.1,0.1c0,0-0.1,0.1-0.1,0.2l0,0.6h-0.4v-2.4c0-0.5,0-0.9,0.1-1.2
			s0.2-0.6,0.3-0.9c0.2-0.2,0.4-0.4,0.6-0.5S21.3,148.5,21.7,148.5z M21.7,149.5c-0.2,0-0.5,0-0.6,0.1c-0.2,0.1-0.4,0.2-0.5,0.3
			c-0.1,0.1-0.2,0.3-0.3,0.5c-0.1,0.2-0.1,0.5-0.1,0.8c0,0,0,0.1,0,0.2s0,0.1,0,0.2c0,0.1,0,0.1,0,0.2h3.1c0,0,0,0,0-0.1
			c0,0,0-0.1,0-0.1c0-0.1,0-0.1,0-0.2c0-0.1,0-0.1,0-0.2c0-0.3,0-0.5-0.1-0.7c-0.1-0.2-0.2-0.4-0.3-0.5c-0.1-0.1-0.3-0.3-0.5-0.3
			C22.2,149.6,22,149.5,21.7,149.5z"/>
		<path d="M19.9,146c0.1,0,0.2,0,0.2,0c0.1,0,0.1,0.1,0.2,0.1c0.1,0.1,0.1,0.1,0.1,0.2c0,0.1,0,0.2,0,0.2c0,0.1,0,0.2,0,0.2
			c0,0.1-0.1,0.1-0.1,0.2c-0.1,0.1-0.1,0.1-0.2,0.1c-0.1,0-0.2,0-0.2,0s-0.2,0-0.2,0c-0.1,0-0.1-0.1-0.2-0.1
			c-0.1-0.1-0.1-0.1-0.1-0.2s0-0.2,0-0.2c0-0.1,0-0.2,0-0.2c0-0.1,0.1-0.1,0.1-0.2c0.1-0.1,0.1-0.1,0.2-0.1
			C19.7,146,19.8,146,19.9,146z M26.3,147.8h-0.4l0-0.5c0-0.1,0-0.1-0.1-0.2s-0.1-0.1-0.2-0.1h-3.6v0.7h-0.4l-0.4-1.2v-0.4h4.3
			c0.1,0,0.1,0,0.2-0.1c0,0,0.1-0.1,0.1-0.1l0-0.5h0.4V147.8z"/>
		<path d="M26.1,141.8c0.1,0.1,0.1,0.3,0.2,0.4c0,0.1,0.1,0.3,0.1,0.4c0,0.2,0.1,0.3,0.1,0.5c0,0.4-0.1,0.6-0.3,0.8
			c-0.2,0.2-0.5,0.3-0.9,0.3H22v0.6h-0.3l-0.3-0.7l-1.1-0.4v-0.4h1.2v-1.4H22v1.4h2.8c0.2,0,0.4,0,0.5-0.1c0.1,0,0.3-0.1,0.3-0.2
			s0.1-0.1,0.2-0.2s0.1-0.2,0.1-0.3c0-0.1,0-0.2,0-0.3c0-0.1,0-0.2-0.1-0.2c0-0.1-0.1-0.1-0.1-0.2H26.1z"/>
		<path d="M26,137.4c0.1,0.1,0.1,0.2,0.2,0.4s0.1,0.3,0.2,0.4c0,0.1,0.1,0.3,0.1,0.4c0,0.2,0,0.3,0,0.5c0,0.3-0.1,0.7-0.2,0.9
			c-0.1,0.3-0.3,0.5-0.5,0.7c-0.2,0.2-0.5,0.3-0.8,0.5c-0.3,0.1-0.6,0.2-1,0.2c-0.4,0-0.8-0.1-1.1-0.2c-0.3-0.1-0.6-0.3-0.8-0.5
			c-0.2-0.2-0.4-0.5-0.5-0.8c-0.1-0.3-0.2-0.6-0.2-0.9c0-0.2,0-0.4,0.1-0.6s0.1-0.4,0.2-0.5c0.1-0.1,0.2-0.2,0.3-0.3
			c0.1-0.1,0.3-0.1,0.4-0.1c0.1,0,0.2,0,0.3,0.1c0.1,0,0.1,0.1,0.2,0.1c0.1,0.1,0.1,0.1,0.1,0.2c0,0.1,0,0.1,0,0.2
			c0,0.1,0,0.2-0.1,0.3s-0.1,0.2-0.1,0.2H22c0,0.1-0.1,0.1-0.1,0.2c0,0.1,0,0.1,0,0.2c0,0.2,0.1,0.4,0.2,0.6
			c0.1,0.2,0.2,0.3,0.4,0.4c0.2,0.1,0.4,0.2,0.6,0.3c0.2,0.1,0.5,0.1,0.8,0.1c0.3,0,0.5,0,0.8-0.1c0.2-0.1,0.5-0.2,0.6-0.3
			c0.2-0.1,0.3-0.3,0.4-0.5c0.1-0.2,0.2-0.4,0.2-0.7c0-0.2,0-0.5-0.1-0.7c-0.1-0.2-0.2-0.4-0.3-0.6H26z"/>
		<path d="M26.3,133.8h-0.4l0-0.4c0-0.1,0-0.1-0.1-0.2s-0.1-0.1-0.2-0.1h-2.6c-0.1,0-0.3,0-0.4,0c-0.1,0-0.2,0.1-0.3,0.2
			s-0.2,0.2-0.2,0.3c-0.1,0.1-0.1,0.3-0.1,0.5c0,0.1,0,0.2,0,0.3c0,0.1,0,0.2,0.1,0.3s0.1,0.2,0.1,0.3s0.1,0.2,0.1,0.2h3.3
			c0.1,0,0.1,0,0.2-0.1c0,0,0.1-0.1,0.1-0.1l0-0.4h0.4v2.2h-0.4l0-0.5c0-0.1,0-0.1-0.1-0.2c0,0-0.1-0.1-0.2-0.1h-6v0.7h-0.3
			l-0.4-1.3v-0.4h3c-0.1-0.1-0.1-0.2-0.2-0.3s-0.1-0.3-0.2-0.4c-0.1-0.2-0.1-0.3-0.2-0.5s-0.1-0.3-0.1-0.4c0-0.2,0-0.4,0.1-0.5
			c0.1-0.2,0.2-0.3,0.3-0.4c0.1-0.1,0.3-0.2,0.5-0.3c0.2-0.1,0.4-0.1,0.7-0.1h2.8c0.1,0,0.1,0,0.2-0.1c0,0,0.1-0.1,0.1-0.2l0-0.4
			h0.4V133.8z"/>
		<path d="M27.8,125c0,0.3-0.1,0.7-0.2,0.9c-0.1,0.3-0.3,0.5-0.5,0.7c-0.2,0.2-0.4,0.4-0.7,0.5c-0.3,0.1-0.5,0.3-0.8,0.4
			s-0.6,0.2-1,0.2c-0.3,0-0.7,0.1-1.1,0.1c-0.5,0-1.1,0-1.5-0.1c-0.5-0.1-0.9-0.3-1.3-0.5s-0.7-0.5-0.9-0.9
			c-0.2-0.4-0.4-0.8-0.5-1.3h0.4c0.1,0.4,0.2,0.6,0.4,0.9s0.5,0.4,0.8,0.6c0.3,0.2,0.7,0.3,1.2,0.3s0.9,0.1,1.5,0.1
			c0.6,0,1.1,0,1.5-0.1c0.4-0.1,0.8-0.2,1.2-0.3s0.6-0.3,0.8-0.6c0.2-0.2,0.3-0.5,0.4-0.9H27.8z"/>
		<path d="M26.3,120.1h-0.4l0-0.6c0-0.1,0-0.1-0.1-0.2c0,0-0.1-0.1-0.1-0.1h-2.6v3.3h2.6c0,0,0.1,0,0.1-0.1c0,0,0.1-0.1,0.1-0.2
			l0-0.6h0.4v2.5h-0.4l0-0.5c0-0.1,0-0.1-0.1-0.2c0,0-0.1-0.1-0.1-0.1h-5.3c0,0-0.1,0-0.1,0.1c0,0-0.1,0.1-0.1,0.2l0,0.5h-0.4v-2.5
			h0.4l0,0.6c0,0.1,0,0.1,0.1,0.2c0,0,0.1,0.1,0.1,0.1h2.2v-3.3h-2.2c0,0-0.1,0-0.1,0.1c0,0-0.1,0.1-0.1,0.2l0,0.6h-0.4v-2.5h0.4
			l0,0.5c0,0.1,0,0.1,0.1,0.2c0,0,0.1,0.1,0.1,0.1h5.3c0,0,0.1,0,0.1-0.1c0,0,0.1-0.1,0.1-0.2l0-0.5h0.4V120.1z"/>
		<path d="M26.3,117h-0.5l-3.8-2.6v1.7c0,0,0,0.1,0.1,0.1c0,0,0.1,0.1,0.1,0.1l0.7,0.1v0.5h-1.4v-3.7h0.4l3.9,2.7v-2c0,0,0,0,0-0.1
			c0,0,0,0-0.1-0.1c0,0,0,0-0.1-0.1c0,0-0.1,0-0.1,0l-0.8-0.1V113h1.5V117z"/>
		<path d="M23.5,109.5c0.4,0,0.7,0,1.1,0.1c0.3,0,0.7,0.1,1,0.2s0.6,0.2,0.8,0.4s0.5,0.3,0.7,0.5c0.2,0.2,0.4,0.5,0.5,0.7
			c0.1,0.3,0.2,0.6,0.2,0.9h-0.4c-0.1-0.4-0.2-0.6-0.4-0.9c-0.2-0.2-0.5-0.4-0.8-0.6s-0.7-0.3-1.2-0.3c-0.4-0.1-0.9-0.1-1.5-0.1
			c-0.6,0-1.1,0-1.5,0.1s-0.8,0.2-1.2,0.3c-0.3,0.1-0.6,0.3-0.8,0.6c-0.2,0.2-0.3,0.5-0.4,0.9h-0.4c0.1-0.5,0.2-1,0.5-1.3
			s0.6-0.7,0.9-0.9s0.8-0.4,1.3-0.5C22.4,109.6,22.9,109.5,23.5,109.5z"/>
	</g>
	<g>
		<path d="M220.6,268.2l-0.1-0.9c0-0.1,0-0.1-0.1-0.1c0,0-0.1,0-0.1,0h-1.4v5.5c0,0,0,0.1,0.1,0.1c0,0,0.1,0.1,0.2,0.1l0.6,0v0.4
			H217v-0.4l0.6,0c0.1,0,0.1,0,0.2-0.1c0,0,0.1-0.1,0.1-0.1v-5.5h-1.4c0,0-0.1,0-0.1,0c0,0,0,0.1-0.1,0.1l-0.1,0.9h-0.6v-1.6h5.6
			v1.6H220.6z"/>
		<path d="M221.6,273.3v-0.4l0.5,0c0.1,0,0.1,0,0.2-0.1s0.1-0.1,0.1-0.2v-3.6h-0.7v-0.3l1.2-0.4h0.4v4.3c0,0.1,0,0.1,0.1,0.2
			s0.1,0.1,0.1,0.1l0.5,0v0.4H221.6z M223.5,266.8c0,0.1,0,0.2,0,0.2c0,0.1-0.1,0.1-0.1,0.2c-0.1,0.1-0.1,0.1-0.2,0.1
			c-0.1,0-0.2,0-0.2,0c-0.1,0-0.2,0-0.2,0c-0.1,0-0.1-0.1-0.2-0.1c-0.1-0.1-0.1-0.1-0.1-0.2c0-0.1,0-0.2,0-0.2s0-0.2,0-0.2
			c0-0.1,0.1-0.1,0.1-0.2c0.1-0.1,0.1-0.1,0.2-0.1c0.1,0,0.2,0,0.2,0c0.1,0,0.2,0,0.2,0c0.1,0,0.1,0.1,0.2,0.1
			c0.1,0.1,0.1,0.1,0.1,0.2C223.5,266.7,223.5,266.8,223.5,266.8z"/>
		<path d="M230.3,273.3v-0.4l0.4,0c0.1,0,0.1,0,0.2-0.1s0.1-0.1,0.1-0.2v-2.5c0-0.2,0-0.3,0-0.4c0-0.1-0.1-0.2-0.1-0.3
			c-0.1-0.1-0.2-0.2-0.3-0.2s-0.3-0.1-0.4-0.1c-0.1,0-0.2,0-0.3,0c-0.1,0-0.2,0-0.3,0.1c-0.1,0-0.2,0.1-0.3,0.1
			c-0.1,0-0.2,0.1-0.3,0.1v3.3c0,0.1,0,0.1,0.1,0.2s0.1,0.1,0.2,0.1l0.4,0v0.4h-2.2v-0.4l0.4,0c0.1,0,0.1,0,0.2-0.1s0.1-0.1,0.1-0.2
			V270c0-0.1,0-0.3,0-0.4c0-0.1-0.1-0.2-0.2-0.3c-0.1-0.1-0.2-0.1-0.3-0.2c-0.1,0-0.2-0.1-0.4-0.1c-0.1,0-0.2,0-0.3,0
			c-0.1,0-0.2,0-0.3,0.1c-0.1,0-0.2,0.1-0.3,0.1c-0.1,0-0.2,0.1-0.2,0.1v3.3c0,0.1,0,0.1,0.1,0.2c0,0,0.1,0.1,0.2,0.1l0.4,0v0.4
			h-2.3v-0.4l0.5,0c0.1,0,0.1,0,0.2-0.1s0.1-0.1,0.1-0.2v-3.5h-0.7v-0.3l1.2-0.4h0.4v0.5c0.1-0.1,0.2-0.1,0.4-0.2
			c0.1-0.1,0.3-0.1,0.4-0.2c0.1-0.1,0.3-0.1,0.4-0.2c0.1,0,0.3-0.1,0.4-0.1c0.1,0,0.3,0,0.4,0.1c0.1,0,0.2,0.1,0.3,0.2
			s0.2,0.1,0.2,0.2c0.1,0.1,0.1,0.2,0.2,0.2c0.1-0.1,0.2-0.1,0.4-0.2c0.1-0.1,0.3-0.2,0.5-0.2c0.2-0.1,0.3-0.1,0.5-0.2
			c0.2,0,0.3-0.1,0.4-0.1c0.3,0,0.5,0,0.6,0.1s0.3,0.2,0.4,0.4c0.1,0.1,0.2,0.3,0.2,0.5c0,0.2,0.1,0.4,0.1,0.5v2.8
			c0,0.1,0,0.1,0.1,0.2c0,0,0.1,0.1,0.1,0.1l0.5,0v0.4H230.3z"/>
		<path d="M237.3,272.8c-0.1,0.1-0.3,0.2-0.4,0.2c-0.2,0.1-0.3,0.1-0.5,0.2c-0.2,0.1-0.3,0.1-0.5,0.1c-0.2,0-0.3,0-0.5,0
			c-0.3,0-0.6-0.1-0.9-0.2s-0.5-0.3-0.7-0.5c-0.2-0.2-0.4-0.5-0.5-0.8c-0.1-0.3-0.2-0.7-0.2-1.1c0-0.4,0.1-0.7,0.2-1.1
			c0.1-0.3,0.3-0.6,0.5-0.8c0.2-0.2,0.5-0.4,0.7-0.5c0.3-0.1,0.6-0.2,0.9-0.2c0.3,0,0.6,0.1,0.8,0.2c0.2,0.1,0.4,0.2,0.6,0.4
			c0.2,0.2,0.3,0.4,0.4,0.6c0.1,0.3,0.1,0.5,0.1,0.8v0.1c0,0.1,0,0.1,0,0.1h-3.2c0,0.3,0,0.5,0.1,0.8c0.1,0.3,0.1,0.5,0.3,0.7
			c0.1,0.2,0.3,0.4,0.5,0.5c0.2,0.1,0.5,0.2,0.8,0.2c0.1,0,0.3,0,0.4-0.1c0.1,0,0.3-0.1,0.4-0.1s0.3-0.1,0.4-0.2
			c0.1-0.1,0.2-0.1,0.4-0.2V272.8z M236.3,270c0-0.2,0-0.3-0.1-0.5c0-0.1-0.1-0.3-0.2-0.4s-0.2-0.2-0.3-0.2s-0.3-0.1-0.4-0.1
			c-0.2,0-0.3,0-0.5,0.1c-0.1,0.1-0.3,0.2-0.4,0.3c-0.1,0.1-0.2,0.3-0.3,0.4s-0.1,0.4-0.1,0.6h2.2V270z"/>
		<path d="M244,274.7c-0.3,0-0.7-0.1-0.9-0.2s-0.5-0.3-0.7-0.5c-0.2-0.2-0.4-0.4-0.5-0.7c-0.2-0.3-0.3-0.5-0.4-0.8
			c-0.1-0.3-0.2-0.6-0.2-1c0-0.3-0.1-0.7-0.1-1.1c0-0.5,0-1.1,0.1-1.5c0.1-0.5,0.3-0.9,0.5-1.3c0.2-0.4,0.5-0.7,0.9-0.9
			c0.4-0.2,0.8-0.4,1.3-0.5v0.4c-0.4,0.1-0.6,0.2-0.9,0.4c-0.2,0.2-0.4,0.5-0.6,0.8c-0.2,0.3-0.3,0.7-0.3,1.2s-0.1,0.9-0.1,1.5
			c0,0.6,0,1.1,0.1,1.5c0.1,0.4,0.2,0.8,0.3,1.2c0.2,0.3,0.3,0.6,0.6,0.8c0.2,0.2,0.5,0.3,0.9,0.4V274.7z"/>
		<path d="M248,271.8c0,0.2,0,0.5-0.1,0.7c-0.1,0.2-0.2,0.4-0.4,0.5s-0.4,0.2-0.6,0.3c-0.2,0.1-0.5,0.1-0.8,0.1c-0.2,0-0.3,0-0.4,0
			s-0.3,0-0.4-0.1c-0.1,0-0.2-0.1-0.3-0.1s-0.2-0.1-0.2-0.1v-1.3h0.5l0.1,0.8c0.1,0.1,0.2,0.1,0.4,0.2c0.1,0.1,0.3,0.1,0.5,0.1
			c0.1,0,0.3,0,0.4-0.1c0.1,0,0.2-0.1,0.3-0.2c0.1-0.1,0.1-0.2,0.2-0.2s0.1-0.2,0.1-0.3c0-0.1,0-0.3-0.1-0.4s-0.1-0.2-0.2-0.3
			s-0.2-0.2-0.4-0.2s-0.3-0.2-0.5-0.3c-0.2-0.1-0.3-0.2-0.5-0.3s-0.3-0.2-0.4-0.3c-0.1-0.1-0.2-0.2-0.2-0.3c0-0.1-0.1-0.3-0.1-0.4
			c0-0.2,0-0.4,0.1-0.6c0.1-0.2,0.2-0.3,0.3-0.5s0.3-0.2,0.6-0.3s0.5-0.1,0.8-0.1c0.1,0,0.3,0,0.4,0c0.1,0,0.3,0,0.4,0.1
			c0.1,0,0.2,0,0.3,0.1c0.1,0,0.2,0.1,0.2,0.1v1.2h-0.5l-0.1-0.7c-0.1-0.1-0.2-0.1-0.3-0.2c-0.1,0-0.3-0.1-0.4-0.1
			c-0.3,0-0.5,0.1-0.6,0.2c-0.1,0.1-0.2,0.3-0.2,0.5c0,0.1,0,0.2,0.1,0.3s0.1,0.2,0.2,0.2s0.2,0.2,0.3,0.2s0.3,0.2,0.5,0.3
			c0.2,0.1,0.3,0.2,0.5,0.2c0.1,0.1,0.3,0.2,0.4,0.3s0.2,0.2,0.3,0.3S248,271.7,248,271.8z"/>
		<path d="M251.5,270.4c0,0.4,0,0.7-0.1,1.1c0,0.3-0.1,0.7-0.2,1c-0.1,0.3-0.2,0.6-0.4,0.8c-0.2,0.3-0.3,0.5-0.5,0.7
			c-0.2,0.2-0.4,0.4-0.7,0.5c-0.3,0.1-0.6,0.2-0.9,0.2v-0.4c0.3-0.1,0.6-0.2,0.9-0.4s0.4-0.5,0.6-0.8c0.1-0.3,0.3-0.7,0.3-1.2
			c0.1-0.4,0.1-0.9,0.1-1.5c0-0.6,0-1.1-0.1-1.5s-0.2-0.8-0.3-1.2c-0.1-0.3-0.3-0.6-0.6-0.8s-0.5-0.3-0.9-0.4v-0.4
			c0.5,0.1,1,0.2,1.3,0.5c0.4,0.2,0.7,0.6,0.9,0.9c0.2,0.4,0.4,0.8,0.5,1.3C251.4,269.4,251.5,269.9,251.5,270.4z"/>
	</g>
	<g>
		<path d="M61.1,258.6c0,0.5,0,0.9-0.1,1.3c-0.1,0.4-0.2,0.8-0.4,1.1s-0.5,0.6-0.8,0.8c-0.3,0.2-0.7,0.3-1.1,0.3s-0.8-0.1-1.1-0.3
			c-0.3-0.2-0.5-0.4-0.7-0.8s-0.3-0.7-0.4-1.1c-0.1-0.4-0.1-0.9-0.1-1.3c0-0.3,0-0.6,0.1-0.9c0-0.3,0.1-0.6,0.2-0.8
			c0.1-0.3,0.2-0.5,0.3-0.7c0.1-0.2,0.3-0.4,0.5-0.6s0.4-0.3,0.6-0.4s0.5-0.1,0.7-0.1s0.5,0,0.7,0.1c0.2,0.1,0.4,0.2,0.6,0.4
			s0.3,0.3,0.5,0.6c0.1,0.2,0.2,0.4,0.3,0.7c0.1,0.3,0.2,0.5,0.2,0.8C61,257.9,61.1,258.2,61.1,258.6z M60,258.6c0-0.3,0-0.5,0-0.7
			c0-0.2,0-0.5-0.1-0.7c0-0.2-0.1-0.4-0.2-0.6c-0.1-0.2-0.2-0.4-0.3-0.5c-0.1-0.1-0.2-0.3-0.4-0.3c-0.1-0.1-0.3-0.1-0.5-0.1
			s-0.3,0-0.5,0.1c-0.1,0.1-0.3,0.2-0.4,0.3c-0.1,0.1-0.2,0.3-0.3,0.5c-0.1,0.2-0.1,0.4-0.2,0.6c0,0.2-0.1,0.5-0.1,0.7
			c0,0.2,0,0.5,0,0.7s0,0.5,0,0.7c0,0.2,0,0.5,0.1,0.7c0,0.2,0.1,0.4,0.2,0.6c0.1,0.2,0.2,0.4,0.3,0.5c0.1,0.1,0.2,0.2,0.4,0.3
			c0.1,0.1,0.3,0.1,0.5,0.1s0.3,0,0.5-0.1c0.1-0.1,0.3-0.2,0.4-0.3c0.1-0.1,0.2-0.3,0.3-0.5c0.1-0.2,0.1-0.4,0.2-0.6
			c0-0.2,0.1-0.5,0.1-0.7C60,259,60,258.8,60,258.6z"/>
	</g>
	<line class="st2" x1="58.4" y1="251.8" x2="58.4" y2="249.3"/>
	<g>
		<path d="M401.2,261.9v-0.4l1,0c0.1,0,0.1,0,0.2-0.1c0,0,0.1-0.1,0.1-0.2v-5.3l-1.5,0.3v-0.4l2.1-0.7h0.4v6.1c0,0.1,0,0.1,0.1,0.2
			c0,0,0.1,0.1,0.2,0.1l0.9,0v0.4H401.2z"/>
		<path d="M407.7,261.3c0,0.1,0,0.2-0.1,0.3c0,0.1-0.1,0.2-0.1,0.2c-0.1,0.1-0.1,0.1-0.2,0.1s-0.2,0.1-0.3,0.1c-0.1,0-0.2,0-0.3-0.1
			c-0.1,0-0.1-0.1-0.2-0.1c-0.1-0.1-0.1-0.1-0.1-0.2c0-0.1-0.1-0.2-0.1-0.3c0-0.1,0-0.2,0.1-0.3c0-0.1,0.1-0.2,0.1-0.2
			c0.1-0.1,0.1-0.1,0.2-0.1c0.1,0,0.2-0.1,0.3-0.1c0.1,0,0.2,0,0.3,0.1s0.2,0.1,0.2,0.1c0.1,0.1,0.1,0.1,0.1,0.2
			C407.7,261.2,407.7,261.3,407.7,261.3z"/>
		<path d="M410.4,261.7v0.3h-1.1l3.3-6h-3.1l-0.2,0.9h-0.5v-1.8h4.8v0.6L410.4,261.7z"/>
	</g>
	<line class="st2" x1="406.4" y1="251.8" x2="406.4" y2="249.3"/>
</g>
<path class="st0" d="M119.2,97.2h1.9l3.8-0.2l3.8,0.1l3.8-0.1l3.8,0l3.8,0l3.8,0l3.8,0l3.8,0.1l3.8,0l3.8,0l3.8,0l3.8-0.1L171,97
	l3.8,0.1l3.8-0.1h1.9 M195.9,96.9h1.9l3.8,0l3.8,0.1l3.8,0.3l3.8,0.9l3.8,1.3l3.8,1.3l3.8,1.4l3.8,1.5l3.8,2.3l3.8,0.8l3.8,1.1
	l3.8,1.6l3.8,0.9l3.8-5.6l3.8-7.3l3.8-13.7l3.8-0.5l3.8,0.6l3.8,0.8l3.8,0.8l3.8,0.7l3.8,0.8l3.8,0.7l3.8,0.9l3.8,0.9l3.8,1l3.8,0.7
	l3.8,0.7l3.8,0.8l3.8,0.8l3.8,0.8l3.8,0.6l3.8,0.9l3.8,0.9l3.8,0.9l3.8,0.7l3.8,0.7l3.8,0.8l3.8,0.8l3.8,0.8l3.8,0.7l3.8,0.6h1.9
	 M119.2,97.2h1.9l3.8-0.2l3.8,0.1l3.8-0.1l3.8,0l3.8,0l3.8,0l3.8,0l3.8,0.1l3.8,0l3.8,0l3.8,0l3.8-0.1L171,97l3.8,0.1l3.8-0.1h1.9
	 M195.9,96.9h1.9l3.8,0l3.8,0.1l3.8,0.3l3.8,0.9l3.8,1.3l3.8,1.3l3.8,1.4l3.8,1.5l3.8,2.3l3.8,0.8l3.8,1.1l3.8,1.6l3.8,0.9l3.8-5.6
	l3.8-7.3l3.8-14l3.8-0.8l3.8,0.1l3.8,0.2l3.8,0.2l3.8,0.2l3.8,0.2l3.8,0.1l3.8,0.4l3.8,0.2l3.8,0.4l3.8,0.2l3.8,0.2l3.8,0.2l3.8,0.2
	l3.8,0.2l3.8,0.2l3.8,0.2l3.8,0.3l3.8,0.2l3.8,0.2l3.8,0.2l3.8,0.2l3.8,0.2l3.8,0.2l3.8,0.2l3.8,0.6h1.9 M119.2,97.2h1.9l3.8-0.2
	l3.8,0.1l3.8-0.1l3.8,0l3.8,0l3.8,0l3.8,0l3.8,0.1l3.8,0l3.8,0l3.8,0l3.8-0.1L171,97l3.8,0.1l3.8-0.1h1.9 M195.9,96.9h1.9l3.8,0
	l3.8,0.1l3.8,0.3l3.8,0.9l3.8,1.3l3.8,1.3l3.8,1.4l3.8,1.5l3.8,2.3l3.8,0.8l3.8,1.1l3.8,1.6l3.8,0.9l3.8-5.6l3.8-7.3l3.8-14.4
	l3.8-1.1l3.8-0.4l3.8-0.4l3.8-0.4l3.8-0.4l3.8-0.3l3.8-0.4l3.8-0.6l3.8-0.6l3.8-0.2l3.8-0.3l3.8-0.4l3.8-0.3l3.8-0.4l3.8-0.4
	l3.8-0.3l3.8-0.4l3.8-0.4l3.8-0.4l3.8-0.4l3.8-0.4l3.8-0.3l3.8-0.3l3.8-0.4l3.8-0.5l3.8-0.3h1.9 M119.2,97.2h1.9l3.8-0.2l3.8,0.1
	l3.8-0.1l3.8,0l3.8,0l3.8,0l3.8,0l3.8,0.1l3.8,0l3.8,0l3.8,0l3.8-0.1L171,97l3.8,0.1l3.8-0.1h1.9 M195.9,96.9h1.9l3.8,0l3.8,0.1
	l3.8,0.3l3.8,0.9l3.8,1.3l3.8,1.3l3.8,1.4l3.8,1.5l3.8,2.3l3.8,0.8l3.8,1.1l3.8,1.6l3.8,0.9l3.8-5.6l3.8-7.3l3.8-14.8l3.8-1.3
	l3.8-0.9l3.8-1.1l3.8-0.9l3.8-1l3.8-1l3.8-0.6l3.8-1.4l3.8-1.4l3.8-1l3.8-0.9l3.8-0.8l3.8-1l3.8-1l3.8-1l3.8-1l3.8-0.9l3.8-1.2
	l3.8-1.1l3.8-1l3.8-1l3.8-0.8l3.8-1l3.8-1.2l3.8-0.9l3.8-0.8h1.9 M119.2,97.2h1.9l3.8-0.2l3.8,0.1l3.8-0.1l3.8,0l3.8,0l3.8,0l3.8,0
	l3.8,0.1l3.8,0l3.8,0l3.8,0l3.8-0.1L171,97l3.8,0.1l3.8-0.1h1.9 M195.9,96.9h1.9l3.8,0l3.8,0.1l3.8,0.2l3.8,0.7l3.8,1l3.8,1l3.8,1
	l3.8,1.3l3.8,1.6l3.8,0.6l3.8,0.9l3.8,1.1l3.8,0.8l3.8,1.1l3.8,1l3.8,1.2l3.8,0.5l3.8-12.5l3.8-12.8l3.8-2.2l3.8,1.1l3.8,1.6
	l3.8,1.1l3.8,2.2l3.8,1.5l3.8,1.8l3.8,1.3l3.8,1.6l3.8,1.6l3.8,1.5l3.8,1.5l3.8,1.3l3.8,1.6l3.8,1.6l3.8,1.7l3.8,1.4l3.8,1.4
	l3.8,1.6l3.8,1.4l3.8,1.6l3.8,1.4h1.9 M119.2,97.2h1.9l3.8-0.2l3.8,0.1l3.8-0.1l3.8,0l3.8,0l3.8,0l3.8,0l3.8,0.1l3.8,0l3.8,0l3.8,0
	l3.8-0.1L171,97l3.8,0.1l3.8-0.1h1.9 M195.9,96.9h1.9l3.8,0l3.8,0.1l3.8,0.2l3.8,0.7l3.8,1l3.8,1l3.8,1l3.8,1.3l3.8,1.6l3.8,0.6
	l3.8,0.9l3.8,1.1l3.8,0.8l3.8,1.1l3.8,1l3.8,1.2l3.8,0.5l3.8-12.5l3.8-12.8l3.8-2.6l3.8,0.6l3.8,0.9l3.8,0.6l3.8,1.4l3.8,0.8
	l3.8,1.2l3.8,0.8l3.8,0.8l3.8,0.9l3.8,0.9l3.8,0.9l3.8,0.7l3.8,1l3.8,1.1l3.8,0.9l3.8,0.9l3.8,0.8l3.8,1l3.8,0.9l3.8,0.9l3.8,0.7
	l3.8,0.7h1.9 M119.2,97.2h1.9l3.8-0.2l3.8,0.1l3.8-0.1l3.8,0l3.8,0l3.8,0l3.8,0l3.8,0.1l3.8,0l3.8,0l3.8,0l3.8-0.1L171,97l3.8,0.1
	l3.8-0.1h1.9 M195.9,96.9h1.9l3.8,0l3.8,0.1l3.8,0.2l3.8,0.7l3.8,1l3.8,1l3.8,1l3.8,1.3l3.8,1.6l3.8,0.6l3.8,0.9l3.8,1.1l3.8,0.8
	l3.8,1.1l3.8,1l3.8,1.2l3.8,0.5l3.8-12.5l3.8-12.7l3.8-3.1l3.8,0.1l3.8,0.3l3.8,0.1l3.8,0.4l3.8,0.3l3.8,0.4l3.8,0.3l3.8,0.2
	l3.8,0.2l3.8,0.2l3.8,0.2l3.8,0.2l3.8,0.3l3.8,0.3l3.8,0.2l3.8,0.2l3.8,0.3l3.8,0.3l3.8,0.2l3.8,0.3l3.8,0.1l3.8-0.1h1.9"/>
<path class="st0" d="M119.2,97.2h1.9l3.8-0.2l3.8,0.1l3.8-0.1l3.8,0l3.8,0l3.8,0l3.8,0l3.8,0.1l3.8,0l3.8,0l3.8,0l3.8-0.1L171,97
	l3.8,0.1l3.8-0.1h1.9 M195.9,96.9h1.9l3.8,0l3.8,0.1l3.8,0.2l3.8,0.7l3.8,1l3.8,1l3.8,1l3.8,1.3l3.8,1.6l3.8,0.6l3.8,0.9l3.8,1.1
	l3.8,0.8l3.8,1.1l3.8,1l3.8,1.2l3.8,0.5l3.8-12.5l3.8-12.7l3.8-3.5l3.8-0.5l3.8-0.4l3.8-0.4l3.8-0.7l3.8-0.6l3.8-0.4l3.8-0.4
	l3.8-0.4l3.8-0.4l3.8-0.4l3.8-0.4l3.8-0.4l3.8-0.4l3.8-0.5l3.8-0.5l3.8-0.4l3.8-0.4l3.8-0.4l3.8-0.5l3.8-0.3l3.8-0.5l3.8-1h1.9
	 M119.2,97.2h1.9l3.8-0.2l3.8,0.1l3.8-0.1l3.8,0l3.8,0l3.8,0l3.8,0l3.8,0.1l3.8,0l3.8,0l3.8,0l3.8-0.1L171,97l3.8,0.1l3.8-0.1h1.9
	 M195.9,96.9h1.9l3.8,0l3.8,0.1l3.8,0.2l3.8,0.7l3.8,1l3.8,1l3.8,1l3.8,1.3l3.8,1.6l3.8,0.6l3.8,0.9l3.8,1.1l3.8,0.8l3.8,1.1l3.8,1
	l3.8,1.2l3.8,0.5l3.8-12.5l3.8-12.6l3.8-4l3.8-1.3l3.8-1l3.8-1l3.8-1.2l3.8-1.7l3.8-1.4l3.8-0.8l3.8-1l3.8-1.2l3.8-1.1l3.8-1.1
	l3.8-1.1l3.8-1.1l3.8-1.4l3.8-1.3L336,63l3.8-1l3.8-1.2l3.8-1.2l3.8-1.3l3.8-1l3.8-1.2h1.9 M119.2,97.2h1.9l3.8-0.2l3.8,0.1l3.8-0.1
	l3.8,0l3.8,0l3.8,0l3.8,0l3.8,0.1l3.8,0l3.8,0l3.8,0l3.8-0.1L171,97l3.8,0.1l3.8-0.1h1.9 M195.9,96.9h1.9l3.8,0l3.8,0.1l3.8,0.2
	l3.8,0.5l3.8,0.8l3.8,0.8l3.8,0.8l3.8,1.1l3.8,1.2l3.8,0.5l3.8,0.8l3.8,0.8l3.8,0.7l3.8,0.8l3.8,0.9l3.8,0.9l3.8,0.9l3.8,0.7
	l3.8,0.9l3.8,0.8l3.8-11.4l3.8-7.5l3.8-6.4l3.8-0.9l3.8,1.5l3.8,2.2l3.8,1.4l3.8,1.9l3.8,1.8l3.8,1.8l3.8,1.9l3.8,1.4l3.8,2l3.8,1.9
	l3.8,1.9l3.8,1.7l3.8,1.7l3.8,1.8l3.8,1.8l3.8,1.7l3.8,1.5h1.9 M119.2,97.2h1.9l3.8-0.2l3.8,0.1l3.8-0.1l3.8,0l3.8,0l3.8,0l3.8,0
	l3.8,0.1l3.8,0l3.8,0l3.8,0l3.8-0.1L171,97l3.8,0.1l3.8-0.1h1.9 M195.9,96.9h1.9l3.8,0l3.8,0.1l3.8,0.2l3.8,0.5l3.8,0.8l3.8,0.8
	l3.8,0.8l3.8,1.1l3.8,1.2l3.8,0.5l3.8,0.8l3.8,0.8l3.8,0.7l3.8,0.8l3.8,0.9l3.8,0.9l3.8,0.9l3.8,0.7l3.8,0.9l3.8,0.8l3.8-11.4
	l3.8-7.5l3.8-6.5l3.8-1.8l3.8,0.9l3.8,1.4l3.8,0.8l3.8,1l3.8,1l3.8,1.1l3.8,1l3.8,0.9l3.8,1.2l3.8,1.1l3.8,1.2l3.8,0.9l3.8,1
	l3.8,1.2l3.8,1l3.8,1l3.8,0.9l3.8,0.9h1.9 M119.2,97.2h1.9l3.8-0.2l3.8,0.1l3.8-0.1l3.8,0l3.8,0l3.8,0l3.8,0l3.8,0.1l3.8,0l3.8,0
	l3.8,0l3.8-0.1L171,97l3.8,0.1l3.8-0.1h1.9 M195.9,96.9h1.9l3.8,0l3.8,0.1l3.8,0.2l3.8,0.5l3.8,0.8l3.8,0.8l3.8,0.8l3.8,1.1l3.8,1.2
	l3.8,0.5l3.8,0.8l3.8,0.8l3.8,0.7l3.8,0.8l3.8,0.9l3.8,0.9l3.8,0.9l3.8,0.7l3.8,0.9l3.8,0.8l3.8-11.4l3.8-7.5l3.8-6.6l3.8-2.8
	l3.8,0.2l3.8,0.5l3.8,0.2l3.8,0.2l3.8,0.3l3.8,0.3l3.8,0.3l3.8,0.2l3.8,0.3l3.8,0.4l3.8,0.3l3.8,0.2l3.8,0.3l3.8,0.3l3.8,0.4
	l3.8,0.2l3.8,0.1h1.9 M119.2,97.2h1.9l3.8-0.2l3.8,0.1l3.8-0.1l3.8,0l3.8,0l3.8,0l3.8,0l3.8,0.1l3.8,0l3.8,0l3.8,0l3.8-0.1L171,97
	l3.8,0.1l3.8-0.1h1.9 M195.9,96.9h1.9l3.8,0l3.8,0.1l3.8,0.2l3.8,0.5l3.8,0.8l3.8,0.8l3.8,0.8l3.8,1.1l3.8,1.2l3.8,0.5l3.8,0.8
	l3.8,0.8l3.8,0.7l3.8,0.8l3.8,0.9l3.8,0.9l3.8,0.9l3.8,0.7l3.8,0.9l3.8,0.8l3.8-11.4l3.8-7.5l3.8-6.8l3.8-3.6l3.8-0.7l3.8-0.5
	l3.8-0.4l3.8-0.6l3.8-0.5l3.8-0.4l3.8-0.5l3.8-0.6l3.8-0.5l3.8-0.5l3.8-0.6l3.8-0.5l3.8-0.5l3.8-0.4l3.8-0.6l3.8-0.6l3.8-0.4
	l3.8-0.1h1.9"/>
<path class="st0" d="M119.2,97.2h1.9l3.8-0.2l3.8,0.1l3.8-0.1l3.8,0l3.8,0l3.8,0l3.8,0l3.8,0.1l3.8,0l3.8,0l3.8,0l3.8-0.1L171,97
	l3.8,0.1l3.8-0.1h1.9 M195.9,96.9h1.9l3.8,0l3.8,0.1l3.8,0.2l3.8,0.5l3.8,0.8l3.8,0.8l3.8,0.8l3.8,1.1l3.8,1.2l3.8,0.5l3.8,0.8
	l3.8,0.8l3.8,0.7l3.8,0.8l3.8,0.9l3.8,0.9l3.8,0.9l3.8,0.7l3.8,0.9l3.8,0.8l3.8-11.4l3.8-7.6l3.8-6.8l3.8-4.5l3.8-1.7l3.8-1.3
	l3.8-1.1l3.8-1.3l3.8-1.4l3.8-1.2l3.8-1.4l3.8-1.3l3.8-1.4l3.8-1.7l3.8-1.4l3.8-1.4l3.8-1.2l3.8-1.4l3.8-1.4l3.8-1.5l3.8-1.2
	l3.8-1.2h1.9 M119.2,97.2h1.9l3.8-0.2l3.8,0.1l3.8-0.1l3.8,0l3.8,0l3.8,0l3.8,0l3.8,0.1l3.8,0l3.8,0l3.8,0l3.8-0.1L171,97l3.8,0.1
	l3.8-0.1h1.9 M195.9,96.9h1.9l3.8,0l3.8,0.1l3.8,0.2l3.8,0.5l3.8,0.7l3.8,0.7l3.8,0.6l3.8,0.9l3.8,1l3.8,0.4l3.8,0.6l3.8,0.8
	l3.8,0.5l3.8,0.7l3.8,0.7l3.8,0.7l3.8,0.8l3.8,0.6l3.8,0.8l3.8,0.7l3.8,0.6l3.8,0.8l3.8,0.4l3.8-4.5l3.8-9.9l3.8-10.1l3.8-2l3.8,1.9
	l3.8,2.4l3.8,2.1l3.8,2.1l3.8,1.9l3.8,2.3l3.8,2.4l3.8,2.3l3.8,2l3.8,2.1l3.8,2.3l3.8,2.1l3.8,2.2l3.8,1.6l3.8,1.9h1.9 M119.2,97.2
	h1.9l3.8-0.2l3.8,0.1l3.8-0.1l3.8,0l3.8,0l3.8,0l3.8,0l3.8,0.1l3.8,0l3.8,0l3.8,0l3.8-0.1L171,97l3.8,0.1l3.8-0.1h1.9 M195.9,96.9
	h1.9l3.8,0l3.8,0.1l3.8,0.2l3.8,0.5l3.8,0.7l3.8,0.7l3.8,0.6l3.8,0.9l3.8,1l3.8,0.4l3.8,0.6l3.8,0.8l3.8,0.5l3.8,0.7l3.8,0.7
	l3.8,0.7l3.8,0.8l3.8,0.6l3.8,0.8l3.8,0.7l3.8,0.6l3.8,0.8l3.8,0.4l3.8-4.5l3.8-9.9l3.8-10.2l3.8-2.4l3.8,1.1l3.8,1.2l3.8,1.2
	l3.8,1.4l3.8,1.1l3.8,1.5l3.8,1.4l3.8,1.4L336,95l3.8,1.2l3.8,1.4l3.8,1.3l3.8,1.3l3.8,1l3.8,1.1h1.9 M119.2,97.2h1.9l3.8-0.2
	l3.8,0.1l3.8-0.1l3.8,0l3.8,0l3.8,0l3.8,0l3.8,0.1l3.8,0l3.8,0l3.8,0l3.8-0.1L171,97l3.8,0.1l3.8-0.1h1.9 M195.9,96.9h1.9l3.8,0
	l3.8,0.1l3.8,0.2l3.8,0.5l3.8,0.7l3.8,0.7l3.8,0.6l3.8,0.9l3.8,1l3.8,0.4l3.8,0.6l3.8,0.8l3.8,0.5l3.8,0.7l3.8,0.7l3.8,0.7l3.8,0.8
	l3.8,0.6l3.8,0.8l3.8,0.7l3.8,0.6l3.8,0.8l3.8,0.4l3.8-4.5l3.8-9.9l3.8-10.4l3.8-3l3.8,0.2l3.8,0.4l3.8,0.3l3.8,0.4l3.8,0.3l3.8,0.4
	l3.8,0.4l3.8,0.4L336,86l3.8,0.3l3.8,0.4l3.8,0.3l3.8,0.3l3.8,0.3h1.9 M119.2,97.2h1.9l3.8-0.2l3.8,0.1l3.8-0.1l3.8,0l3.8,0l3.8,0
	l3.8,0l3.8,0.1l3.8,0l3.8,0l3.8,0l3.8-0.1L171,97l3.8,0.1l3.8-0.1h1.9 M195.9,96.9h1.9l3.8,0l3.8,0.1l3.8,0.2l3.8,0.5l3.8,0.7
	l3.8,0.7l3.8,0.6l3.8,0.9l3.8,1l3.8,0.4l3.8,0.6l3.8,0.8l3.8,0.5l3.8,0.7l3.8,0.7l3.8,0.7l3.8,0.8l3.8,0.6l3.8,0.8l3.8,0.7l3.8,0.6
	l3.8,0.8l3.8,0.4l3.8-4.5l3.8-9.9l3.8-10.6l3.8-3.6l3.8-0.7l3.8-0.6l3.8-0.5l3.8-0.6l3.8-0.6l3.8-0.6l3.8-0.8l3.8-0.7l3.8-0.6
	l3.8-0.6l3.8-0.6l3.8-0.6l3.8-0.6l3.8-0.6l3.8-0.8h1.9 M119.2,97.2h1.9l3.8-0.2l3.8,0.1l3.8-0.1l3.8,0l3.8,0l3.8,0l3.8,0l3.8,0.1
	l3.8,0l3.8,0l3.8,0l3.8-0.1L171,97l3.8,0.1l3.8-0.1h1.9 M195.9,96.9h1.9l3.8,0l3.8,0.1l3.8,0.2l3.8,0.5l3.8,0.7l3.8,0.7l3.8,0.6
	l3.8,0.9l3.8,1l3.8,0.4l3.8,0.6l3.8,0.8l3.8,0.5l3.8,0.7l3.8,0.7l3.8,0.7l3.8,0.8l3.8,0.6l3.8,0.8l3.8,0.7l3.8,0.6l3.8,0.8l3.8,0.4
	l3.8-4.5l3.8-9.9l3.8-10.7l3.8-4.2l3.8-1.7l3.8-1.7l3.8-1.5l3.8-1.6l3.8-1.6l3.8-1.7l3.8-1.9l3.8-1.7l3.8-1.7l3.8-1.5l3.8-1.7
	l3.8-1.7l3.8-1.8l3.8-1.5l3.8-1.2h1.9"/>
<path class="st0" d="M119.2,97.2h1.9l3.8-0.2l3.8,0.1l3.8-0.1l3.8,0l3.8,0l3.8,0l3.8,0l3.8,0.1l3.8,0l3.8,0l3.8,0l3.8-0.1L171,97
	l3.8,0.1l3.8-0.1h1.9 M195.9,96.9h1.9l3.8,0l3.8,0.1l3.8,0.2l3.8,0.4l3.8,0.6l3.8,0.5l3.8,0.6l3.8,0.8l3.8,0.8l3.8,0.4l3.8,0.6
	l3.8,0.6l3.8,0.4l3.8,0.6l3.8,0.6l3.8,0.7l3.8,0.7l3.8,0.5l3.8,0.6l3.8,0.7l3.8,0.5l3.8,0.5l3.8,0.5l3.8,0.9l3.8,0.4l3.8,0.9
	l3.8-0.7l3.8-8.9l3.8-13l3.8-4.1l3.8,1.7l3.8,2.4l3.8,3.2l3.8,2.8l3.8,2.9l3.8,2.7l3.8,2.8l3.8,2.6l3.8,2.9l3.8,2.7l3.8,2.3h1.9
	 M119.2,97.2h1.9l3.8-0.2l3.8,0.1l3.8-0.1l3.8,0l3.8,0l3.8,0l3.8,0l3.8,0.1l3.8,0l3.8,0l3.8,0l3.8-0.1L171,97l3.8,0.1l3.8-0.1h1.9
	 M195.9,96.9h1.9l3.8,0l3.8,0.1l3.8,0.2l3.8,0.4l3.8,0.6l3.8,0.5l3.8,0.6l3.8,0.8l3.8,0.8l3.8,0.4l3.8,0.6l3.8,0.6l3.8,0.4l3.8,0.6
	l3.8,0.6l3.8,0.7l3.8,0.7l3.8,0.5l3.8,0.6l3.8,0.7l3.8,0.5l3.8,0.5l3.8,0.5l3.8,0.9l3.8,0.4l3.8,0.9l3.8-0.7l3.8-8.9l3.8-13l3.8-4.5
	l3.8,0.7l3.8,1.5l3.8,1.8l3.8,1.8l3.8,1.9l3.8,1.4l3.8,1.6l3.8,1.7l3.8,1.6l3.8,1.7l3.8,1.3l3.8,1.4h1.9 M119.2,97.2h1.9l3.8-0.2
	l3.8,0.1l3.8-0.1l3.8,0l3.8,0l3.8,0l3.8,0l3.8,0.1l3.8,0l3.8,0l3.8,0l3.8-0.1L171,97l3.8,0.1l3.8-0.1h1.9 M195.9,96.9h1.9l3.8,0
	l3.8,0.1l3.8,0.2l3.8,0.4l3.8,0.6l3.8,0.5l3.8,0.6l3.8,0.8l3.8,0.8l3.8,0.4l3.8,0.6l3.8,0.6l3.8,0.4l3.8,0.6l3.8,0.6l3.8,0.7
	l3.8,0.7l3.8,0.5l3.8,0.6l3.8,0.7l3.8,0.5l3.8,0.5l3.8,0.5l3.8,0.9l3.8,0.4l3.8,0.9l3.8-0.7l3.8-8.9l3.8-13l3.8-5l3.8-0.1l3.8,0.3
	l3.8,0.5l3.8,0.5l3.8,0.5l3.8,0.3l3.8,0.4l3.8,0.5l3.8,0.4l3.8,0.5l3.8,0.4l3.8,0h1.9 M119.2,97.2h1.9l3.8-0.2l3.8,0.1l3.8-0.1
	l3.8,0l3.8,0l3.8,0l3.8,0l3.8,0.1l3.8,0l3.8,0l3.8,0l3.8-0.1L171,97l3.8,0.1l3.8-0.1h1.9 M195.9,96.9h1.9l3.8,0l3.8,0.1l3.8,0.2
	l3.8,0.4l3.8,0.6l3.8,0.5l3.8,0.6l3.8,0.8l3.8,0.8l3.8,0.4l3.8,0.6l3.8,0.6l3.8,0.4l3.8,0.6l3.8,0.6l3.8,0.7l3.8,0.7l3.8,0.5
	l3.8,0.6l3.8,0.7l3.8,0.5l3.8,0.5l3.8,0.5l3.8,0.9l3.8,0.4l3.8,0.9l3.8-0.7l3.8-8.9l3.8-13l3.8-5.4l3.8-1.2l3.8-0.7l3.8-0.8l3.8-1
	l3.8-0.8l3.8-0.7l3.8-0.7l3.8-0.8l3.8-0.8l3.8-0.9l3.8-0.7L359,73h1.9 M119.2,97.2h1.9l3.8-0.2l3.8,0.1l3.8-0.1l3.8,0l3.8,0l3.8,0
	l3.8,0l3.8,0.1l3.8,0l3.8,0l3.8,0l3.8-0.1L171,97l3.8,0.1l3.8-0.1h1.9 M195.9,96.9h1.9l3.8,0l3.8,0.1l3.8,0.2l3.8,0.4l3.8,0.6
	l3.8,0.5l3.8,0.6l3.8,0.8l3.8,0.8l3.8,0.4l3.8,0.6l3.8,0.6l3.8,0.4l3.8,0.6l3.8,0.6l3.8,0.7l3.8,0.7l3.8,0.5l3.8,0.6l3.8,0.7
	l3.8,0.5l3.8,0.5l3.8,0.5l3.8,0.9l3.8,0.4l3.8,0.9l3.8-0.7l3.8-8.9l3.8-13l3.8-5.4l3.8-2.5l3.8-2.2l3.8-2l3.8-2.4l3.8-2.3l3.8-2.1
	l3.8-2l3.8-2.1l3.8-2.2l3.8-2.2l3.8-1.9l3.8-1.2h1.9"/>
</svg>
